<mxfile host="app.diagrams.net" modified="2021-05-18T10:25:22.657Z" agent="5.0 (Macintosh; Intel Mac OS X 10_15_7) AppleWebKit/537.36 (KHTML, like Gecko) Chrome/90.0.4430.212 Safari/537.36" etag="xJT3hcPWVHCYJwo92Ntj" version="14.6.12" type="github">
  <diagram id="rhLs8hDfA12OFTMBVzQE" name="第 1 页">
    <mxGraphModel dx="1127" dy="714" grid="1" gridSize="10" guides="1" tooltips="1" connect="1" arrows="1" fold="1" page="1" pageScale="1" pageWidth="827" pageHeight="1169" math="0" shadow="0">
      <root>
        <mxCell id="0" />
        <mxCell id="1" parent="0" />
        <mxCell id="AC7fx64Xs-f3FDyAJllu-2" value="" style="shape=image;verticalLabelPosition=bottom;labelBackgroundColor=#ffffff;verticalAlign=top;aspect=fixed;imageAspect=0;image=data:image/svg+xml,PHN2ZyB4bWxucz0iaHR0cDovL3d3dy53My5vcmcvMjAwMC9zdmciIHhtbG5zOnhsaW5rPSJodHRwOi8vd3d3LnczLm9yZy8xOTk5L3hsaW5rIiB0PSIxNjIxMzMyODkyMzQ3IiBjbGFzcz0iaWNvbiIgdmlld0JveD0iMTI3Ljk5OTk2MTg1MzAyNzM0IDg1LjUwNDAzNTk0OTcwNzAzIDc2Ny40OTA5MDU3NjE3MTg4IDg1MS45NjgwMTc1NzgxMjUiIHZlcnNpb249IjEuMSIgcC1pZD0iMTQyMTQiIHdpZHRoPSI3NjcuNDkwOTA1NzYxNzE4OCIgaGVpZ2h0PSI4NTEuOTY4MDE3NTc4MTI1Ij48ZGVmcz48c3R5bGUgdHlwZT0idGV4dC9jc3MiLz48L2RlZnM+PHBhdGggZD0iTTc1MC4wOCA2NTcuOTJjLTE2LjM4NCAwLTMwLjIwOCAyLjU2LTQ0LjAzMiA4LjE5MmwtNDQuMDMyLTUyLjIyNGMzMy4yOC0zOC40IDU1LjI5Ni05MC42MjQgNTUuMjk2LTE0NS45MnMtMTkuNDU2LTEwMS44ODgtNTIuMjI0LTE0MC4yODhsMjcuNjQ4LTI0LjU3NmMxNi4zODQgOC4xOTIgMzMuMjggMTMuODI0IDUyLjIyNCAxMy44MjQgNjMuNDg4IDAgMTE1LjcxMi01Mi4yMjQgMTE1LjcxMi0xMTUuNzEyIDAtNjMuNDg4LTUyLjIyNC0xMTUuNzEyLTExNS43MTItMTE1LjcxMi02My40ODggMC0xMTUuNzEyIDUyLjIyNC0xMTUuNzEyIDExNS43MTIgMCAxMy44MjQgMi41NiAzMC4yMDggOC4xOTIgNDEuNDcybC0zNS44NCAzMC4yMDhjLTM0LjMwNC0xOS45NjgtNzMuMjE2LTMwLjIwOC0xMTIuNjQtMzAuMjA4LTQ0LjAzMiAwLTg1LjUwNCAxMy44MjQtMTIxLjM0NCAzMi43NjhsLTQxLjQ3Mi01Mi4yMjRjMC01LjYzMiAyLjU2LTEzLjgyNCAyLjU2LTE5LjQ1NiAwLTQwLjk2LTMyLjc2OC03NC4yNC03My43MjgtNzQuMjRoLTAuNTEyYy00MC45NiAwLTc0LjI0IDMyLjc2OC03NC4yNCA3My43Mjh2MC41MTJjMCA0MC45NiAzMi43NjggNzQuMjQgNzMuNzI4IDc0LjI0SDI2Mi42NTZMMzA2LjY4OCAzMzIuOGMtMjcuNjQ4IDM4LjQtNDYuNTkyIDg1LjUwNC00Ni41OTIgMTM0LjY1NiAwIDM1Ljg0IDguMTkyIDcxLjY4IDI0LjU3NiAxMDEuODg4bC0zNS44NCAzMC4yMDhjLTguMTkyLTUuNjMyLTE5LjQ1Ni01LjYzMi0zMC4yMDgtNS42MzItNDkuNjY0IDAtOTAuNjI0IDQxLjQ3Mi05MC42MjQgOTAuNjI0IDAgNDkuNjY0IDQxLjQ3MiA5MC42MjQgOTAuNjI0IDkwLjYyNHM5MC42MjQtNDEuNDcyIDkwLjYyNC05MC42MjRjMC04LjE5MiAwLTE2LjM4NC0yLjU2LTI0LjU3NmwzMC4yMDgtMjcuNjQ4YzQxLjQ3MiAzNS44NCA5My42OTYgNTcuODU2IDE1NC4xMTIgNTcuODU2IDMzLjI4IDAgNjMuNDg4LTUuNjMyIDkwLjYyNC0xOS40NTZsNDYuNTkyIDU3Ljg1NmMtMTEuMjY0IDE5LjQ1Ni0xOS40NTYgNDQuMDMyLTE5LjQ1NiA2OC42MDggMCA3Ny4zMTIgNjMuNDg4IDE0MC4yODggMTQzLjM2IDE0MC4yODhzMTQzLjM2LTYzLjQ4OCAxNDMuMzYtMTQwLjI4OGMwLjUxMi03NS43NzYtNjUuNTM2LTEzOS4yNjQtMTQ1LjQwOC0xMzkuMjY0eiBtLTI2MS42MzItMTEuMjY0Yy05OS4zMjggMC0xODEuNzYtNzkuODcyLTE4MS43Ni0xNzguNjg4QzMwNi42ODggMzY4LjY0IDM4OS4xMiAyODkuMjggNDg4LjQ0OCAyODkuMjhzMTgxLjc2IDc5Ljg3MiAxODEuNzYgMTc4LjY4OGMwIDk5LjMyOC04Mi40MzIgMTc4LjY4OC0xODEuNzYgMTc4LjY4OHpNNDMwLjU5MiA0NjUuNDA4YzAuNTEyIDE4LjQzMi0xMy44MjQgMzMuMjgtMzIuMjU2IDMzLjc5Mi0xOC40MzIgMC41MTItMzMuMjgtMTMuODI0LTMzLjc5Mi0zMi4yNTZ2LTEuNTM2YzAtMTguNDMyIDE0Ljg0OC0zMi43NjggMzMuMjgtMzIuNzY4IDE4LjQzMi0wLjUxMiAzMi43NjggMTQuMzM2IDMyLjc2OCAzMi43Njh6IG04OC4wNjQgMGMwIDE4LjQzMi0xNC44NDggMzMuMjgtMzIuNzY4IDMzLjI4LTE4LjQzMiAwLTMzLjI4LTE0Ljg0OC0zMy4yOC0zMi43NjggMC0xOC40MzIgMTQuODQ4LTMyLjc2OCAzMy4yOC0zMi43NjhzMzIuNzY4IDEzLjgyNCAzMi43NjggMzIuMjU2eiBtOTEuMTM2IDBjMCAxOC40MzItMTQuODQ4IDMzLjI4LTMyLjc2OCAzMy4yOHMtMzMuMjgtMTQuODQ4LTMzLjI4LTMyLjc2OGMwLTE4LjQzMiAxNC44NDgtMzIuNzY4IDMzLjI4LTMyLjc2OCAxNy45Mi0xLjAyNCAzMi43NjggMTMuODI0IDMyLjc2OCAzMi4yNTZ6IiBmaWxsPSIjRkY2QTAwIiBwLWlkPSIxNDIxNSIvPjwvc3ZnPg==;" vertex="1" parent="1">
          <mxGeometry x="400" y="640" width="63" height="70" as="geometry" />
        </mxCell>
        <mxCell id="AC7fx64Xs-f3FDyAJllu-3" value="" style="shape=image;verticalLabelPosition=bottom;labelBackgroundColor=#ffffff;verticalAlign=top;aspect=fixed;imageAspect=0;image=data:image/svg+xml,PHN2ZyB4bWxucz0iaHR0cDovL3d3dy53My5vcmcvMjAwMC9zdmciIHhtbG5zOnhsaW5rPSJodHRwOi8vd3d3LnczLm9yZy8xOTk5L3hsaW5rIiB3aWR0aD0iMzU5OC43MzE0NDUzMTI1IiBoZWlnaHQ9Ijg2Mi42MzI1MDczMjQyMTg4IiB2aWV3Qm94PSIwLjU2OTkzMzgzMTY5MTc0MTkgLTE1LjM1NjA5NzIyMTM3NDUxMiAzNTk4LjczMTQ0NTMxMjUgODYyLjYzMjUwNzMyNDIxODgiIHZlcnNpb249IjEuMSI+JiN4YTsgICAgPCEtLSBHZW5lcmF0b3I6IFNrZXRjaCA1MS4zICg1NzU0NCkgLSBodHRwOi8vd3d3LmJvaGVtaWFuY29kaW5nLmNvbS9za2V0Y2ggLS0+JiN4YTsgICAgPHRpdGxlPkdyb3VwPC90aXRsZT4mI3hhOyAgICA8ZGVzYz5DcmVhdGVkIHdpdGggU2tldGNoLjwvZGVzYz4mI3hhOyAgICA8ZGVmcy8+JiN4YTsgICAgPGcgaWQ9IlBhZ2UtMSIgc3Ryb2tlPSJub25lIiBzdHJva2Utd2lkdGg9IjEiIGZpbGw9Im5vbmUiIGZpbGwtcnVsZT0iZXZlbm9kZCI+JiN4YTsgICAgICAgIDxnIGlkPSJHcm91cCIgdHJhbnNmb3JtPSJ0cmFuc2xhdGUoMC4wMDAwMDAsIC0xNi4wMDAwMDApIj4mI3hhOyAgICAgICAgICAgIDxnIGlkPSJHcm91cC0yIiB0cmFuc2Zvcm09InRyYW5zbGF0ZSgwLjAwMDAwMCwgMTU3LjU5OTExOSkiIGZpbGw9IiMxODkwRkYiPiYjeGE7ICAgICAgICAgICAgICAgIDxwYXRoIGQ9Ik0xNDQwLjYxOTQ5LDIyNC40MDUyODYgTDE0NDAuNjE5NDksMjI2LjMzODEwNiBMMTM4MS45OTA2NCw1MjIuNzAzNzQ0IEMxMzc0LjI1OTM2LDU2MS4zNjAxMzIgMTM2My45NTA5OSw1NzYuODIyNjg3IDEzMjQuNjUwMzMsNTc2LjgyMjY4NyBMMTMwNy4yNTQ5Niw1NzYuODIyNjg3IEMxMjcyLjQ2NDIxLDU3Ni44MjI2ODcgMTI1NC40MjQ1Niw1NjAuMDcxNTg2IDEyNDYuMDQ5MDEsNTI2LjU2OTM4MyBMMTE5NS4xNTE0MywzMjkuNDIxODA2IEMxMTk0LjUwNzE2LDMyNi44NDQ3MTQgMTE5NC41MDcxNiwzMjYuMjAwNDQxIDExOTMuMjE4NjEsMzI2LjIwMDQ0MSBDMTE5MS45MzAwNywzMjYuMjAwNDQxIDExOTEuOTMwMDcsMzI2Ljg0NDcxNCAxMTkxLjI4NTc5LDMyOS40MjE4MDYgTDExNDAuMzg4MjIsNTI2LjU2OTM4MyBDMTEzMi4wMTI2Nyw1NjAuMDcxNTg2IDExMTMuOTczMDIsNTc2LjgyMjY4NyAxMDc5LjE4MjI3LDU3Ni44MjI2ODcgTDEwNjEuNzg2ODksNTc2LjgyMjY4NyBDMTAyMi40ODYyMyw1NzYuODIyNjg3IDEwMTIuMTc3ODYsNTYxLjM2MDEzMiAxMDA0LjQ0NjU5LDUyMi43MDM3NDQgTDk4Ny43MjAyNjQsNDM0LjE0MDk2OSBDOTg2LjcyOTA3NSw0MzguMzIwNDg1IDk4OC4zODEwNTcsNDMyLjcwMzc0NCA5OTIuNjc2MjExLDQxNy4yOTA3NDkgQzk5OS4xMTg5NDMsMzk0LjE3MTI1NiA5OTkuMTE4OTQzLDM5NC4xNzEyNTYgOTk5LjExODk0MywzOTQuMTcxMjU2IEwxMDI4Ljg1NDYzLDI4Ny40NDQ5MzQgQzEwMzUuMjk3MzYsMjg3LjQ0NDkzNCAxMDQzLjIyNjg3LDI4Ny40NDQ5MzQgMTA0My4yMjY4NywyODcuNDQ0OTM0IEMxMDQzLjIyNjg3LDI4Ny40NDQ5MzQgMTA1My4yNzkxOSwzNTYuODQ0NzE0IDEwNzMuMzgzODEsNDk1LjY0NDI3MyBDMTA3NC4wMjgwOCw1MDEuNDQyNzMxIDEwNzUuMzE2NjMsNTA0LjY2NDA5NyAxMDc2LjYwNTE4LDUwNC42NjQwOTcgQzEwNzcuODkzNzIsNTA0LjY2NDA5NyAxMDc5LjgyNjU0LDUwMi4wODcwMDQgMTA4MS4xMTUwOSw0OTUuNjQ0MjczIEwxMTM0LjU4OTc2LDI3OS4xNjg1MDIgQzExNDEuMDMyNDksMjU0LjA0MTg1IDExNDguNzYzNzcsMjUxLjQ2NDc1OCAxMTcwLjY2OTA1LDI1MS40NjQ3NTggTDEyMTUuNzY4MTcsMjUxLjQ2NDc1OCBDMTIzNy42NzM0NiwyNTEuNDY0NzU4IDEyNDUuNDA0NzQsMjU0LjA0MTg1IDEyNTEuODQ3NDcsMjc5LjE2ODUwMiBMMTMwNS4zMjIxNCw0OTUuNjQ0MjczIEMxMzA2LjYxMDY4LDUwMi4wODcwMDQgMTMwOC41NDM1LDUwNC42NjQwOTcgMTMwOS44MzIwNSw1MDQuNjY0MDk3IEMxMzExLjEyMDU5LDUwNC42NjQwOTcgMTMxMi40MDkxNCw1MDEuNDQyNzMxIDEzMTMuMDUzNDEsNDk1LjY0NDI3MyBMMTM1My42NDI2MiwyMjMuMTE2NzQgQzEzNTQuMjg2ODksMjE3LjMxODI4MiAxMzU4Ljc5NjgxLDIxMS41MTk4MjQgMTM2NS4yMzk1NCwyMTEuNTE5ODI0IEwxNDI3LjczNDAzLDIxMS41MTk4MjQgQzE0MzQuODIxMDQsMjExLjUxOTgyNCAxNDQwLjYxOTQ5LDIxNy4zMTgyODIgMTQ0MC42MTk0OSwyMjQuNDA1Mjg2IFogTTE3NTQuOTI1NjYsNTYyLjAwNDQwNSBDMTc1NC45MjU2Niw1NjkuMDkxNDEgMTc0OS4xMjcyLDU3NC44ODk4NjggMTc0Mi4wNDAyLDU3NC44ODk4NjggTDE2ODcuMjc2OTgsNTc0Ljg4OTg2OCBDMTY4MC4xODk5OCw1NzQuODg5ODY4IDE2NzQuMzkxNTIsNTY5LjA5MTQxIDE2NzQuMzkxNTIsNTYyLjAwNDQwNSBMMTY3NC4zOTE1Miw1NTEuNjk2MDM1IEMxNjQ0Ljc1NDk2LDU2OS43MzU2ODMgMTYxNC40NzQxMiw1ODAuMDQ0MDUzIDE1ODMuNTQ5MDEsNTgwLjA0NDA1MyBDMTUzMC4wNzQzNCw1ODAuMDQ0MDUzIDE0NzIuMDg5NzYsNTU5LjQyNzMxMyAxNDcyLjA4OTc2LDQ3Mi40NTA0NDEgTDE0NzIuMDg5NzYsNDY5Ljg3MzM0OCBDMTQ3Mi4wODk3NiwzOTYuNDI2MjExIDE1MTcuMTg4ODgsMzU4LjQxNDA5NyAxNjI5LjI5MjQsMzU4LjQxNDA5NyBMMTY2OS44ODE2MSwzNTguNDE0MDk3IEwxNjY5Ljg4MTYxLDMzMC4wNjYwNzkgQzE2NjkuODgxNjEsMjg4LjE4ODMyNiAxNjUxLjE5NzY5LDI3Ny44Nzk5NTYgMTYxMy4xODU1NywyNzcuODc5OTU2IEMxNTcxLjk1MjA5LDI3Ny44Nzk5NTYgMTUyOS40MzAwNywyODAuNDU3MDQ4IDE1MDguMTY5MDUsMjgzLjAzNDE0MSBMMTUwNC45NDc2OSwyODMuMDM0MTQxIEMxNDk4LjUwNDk2LDI4My4wMzQxNDEgMTQ5My4zNTA3NywyODEuMTAxMzIyIDE0OTMuMzUwNzcsMjcyLjA4MTQ5OCBMMTQ5My4zNTA3NywyMzAuODQ4MDE4IEMxNDkzLjM1MDc3LDIyMy43NjEwMTMgMTQ5Ny4yMTY0MSwyMTkuMjUxMTAxIDE1MDUuNTkxOTYsMjE3LjMxODI4MiBDMTUzMS4zNjI4OSwyMTIuMTY0MDk3IDE1NjguNzMwNzMsMjA3LjAwOTkxMiAxNjEzLjE4NTU3LDIwNy4wMDk5MTIgQzE3MDQuNjcyMzYsMjA3LjAwOTkxMiAxNzU0LjkyNTY2LDI0Ny41OTkxMTkgMTc1NC45MjU2NiwzMzAuMDY2MDc5IEwxNzU0LjkyNTY2LDU2Mi4wMDQ0MDUgWiBNMTY2OS44ODE2MSw0OTQuMzU1NzI3IEwxNjY5Ljg4MTYxLDQxNS4xMTAxMzIgTDE2MjkuMjkyNCw0MTUuMTEwMTMyIEMxNTcwLjY2MzU1LDQxNS4xMTAxMzIgMTU1Ny43NzgwOCw0MzMuNzk0MDUzIDE1NTcuNzc4MDgsNDY5Ljg3MzM0OCBMMTU1Ny43NzgwOCw0NzIuNDUwNDQxIEMxNTU3Ljc3ODA4LDUwNC4wMTk4MjQgMTU3MS45NTIwOSw1MTIuMzk1Mzc0IDE2MDQuMTY1NzUsNTEyLjM5NTM3NCBDMTYyNy4zNTk1OCw1MTIuMzk1Mzc0IDE2NTEuMTk3NjksNTA0LjY2NDA5NyAxNjY5Ljg4MTYxLDQ5NC4zNTU3MjcgWiBNMTkyMi45ODE4Myw1NjEuMzYwMTMyIEMxOTIyLjk4MTgzLDU2OC40NDcxMzcgMTkxNy44Mjc2NCw1NzQuODg5ODY4IDE5MTAuNzQwNjQsNTc0Ljg4OTg2OCBMMTg1MC44MjMyNCw1NzQuODg5ODY4IEMxODQzLjczNjIzLDU3NC44ODk4NjggMTgzNy45Mzc3OCw1NjguNDQ3MTM3IDE4MzcuOTM3NzgsNTYxLjM2MDEzMiBMMTgzNy45Mzc3OCw5Ny40ODM0ODAyIEMxODM3LjkzNzc4LDkwLjM5NjQ3NTggMTg0My43MzYyMyw4NC41OTgwMTc2IDE4NTAuODIzMjQsODQuNTk4MDE3NiBMMTkxMC43NDA2NCw4NC41OTgwMTc2IEMxOTE3LjgyNzY0LDg0LjU5ODAxNzYgMTkyMi45ODE4Myw5MC4zOTY0NzU4IDE5MjIuOTgxODMsOTcuNDgzNDgwMiBMMTkyMi45ODE4Myw1NjEuMzYwMTMyIFogTTIyOTguNDkzOTQsNTY3LjE1ODU5IEMyMjk4LjQ5Mzk0LDU3MS4wMjQyMjkgMjI5NC42MjgzLDU3NC44ODk4NjggMjI4OS40NzQxMiw1NzQuODg5ODY4IEwyMjEwLjg3MjgsNTc0Ljg4OTg2OCBDMjIwMy43ODU3OSw1NzQuODg5ODY4IDIxOTYuMDU0NTIsNTY3LjgwMjg2MyAyMTkyLjE4ODg4LDU2Mi4wMDQ0MDUgTDIwOTEuMDM4LDQxNS4xMTAxMzIgTDIwOTEuMDM4LDU2MS4zNjAxMzIgQzIwOTEuMDM4LDU2OC40NDcxMzcgMjA4NS4yMzk1NCw1NzQuODg5ODY4IDIwNzguMTUyNTMsNTc0Ljg4OTg2OCBMMjAxOC44Nzk0MSw1NzQuODg5ODY4IEMyMDExLjc5MjQsNTc0Ljg4OTg2OCAyMDA1Ljk5Mzk0LDU2OC40NDcxMzcgMjAwNS45OTM5NCw1NjEuMzYwMTMyIEwyMDA1Ljk5Mzk0LDk3LjQ4MzQ4MDIgQzIwMDUuOTkzOTQsOTAuMzk2NDc1OCAyMDExLjc5MjQsODQuNTk4MDE3NiAyMDE4Ljg3OTQxLDg0LjU5ODAxNzYgTDIwNzguMTUyNTMsODQuNTk4MDE3NiBDMjA4NS4yMzk1NCw4NC41OTgwMTc2IDIwOTEuMDM4LDkwLjM5NjQ3NTggMjA5MS4wMzgsOTcuNDgzNDgwMiBMMjA5MS4wMzgsMzY2LjE0NTM3NCBMMjIwMS4yMDg3LDIxOS4yNTExMDEgQzIyMDUuNzE4NjEsMjEzLjQ1MjY0MyAyMjEyLjE2MTM0LDIxMS41MTk4MjQgMjIxNi4wMjY5OCwyMTEuNTE5ODI0IEwyMjg4LjE4NTU3LDIxMS41MTk4MjQgQzIyOTQuNjI4MywyMTEuNTE5ODI0IDIyOTcuODQ5NjcsMjE0LjA5NjkxNiAyMjk3Ljg0OTY3LDIxOC42MDY4MjggQzIyOTcuODQ5NjcsMjIwLjUzOTY0OCAyMjk3LjIwNTQsMjIyLjQ3MjQ2NyAyMjk1LjI3MjU4LDIyNS4wNDk1NTkgTDIxNjUuNzczNjgsMzg0LjE4NTAyMiBMMjI5Ni41NjExMiw1NjIuMDA0NDA1IEMyMjk3Ljg0OTY3LDU2My45MzcyMjUgMjI5OC40OTM5NCw1NjUuMjI1NzcxIDIyOTguNDkzOTQsNTY3LjE1ODU5IFogTTI0NDQuNjQ0ODIsMTUwLjMxMzg3NyBDMjQ0NC42NDQ4MiwxNTcuNDAwODgxIDI0MzguODQ2MzcsMTYzLjE5OTMzOSAyNDMxLjc1OTM2LDE2My4xOTkzMzkgTDIzNjkuMjY0ODcsMTYzLjE5OTMzOSBDMjM2Mi4xNzc4NiwxNjMuMTk5MzM5IDIzNTUuNzM1MTMsMTU3LjQwMDg4MSAyMzU1LjczNTEzLDE1MC4zMTM4NzcgTDIzNTUuNzM1MTMsOTMuNjE3ODQxNCBDMjM1NS43MzUxMyw4Ni41MzA4MzcgMjM2Mi4xNzc4Niw4MC43MzIzNzg5IDIzNjkuMjY0ODcsODAuNzMyMzc4OSBMMjQzMS43NTkzNiw4MC43MzIzNzg5IEMyNDM4Ljg0NjM3LDgwLjczMjM3ODkgMjQ0NC42NDQ4Miw4Ni41MzA4MzcgMjQ0NC42NDQ4Miw5My42MTc4NDE0IEwyNDQ0LjY0NDgyLDE1MC4zMTM4NzcgWiBNMjQ0Mi43MTIsNTYxLjM2MDEzMiBDMjQ0Mi43MTIsNTY4LjQ0NzEzNyAyNDM2LjkxMzU1LDU3NC44ODk4NjggMjQyOS44MjY1NCw1NzQuODg5ODY4IEwyMzcwLjU1MzQxLDU3NC44ODk4NjggQzIzNjMuNDY2NDEsNTc0Ljg4OTg2OCAyMzU3LjY2Nzk1LDU2OC40NDcxMzcgMjM1Ny42Njc5NSw1NjEuMzYwMTMyIEwyMzU3LjY2Nzk1LDIyNC40MDUyODYgQzIzNTcuNjY3OTUsMjE3LjMxODI4MiAyMzYzLjQ2NjQxLDIxMS41MTk4MjQgMjM3MC41NTM0MSwyMTEuNTE5ODI0IEwyNDI5LjgyNjU0LDIxMS41MTk4MjQgQzI0MzYuOTEzNTUsMjExLjUxOTgyNCAyNDQyLjcxMiwyMTcuMzE4MjgyIDI0NDIuNzEyLDIyNC40MDUyODYgTDI0NDIuNzEyLDU2MS4zNjAxMzIgWiBNMjgyMi4wODk3Niw1NjEuMzYwMTMyIEMyODIyLjA4OTc2LDU2OC40NDcxMzcgMjgxNi4yOTEzLDU3NC44ODk4NjggMjgwOS4yMDQzLDU3NC44ODk4NjggTDI3NDkuOTMxMTcsNTc0Ljg4OTg2OCBDMjc0Mi44NDQxNiw1NzQuODg5ODY4IDI3MzcuMDQ1Nyw1NjguNDQ3MTM3IDI3MzcuMDQ1Nyw1NjEuMzYwMTMyIEwyNzM3LjA0NTcsMzUxLjMyNzA5MyBDMjczNy4wNDU3LDI5NS4yNzUzMyAyNzMxLjg5MTUyLDI3OS4xNjg1MDIgMjY4Mi4yODI0OSwyNzkuMTY4NTAyIEMyNjYwLjM3NzIsMjc5LjE2ODUwMiAyNjM2LjUzOTEsMjg4LjE4ODMyNiAyNjA5LjQ3OTYzLDMwMi4zNjIzMzUgTDI2MDkuNDc5NjMsNTYxLjM2MDEzMiBDMjYwOS40Nzk2Myw1NjguNDQ3MTM3IDI2MDMuNjgxMTcsNTc0Ljg4OTg2OCAyNTk2LjU5NDE2LDU3NC44ODk4NjggTDI1MzcuMzIxMDQsNTc0Ljg4OTg2OCBDMjUzMC4yMzQwMyw1NzQuODg5ODY4IDI1MjQuNDM1NTcsNTY4LjQ0NzEzNyAyNTI0LjQzNTU3LDU2MS4zNjAxMzIgTDI1MjQuNDM1NTcsMjI0LjQwNTI4NiBDMjUyNC40MzU1NywyMTcuMzE4MjgyIDI1MzAuMjM0MDMsMjExLjUxOTgyNCAyNTM3LjMyMTA0LDIxMS41MTk4MjQgTDI1OTMuMzcyOCwyMTEuNTE5ODI0IEMyNjAwLjQ1OTgsMjExLjUxOTgyNCAyNjA2LjI1ODI2LDIxNy4zMTgyODIgMjYwNi4yNTgyNiwyMjQuNDA1Mjg2IEwyNjA2LjI1ODI2LDIzNy45MzUwMjIgQzI2NDMuNjI2MSwyMTQuMDk2OTE2IDI2NjguMTA4NDgsMjA3LjAwOTkxMiAyNzEwLjYzMDUxLDIwNy4wMDk5MTIgQzI4MDMuNDA1ODQsMjA3LjAwOTkxMiAyODIyLjA4OTc2LDI2OS41MDQ0MDUgMjgyMi4wODk3NiwzNTEuMzI3MDkzIEwyODIyLjA4OTc2LDU2MS4zNjAxMzIgWiBNMzIxOC4yMTg2MSwyNTUuOTc0NjcgQzMyMTguMjE4NjEsMjY1LjYzODc2NyAzMjE1LjY0MTUyLDI2Ni45MjczMTMgMzIwNy45MTAyNCwyNzAuMTQ4Njc4IEwzMTg2LjY0OTIzLDI3OC41MjQyMjkgQzMxOTYuOTU3NiwyOTMuMzQyNTExIDMyMDIuNzU2MDYsMzA3LjUxNjUyIDMyMDIuNzU2MDYsMzMwLjA2NjA3OSBMMzIwMi43NTYwNiwzMzQuNTc1OTkxIEMzMjAyLjc1NjA2LDQxNS4xMTAxMzIgMzE0Ny4zNDg1Nyw0NTEuODMzNyAzMDUwLjA2MzMzLDQ1MS44MzM3IEMzMDE1LjkxNjg1LDQ1MS44MzM3IDI5OTIuNzIzMDIsNDQ2LjAzNTI0MiAyOTc5LjgzNzU2LDQ0MC44ODEwNTcgQzI5NzIuMTA2MjgsNDQ2LjAzNTI0MiAyOTY4Ljg4NDkxLDQ1MS44MzM3IDI5NjguODg0OTEsNDU3LjYzMjE1OSBDMjk2OC44ODQ5MSw0NzAuNTE3NjIxIDI5NzUuOTcxOTIsNDc1LjY3MTgwNiAyOTkwLjc5MDIsNDc4Ljg5MzE3MiBMMzA2Ni44MTQ0Myw0OTYuOTMyODE5IEMzMTU0LjQzNTU3LDUxNy41NDk1NTkgMzIxMS4xMzE2MSw1MzEuMDc5Mjk1IDMyMTEuMTMxNjEsNjAwLjAxNjUyIEwzMjExLjEzMTYxLDYwNC41MjY0MzIgQzMyMTEuMTMxNjEsNjcwLjI0MjI5MSAzMTYyLjgxMTEyLDcwNS42NzczMTMgMzA1My4yODQ2OSw3MDUuNjc3MzEzIEMyOTQ4LjkxMjQ0LDcwNS42NzczMTMgMjg5My41MDQ5Niw2NjYuMzc2NjUyIDI4OTMuNTA0OTYsNTk4LjcyNzk3NCBMMjg5My41MDQ5Niw1OTIuOTI5NTE1IEMyODkzLjUwNDk2LDU2Ni41MTQzMTcgMjkwNS43NDYxNSw1NDAuNzQzMzkyIDI5MjYuMzYyODksNTIyLjA1OTQ3MSBDMjkwOC4zMjMyNCw1MDguNTI5NzM2IDI4OTcuMzcwNTksNDg1Ljk4MDE3NiAyODk3LjM3MDU5LDQ2Mi43ODYzNDQgTDI4OTcuMzcwNTksNDYyLjE0MjA3IEMyODk3LjM3MDU5LDQ0Mi4xNjk2MDQgMjkwNS43NDYxNSw0MjIuMTk3MTM3IDI5MjMuMTQxNTIsNDA5Ljk1NTk0NyBDMjkwMy44MTMzMywzODkuOTgzNDggMjg5Ni43MjYzMiwzNjYuNzg5NjQ4IDI4OTYuNzI2MzIsMzM0LjU3NTk5MSBMMjg5Ni43MjYzMiwzMzAuMDY2MDc5IEMyODk2LjcyNjMyLDI2NS42Mzg3NjcgMjkzOC42MDQwNywyMTEuNTE5ODI0IDMwNTAuMDYzMzMsMjExLjUxOTgyNCBMMzIwMC44MjMyNCwyMTEuNTE5ODI0IEMzMjEwLjQ4NzMzLDIxMS41MTk4MjQgMzIxOC4yMTg2MSwyMTkuMjUxMTAxIDMyMTguMjE4NjEsMjI4LjkxNTE5OCBMMzIxOC4yMTg2MSwyNTUuOTc0NjcgWiBNMzExOS4wMDA1NSwzMzYuNTA4ODExIEwzMTE5LjAwMDU1LDMzMS4zNTQ2MjYgQzMxMTkuMDAwNTUsMzAwLjQyOTUxNSAzMTA1LjQ3MDgxLDI3Ni41OTE0MSAzMDUwLjA2MzMzLDI3Ni41OTE0MSBDMjk5NS4zMDAxMSwyNzYuNTkxNDEgMjk4MC40ODE4MywzMDEuMDczNzg5IDI5ODAuNDgxODMsMzMxLjM1NDYyNiBMMjk4MC40ODE4MywzMzYuNTA4ODExIEMyOTgwLjQ4MTgzLDM2MC4zNDY5MTYgMjk5MC4xNDU5MywzODcuNDA2Mzg4IDMwNTAuMDYzMzMsMzg3LjQwNjM4OCBDMzEwMy41MzgsMzg3LjQwNjM4OCAzMTE5LjAwMDU1LDM2OC43MjI0NjcgMzExOS4wMDA1NSwzMzYuNTA4ODExIFogTTMxMjYuMDg3NTYsNjA0LjUyNjQzMiBMMzEyNi4wODc1Niw2MDAuMDE2NTIgQzMxMjYuMDg3NTYsNTg1Ljg0MjUxMSAzMTE3LjcxMiw1NzcuNDY2OTYgMzA1MC4wNjMzMyw1NjEuMzYwMTMyIEwyOTkyLjcyMzAyLDU0Ny44MzAzOTYgQzI5ODMuMDU4OTIsNTYxLjM2MDEzMiAyOTc2LjYxNjE5LDU2OS43MzU2ODMgMjk3Ni42MTYxOSw1OTIuOTI5NTE1IEwyOTc2LjYxNjE5LDU5OC43Mjc5NzQgQzI5NzYuNjE2MTksNjI1LjE0MzE3MiAyOTkyLjcyMzAyLDY0MS4yNSAzMDUzLjI4NDY5LDY0MS4yNSBDMzExNS4xMzQ5MSw2NDEuMjUgMzEyNi4wODc1Niw2MjcuNzIwMjY0IDMxMjYuMDg3NTYsNjA0LjUyNjQzMiBaIiBpZD0id2Fsa2luZyIvPiYjeGE7ICAgICAgICAgICAgICAgIDxwYXRoIGQ9Ik0zMDkuODIxMDM1LDM2MS4xMzk4NjggQzMwOS44MjEwMzUsNDI2LjIxMTQ1NCAyNjkuMjMxODI4LDQ5NS43OTI5NTIgMTQwLjM3NzIwMyw0OTUuNzkyOTUyIEM5Mi4wNTY3MTgxLDQ5NS43OTI5NTIgNTcuMjY1OTY5Miw0OTEuMjgzMDQgMjYuMzQwODU5LDQ4NC4xOTYwMzUgQzE5Ljg5ODEyNzgsNDgyLjkwNzQ4OSAxNC4wOTk2Njk2LDQ3OC4zOTc1NzcgMTQuMDk5NjY5Niw0NzEuMzEwNTczIEwxNC4wOTk2Njk2LDQyNC45MjI5MDcgQzE0LjA5OTY2OTYsNDE3LjgzNTkwMyAxOS44OTgxMjc4LDQxMi42ODE3MTggMjYuMzQwODU5LDQxMi42ODE3MTggTDI3LjYyOTQwNTMsNDEyLjY4MTcxOCBDNTMuNDAwMzMwNCw0MTUuOTAzMDg0IDExNy44Mjc2NDMsNDE5LjEyNDQ0OSAxNDEuNjY1NzQ5LDQxOS4xMjQ0NDkgQzE5OS4wMDYwNTcsNDE5LjEyNDQ0OSAyMTYuNDAxNDMyLDM5OC41MDc3MDkgMjE2LjQwMTQzMiwzNjEuMTM5ODY4IEMyMTYuNDAxNDMyLDMzNi4wMTMyMTYgMjA0LjE2MDI0MiwzMjMuMTI3NzUzIDE2MS42MzgyMTYsMjk4LjAwMTEwMSBMNzYuNTk0MTYzLDI0Ny4xMDM1MjQgQzE2LjY3Njc2MjEsMjExLjY2ODUwMiAwLjU2OTkzMzkyMSwxNzQuMzAwNjYxIDAuNTY5OTMzOTIxLDEyOS4yMDE1NDIgQzAuNTY5OTMzOTIxLDU4LjMzMTQ5NzggNDEuODAzNDE0MSw2Ljc4OTY0NzU4IDE2MS42MzgyMTYsNi43ODk2NDc1OCBDMjA0LjE2MDI0Miw2Ljc4OTY0NzU4IDI2My40MzMzNywxMy4yMzIzNzg5IDI4NS4zMzg2NTYsMTguMzg2NTYzOSBDMjkxLjc4MTM4OCwxOS42NzUxMTAxIDI5Ni45MzU1NzMsMjQuMTg1MDIyIDI5Ni45MzU1NzMsMzAuNjI3NzUzMyBMMjk2LjkzNTU3Myw3OC4zMDM5NjQ4IEMyOTYuOTM1NTczLDg0Ljc0NjY5NiAyOTIuNDI1NjYxLDg5LjkwMDg4MTEgMjg1Ljk4MjkzLDg5LjkwMDg4MTEgTDI4NC42OTQzODMsODkuOTAwODgxMSBDMjQyLjE3MjM1Nyw4Ni4wMzUyNDIzIDE5OS42NTAzMyw4My40NTgxNDk4IDE1Ny43NzI1NzcsODMuNDU4MTQ5OCBDMTEwLjA5NjM2Niw4My40NTgxNDk4IDkwLjEyMzg5ODcsMTAwLjIwOTI1MSA5MC4xMjM4OTg3LDEyOS4yMDE1NDIgQzkwLjEyMzg5ODcsMTUwLjQ2MjU1NSAxMDEuMDc2NTQyLDE2My4zNDgwMTggMTQyLjk1NDI5NSwxODYuNTQxODUgTDIyMC4yNjcwNywyMjkuNzA4MTUgQzI5MS4xMzcxMTUsMjY5LjAwODgxMSAzMDkuODIxMDM1LDMxMC4yNDIyOTEgMzA5LjgyMTAzNSwzNjEuMTM5ODY4IFogTTY2OS4yMjYzMjIsNDgyLjkwNzQ4OSBDNjY5LjIyNjMyMiw0ODYuNzczMTI4IDY2NS4zNjA2ODMsNDkwLjYzODc2NyA2NjAuMjA2NDk4LDQ5MC42Mzg3NjcgTDU4MS42MDUxNzYsNDkwLjYzODc2NyBDNTc0LjUxODE3Miw0OTAuNjM4NzY3IDU2Ni43ODY4OTQsNDgzLjU1MTc2MiA1NjIuOTIxMjU2LDQ3Ny43NTMzMDQgTDQ2MS43NzAzNzQsMzMwLjg1OTAzMSBMNDYxLjc3MDM3NCw0NzcuMTA5MDMxIEM0NjEuNzcwMzc0LDQ4NC4xOTYwMzUgNDU1Ljk3MTkxNiw0OTAuNjM4NzY3IDQ0OC44ODQ5MTIsNDkwLjYzODc2NyBMMzg5LjYxMTc4NCw0OTAuNjM4NzY3IEMzODIuNTI0NzgsNDkwLjYzODc2NyAzNzYuNzI2MzIyLDQ4NC4xOTYwMzUgMzc2LjcyNjMyMiw0NzcuMTA5MDMxIEwzNzYuNzI2MzIyLDEzLjIzMjM3ODkgQzM3Ni43MjYzMjIsNi4xNDUzNzQ0NSAzODIuNTI0NzgsMC4zNDY5MTYzIDM4OS42MTE3ODQsMC4zNDY5MTYzIEw0NDguODg0OTEyLDAuMzQ2OTE2MyBDNDU1Ljk3MTkxNiwwLjM0NjkxNjMgNDYxLjc3MDM3NCw2LjE0NTM3NDQ1IDQ2MS43NzAzNzQsMTMuMjMyMzc4OSBMNDYxLjc3MDM3NCwyODEuODk0MjczIEw1NzEuOTQxMDc5LDEzNSBDNTc2LjQ1MDk5MSwxMjkuMjAxNTQyIDU4Mi44OTM3MjIsMTI3LjI2ODcyMiA1ODYuNzU5MzYxLDEyNy4yNjg3MjIgTDY1OC45MTc5NTIsMTI3LjI2ODcyMiBDNjY1LjM2MDY4MywxMjcuMjY4NzIyIDY2OC41ODIwNDgsMTI5Ljg0NTgxNSA2NjguNTgyMDQ4LDEzNC4zNTU3MjcgQzY2OC41ODIwNDgsMTM2LjI4ODU0NiA2NjcuOTM3Nzc1LDEzOC4yMjEzNjYgNjY2LjAwNDk1NiwxNDAuNzk4NDU4IEw1MzYuNTA2MDU3LDI5OS45MzM5MjEgTDY2Ny4yOTM1MDIsNDc3Ljc1MzMwNCBDNjY4LjU4MjA0OCw0NzkuNjg2MTIzIDY2OS4yMjYzMjIsNDgwLjk3NDY3IDY2OS4yMjYzMjIsNDgyLjkwNzQ4OSBaIE0xMDI5LjI3NTg4LDEzOC4yMjEzNjYgQzEwMjkuMjc1ODgsMTM5LjUwOTkxMiAxMDI5LjI3NTg4LDE0MC43OTg0NTggMTAyOC42MzE2MSwxNDIuMDg3MDA0IEw5MjEuMDM3OTk2LDUxOC4zNDI1MTEgQzkwMS4wNjU1MjksNTg4LjU2ODI4MiA4NzcuMjI3NDIzLDYxOS40OTMzOTIgNzg5LjYwNjI3OCw2MTkuNDkzMzkyIEM3NjguMzQ1MjY0LDYxOS40OTMzOTIgNzM2LjEzMTYwOCw2MTUuNjI3NzUzIDcyMS4zMTMzMjYsNjExLjExNzg0MSBDNzE0LjIyNjMyMiw2MDkuMTg1MDIyIDcwNy43ODM1OSw2MDYuNjA3OTMgNzA3Ljc4MzU5LDYwMC4xNjUxOTggTDcwNy43ODM1OSw1NTguOTMxNzE4IEM3MDcuNzgzNTksNTUxLjg0NDcxNCA3MTMuNTgyMDQ4LDU0Ny4zMzQ4MDIgNzIwLjY2OTA1Myw1NDcuMzM0ODAyIEM3MjEuMzEzMzI2LDU0Ny4zMzQ4MDIgNzIxLjMxMzMyNiw1NDcuMzM0ODAyIDcyMS45NTc1OTksNTQ3LjMzNDgwMiBDNzM5Ljk5NzI0Nyw1NDcuOTc5MDc1IDc3Ni43MjA4MTUsNTUxLjIwMDQ0MSA3OTQuNzYwNDYzLDU1MS4yMDA0NDEgQzgyMi40NjQyMDcsNTUxLjIwMDQ0MSA4MzYuNjM4MjE2LDU0My40NjkxNjMgODQ1LjY1ODA0LDUwOS45NjY5NiBMODUwLjgxMjIyNSw0OTAuNjM4NzY3IEw4NDEuMTQ4MTI4LDQ5MC42Mzg3NjcgQzgyMi40NjQyMDcsNDkwLjYzODc2NyA3OTkuMjcwMzc0LDQ4Ni4xMjg4NTUgNzg1LjA5NjM2Niw0MzcuMTY0MDk3IEw3MDAuNjk2NTg2LDE0Mi4wODcwMDQgQzcwMC4wNTIzMTMsMTQwLjE1NDE4NSA3MDAuMDUyMzEzLDEzOC44NjU2MzkgNzAwLjA1MjMxMywxMzcuNTc3MDkzIEM3MDAuMDUyMzEzLDEzMS4xMzQzNjEgNzAzLjkxNzk1MiwxMjcuMjY4NzIyIDcxMi4yOTM1MDIsMTI3LjI2ODcyMiBMNzc3LjM2NTA4OCwxMjcuMjY4NzIyIEM3ODMuMTYzNTQ2LDEyNy4yNjg3MjIgNzg4LjMxNzczMSwxMzMuMDY3MTgxIDc4OS42MDYyNzgsMTM4Ljg2NTYzOSBMODU0LjY3Nzg2Myw0MDEuMDg0ODAyIEM4NTcuMjU0OTU2LDQxMi4wMzc0NDUgODU5LjgzMjA0OCw0MTUuMjU4ODExIDg2My42OTc2ODcsNDE1LjI1ODgxMSBMODY0LjM0MTk2LDQxNS4yNTg4MTEgQzg2NS42MzA1MDcsNDE1LjI1ODgxMSA4NjYuOTE5MDUzLDQxNS4yNTg4MTEgODY3LjU2MzMyNiw0MTUuMjU4ODExIEM4NjkuNDk2MTQ1LDQxNS4yNTg4MTEgODY5LjQ5NjE0NSw0MTUuMjU4ODExIDg2OS40OTYxNDUsNDE1LjI1ODgxMSBMOTM5LjA3NzY0MywxMzguMjIxMzY2IEM5NDAuMzY2MTg5LDEzMi40MjI5MDcgOTQ1LjUyMDM3NCwxMjcuMjY4NzIyIDk1MS45NjMxMDYsMTI3LjI2ODcyMiBMMTAxNy42Nzg5NiwxMjcuMjY4NzIyIEMxMDI0LjEyMTcsMTI3LjI2ODcyMiAxMDI5LjI3NTg4LDEzMi40MjI5MDcgMTAyOS4yNzU4OCwxMzguMjIxMzY2IFoiIGlkPSJTa3kiLz4mI3hhOyAgICAgICAgICAgIDwvZz4mI3hhOyAgICAgICAgICAgIDxnIGlkPSJtb29uLW8iIHRyYW5zZm9ybT0idHJhbnNsYXRlKDMzMDQuOTczOTUwLCAzMjMuNTQ4NDczKSByb3RhdGUoLTE4My4wMDAwMDApIHRyYW5zbGF0ZSgtMzMwNC45NzM5NTAsIC0zMjMuNTQ4NDczKSB0cmFuc2xhdGUoMzAyNi40NDk3MjEsIDE0LjI5NzM3MikiIGZpbGw9IiNEOEQ4RDgiIGZpbGwtcnVsZT0ibm9uemVybyI+JiN4YTsgICAgICAgICAgICAgICAgPHBhdGggZD0iTTU1Ni4yMDE3NTksNTAzLjA2OTYyNyBDNTM4LjU2MDUwNSw1MDYuMDM2ODQ0IDUyMC4zODU2MTgsNTA3LjUyMDQ1MyA1MDIuMjQyMTIxLDUwNy41MjA0NTMgQzMyMC4yNzM1MjMsNTA3LjUyMDQ1MyAxNzIuNjQ1NzI5LDM1OS4wNjQ4ODEgMTcyLjY0NTcyOSwxNzYuMDc1OTQ4IEMxNzIuNjQ1NzI5LDExMy40NDg3MTkgMTkwLjc4OTIyNiw1Mi4yNzM1MzM0IDIyMy42NTQ2OTUsMCBDOTMuMTk3MzAzNiwzOC45NTI2MjA5IDAsMTU5LjMxNDMyNiAwLDMwMi4zNDA1MjEgQzAsNDc2LjQ1OTM2OCAxNDAuNzUzMzU0LDYxOC4wMDE5NTUgMzEzLjkwMTMyNiw2MTguMDAxOTU1IEM0MDguNTczOTY2LDYxOC4wMDE5NTUgNDk3LjM0NTI2MSw1NzQuNTk4NTA3IDU1Ni4yMDE3NTksNTAzLjA2OTYyNyBaIiBpZD0iU2hhcGUiLz4mI3hhOyAgICAgICAgICAgIDwvZz4mI3hhOyAgICAgICAgPC9nPiYjeGE7ICAgIDwvZz4mI3hhOzwvc3ZnPg==;" vertex="1" parent="1">
          <mxGeometry x="430" y="774" width="228.8" height="55" as="geometry" />
        </mxCell>
        <mxCell id="AC7fx64Xs-f3FDyAJllu-4" value="" style="shape=image;verticalLabelPosition=bottom;labelBackgroundColor=#ffffff;verticalAlign=top;aspect=fixed;imageAspect=0;image=data:image/svg+xml,PHN2ZyB4bWxucz0iaHR0cDovL3d3dy53My5vcmcvMjAwMC9zdmciIHhtbG5zOnhsaW5rPSJodHRwOi8vd3d3LnczLm9yZy8xOTk5L3hsaW5rIiB0PSIxNjIxMzMzMDEzMzgxIiBjbGFzcz0iaWNvbiIgdmlld0JveD0iMTA3LjAwNzk5NTYwNTQ2ODc1IDEyNy45OTk5MzEzMzU0NDkyMiA4MzEuOTk5OTM4OTY0ODQzOCA3NzUuNjgwMDUzNzEwOTM3NSIgdmVyc2lvbj0iMS4xIiBwLWlkPSIxNDM1MSIgd2lkdGg9IjgzMS45OTk5Mzg5NjQ4NDM4IiBoZWlnaHQ9Ijc3NS42ODAwNTM3MTA5Mzc1Ij48ZGVmcz48c3R5bGUgdHlwZT0idGV4dC9jc3MiLz48L2RlZnM+PHBhdGggZD0iTTg2NC43NjggOTAzLjY4SDE4MC43MzZjLTQwLjk2IDAtNzMuNzI4LTI5LjY5Ni03My43MjgtNzAuNjU2di04MS45MmMwLTQwLjk2IDMzLjI4LTcwLjY1NiA3My43MjgtNzAuNjU2aDY4NC4wMzJjNDAuOTYgMCA3NC4yNCAyOS42OTYgNzQuMjQgNzAuNjU2djgxLjkyYy0wLjUxMiA0MC45Ni0zMy4yOCA3MC42NTYtNzQuMjQgNzAuNjU2eiBtLTgyLjk0NC0xNjUuMzc2Yy0yOS42OTYgMC01My43NiAyNC4wNjQtNTMuNzYgNTMuMjQ4IDAgMjkuNjk2IDI0LjA2NCA1My43NiA1My43NiA1My43NiAyOS42OTYtMS4wMjQgNTIuNzM2LTI1LjYgNTIuMjI0LTU0Ljc4NC0xLjAyNC0yOC4xNi0yMy41NTItNTEuMi01Mi4yMjQtNTIuMjI0eiBtODIuOTQ0LTExMS4xMDRIMTgwLjczNmMtNDAuOTYgMC03My43MjgtMjkuNjk2LTczLjcyOC03MC42NTZ2LTgxLjkyYzAtNDAuOTYgMzMuMjgtNzAuNjU2IDczLjcyOC03MC42NTZoNjg0LjAzMmM0MC45NiAwIDc0LjI0IDI5LjY5NiA3NC4yNCA3MC42NTZ2ODEuOTJjLTAuNTEyIDQwLjk2LTMzLjI4IDcwLjY1Ni03NC4yNCA3MC42NTZ6IG0tODIuOTQ0LTE2NC44NjRjLTI5LjY5NiAwLTUzLjc2IDI0LjA2NC01My43NiA1My43NnMyNC4wNjQgNTMuMjQ4IDUzLjc2IDUzLjc2YzI5LjY5NiAwIDUzLjc2LTIzLjU1MiA1My43Ni01My4yNDggMC41MTItMzAuMjA4LTIzLjU1Mi01NC4yNzItNTMuNzYtNTQuMjcyIDAuNTEyIDAgMC41MTIgMCAwIDB6IG04Mi45NDQtMTExLjEwNEgxODAuNzM2Yy00MC45NiAwLTczLjcyOC0yOS42OTYtNzMuNzI4LTcwLjY1NnYtODEuOTJjMC00MC45NiAzMy4yOC03MC42NTYgNzMuNzI4LTcwLjY1Nmg2ODQuMDMyYzQwLjk2IDAgNzQuMjQgMjkuNjk2IDc0LjI0IDcwLjY1NnY4MS45MmMtMC41MTIgNDAuOTYtMzMuMjggNzAuNjU2LTc0LjI0IDcwLjY1NnogbS04Mi45NDQtMTY1LjM3NmMtMjkuNjk2IDAtNTMuNzYgMjQuMDY0LTUzLjc2IDUzLjc2czI0LjA2NCA1My4yNDggNTMuNzYgNTMuMjQ4YzI5LjE4NCAwIDUzLjI0OC0yNC4wNjQgNTMuMjQ4LTUzLjI0OCAwLjUxMi0yOS42OTYtMjMuNTUyLTUzLjc2LTUzLjI0OC01My43NnoiIGZpbGw9IiNGRjZBMDAiIHAtaWQ9IjE0MzUyIi8+PC9zdmc+;" vertex="1" parent="1">
          <mxGeometry x="90" y="665" width="58.97" height="55" as="geometry" />
        </mxCell>
        <mxCell id="AC7fx64Xs-f3FDyAJllu-5" value="" style="shape=image;verticalLabelPosition=bottom;labelBackgroundColor=#ffffff;verticalAlign=top;aspect=fixed;imageAspect=0;image=data:image/png,iVBORw0KGgoAAAANSUhEUgAAB2wAAANSCAMAAACeG848AAADAFBMVEX///8Ahf0AAADl5eXb6f3t7e34z8yysrLW6NTU1NT/88ylpaXq6ut3e7P19fT39/hfX1/x8fH6+voYGBh3d3f+/fu4ubgeHh/e3t69vb0REREAev1NTU3Z2dkAgP35/v8kJCRq1+VRUVFbW1vf7v9cLZELCwtISEdWVlYqKitlZWXl8v/Cw8Kpqqmurq5lmtGenp49PT04NzZtQ5wxMTCCgoFub2/r9/9qamp8fHzHx8ePj4/y+v9DQ0Pi4uL81NHc7dxMpv7/3duUlJOYmZh0uv//+dT//dzMzMyKi4vg6PLR0dHewW6Gh4Yxmf1zdHMBRIKWy/5vkMGm0/7J1ubB4f7j8eIwa+UAc/zenZrV6//I38GEw/1otP/46ukXjv632/6Jt22zyefww8AAif/r+egBV5uet9Rih7p/n8gCgNwJiP3W3euw0KFitotZrf7m0ZQ+oP4llf3aNDrL5v/ndEkBFrXy3eBvc60AKti0R0XF2fHR4Pa6WFM+fK/6xELdr63//uj58N4yNz+/Xluww9PpzYby3KW8zNzEaWZ7rV241q8yaZ3hazfSkI0+dqFe1OKSvnrXJSseXeWPrcrRsErPQJb67L9GaK+0ppLw3tCcjH6zJyk/h8BDU2N1nrZHu7SsssRnO5hXk8+gwulyp9bnu7gC1/0Jjv++0e2hxo9XiKq6sdWp7PZPHYN+g7Xqijfr3ruCtueeosr+32SbprM3DVg3RIHGvKI3WaeLlqGFeWyM5fNkXE4DM/O2YKZ1a2CKjr7Zzq54g47KdHMINHKEtdtnxctnd4EIZ7hiaZ7kUSrD8/rNwNyEY6onYI/8337X9vswp+/xqz7Zu1vusaBMZnEn3P3pg3AAZvtVT4r86Z7tp3v+0QI0mOPQgoD710CrlcM3tq5N4f3Tb7DluNht5v1dqOralsWZf7QrSlrCoqDjnFZ+nu7hWV9hjev2lgOBm9giPrPjQBBGe+iOqYVlu/F6X46g3NmeJIvxqxpXcLVil4iJxarGngmliiPRzCA1AAFjd0lEQVR42uzd3YuiUBgG8Ic3YpGG1s3KSRwQBb+o0IOGFWdu6sKIpf//v1nTamOa3Z39uNvnd+HhfHj98OorgoiIiIiIiIiIiIiIiIiIiIiIiIiIiIiIiP57oyfjWA+ybHc47LJsUB+N3ghERET0b3yZ71ZpdaqC2HfdKHJdPw7SU2WuttMnEBER0V96ycZVVBQ6WAUqkQtPxatAq0JX430NIiIi+mPPg7jwx1GSeI48cLwkycdB4e4MEBER0Z/IzCpQqrDlJ+xCKX8VHL6AiIiIfs/T3ix0peQDkkoX8fYFRERE9HFPhzwOlC0fZBdxkK+fQURERB8z2sZ+lIfyRhi2V+1qTx72VOTGaz5MJiIi+pBprMz8Temam1+XL2tpKAAT41DIWyrVbgYiIiL6lV4VxfpNVWvVIzT20oiBjQH0zXeqW98N2JlMRET0C59cN7YeYvQF/dLMHWms0LMkP2Kk5EEY+XoPIiIi+rHhWJlKbrz1YiVnC8zl4oAXp9l5wlbe4Zl52gMRERH9wLPv+5Zc6QUamTRKvJqrbHHey1CHzTDHJ7kZV3fFbexOQURERO+a57ErN1tg83UKnJditJSITDGTxuwubHNg7n6fmWoBIiIiese2OHny3Qw9R5wvqEREfYbx1VWhSFhjKc3wjL1cbdAYyJVl5msQERHRg0MUeHInwiQQe2g4Xbam0rKf25e1Y8CUixg45QayUC5CX69ARERED3VtaklHlW3AbnCMj6jdrszdiq1jS5IhMq84jVA70ujO1SI+oOXGz09DEBER0b0yj+Ui6ndlbIBGHyhFJMMXYwj4kqOzseViDIzWXgbk8l2kKxAREdGdnfZv4fkZy0Qa4RFDnWwAU+QAoD8f5GKdtsvNPKssuQh7MAygy2Sn9KQTRXySTEREdCdTQSgte4Bh2Qzn6RrDQiwDUKLLILfkQXdIOUt8yqXh4aWQjqtLEBER0cU0Nx3ppMBCxO9lImL3sRfJ660tP5SPzmcKHLuEBbRcBPkORERE1DLarO04GwxjE1iGIlJiUsjPBcC0sNaA3ZW5c7mJ9QxERETU+OwHidzYr2iUcub16+tOaNteoYOWLjzbdi7rUQ30gY2czWCKaFdalqn4WwIiIqKzSufS6vJTTwCzmWRrEeVIS8VRrnSQrsr1ujylgVvkka8vd6VzTDa5NKxhP9FLYCWtJDAnICIioqWOpWXW6votz0G8I54saVlaB6lvHqa9CVqTp9ku9VNTa09aiZLWCq8zAMY+vLYks0mKiIgIxrUROXyF4cjZAFi84hK9dmAWcTYf4o3P9cBUcZqEcmM/A+iVd0u+qkH0jb272U0biKIAfHRpFCEQGDsUioxq2ZLtOGnLWBAgqbMhi0AU8Q5ZtA9BXoVV6CIvEslv1bED/SNpG7L0+WSYYWTYHs1F40tEVHQHP/6wjep4u+4VD6BnrVvmuYP9Gp5kHg8Mpb++1jkGrhP/9457YQNERETF9kG5suGZ6EnGqWEsmp94bnSFvyidBEZgSaZ1BQzkD7FiIZmIiAqurmxfMs5Hw5cEmEom8vK1kYqO8Q/dExXFoh02MJYtkdsGERFRkU28QDL+W+DypJM0MJKNJEwu8B8+2K4tmjqQbU4QgYiIqMC6ypZc5xLNJhqjQaO5XvHd0C7jv1S9wOvIMwJ1DCIiouK6tg/lkdPFhwvgvIpaIhkvOanhf02VZ8nTHIMdCYiIqMBKriEZ3xJxSqZ3OKkBsEWkY6gBXuAieTZtE/UWRERERXWgWpI5OD9zxNpDKK1xaZLXkNUEL1KJn6skWwFb2xIRUWGVbNsX7bAJ7PX6/TZsEStbCoPBy88QhfK0MOyCiIiomCpGIJmOUdkDMJk29pJ15XeEF5smrjzJsnnWloiIimpky0Zr1AVQQ70vIv1RaOLl5oGSJylVAhERURGdxkp+8u2zEnDZ0TM3bu9WlY4c2fAP5YckuAAREVERDQJHfmON3ik9hHYFO7lKQtnwKz/nLWMMIiKiAmp6nvzJ1y/HNbCjcdKXjV4zlg3bYB2ZiIiK6DRUmyyczyNHNkJVxo5qXmTJ2gDl0WgyaYnmxD0QEREVz3RdRW7tQ6tedyTX96bYWS8IZG2MzNQXzVd8QDIRERWQaShftM4pHp1aknGDc+ys4bq+5Ox29jGUR6FdAxERUdGUbVsyI7QNpYx94Fo0JxnjFSp2LJkImbmsKeMURERERfPRtSWzD1cyA+y19OB6V3iFWuiJFly+vTgz4clay+DhHyIiKp4L15FMGS3J+G0kWSqO8CrjJPs5q5Pvmcey1kl4+IeIiIrn2pPcMQzJdRGLxMkEr3KcKNnoVWSj7zVARERUMJEruSlqhq9HD109xHEXr1KLbPlB+bIWq0sQEREVSzVUknNKwOnZoFfHiYgo4/U75kPZptRHEBERFctxsMnE/hVy+76IH06wI9NsIlMxlGxLggmIiIiKpadastaZX1ar5blosXeKndRL7Xa7ZAK4tJVs69tTEBERFcs0bslPLUdyo6iMXdTa5atyudyuAXuJ8mWL5Z6BiIioWA5US7Z5Rgm4ffi2Oho+LPD/zHq92i13y20T8GJftvghz/4QEVHRRIEljyxLfrCjBm7SdJne3KYPeJJ5O6zP6gCO7o/wq3pbp20VGMW+bIsGJoiIiAolCjqSafXO2xVHHnVU1MSndIGZeZuusFrdrIDF1yF+cZveLNIbACt9x2/qXb21BQbKl23GNcOWiIgKxliH7T60K0tyVn8OrL58+5xn6iq9+ZYOsUw/QzOP3g9nM2CRrvSF4ezoXq/UZ0MA74+OjvS4Vy63m7hIngzbcR1ERESF4j2GrdNsHMyrMCRnxQfA+4c0XemwvUsfkMVq+gmfVws8LGfLNL0zZ1nY3uuN7+3dm/ulXlpgod/1zTC7V+d4JmyjA/b9ISKiglmHrcJExMPZJmzn0HR43szSL0sAyzudt8OFnt+lw/t7XTrOw3a1XJo36WKVftLXMF3ef0tXedjuAZNnwpY7W6Lv7N3PTuJQFAbwL4chxDCBDp2x0NQMaZO24J/xNqAoXje6UIzhHVzMPAS+SlfAwhch6VtNi8BoZP6gK6ffb9FACGfV5Mu9vT2HiHJmFba32eVSxF+sbDNfk/F9kiQPwDj+Fs8mabaO4jGQhu10HrZJfIx52A4wjgfJNP1yB9SyXWRuIxMRET07IKVQP9g/TS/be56I2ekB99PJNJl9SGbjZIBJkoy/TcezaZq5u0mc/rAI26+PYXuPcXw2TuLk2xnwqV4BcL3+gFSXYUtERDmzCNsIK9civjaqeEiSZFrbjUe78RQYJ2n0xvezJBmNvt9/Xaxsp8l4GbZxvBvH0zukKjWkhutf/eFpZCIiypueNiVlbe+V9g8vUpeBiLjtIrKDxsDX4684GwxGs2T34XucJfDxIEnixcr2YfZ98pCF7QhxXBsnadyeYaEdrd9G/gIiIqJc6UaWvNQ2dvDUjySZoTYZ4cvkDhjNJnf31bvB8WQXk7vdu+PB3TFGo0Ey250lUzyqOevbNd6CiIgoXy6i9e0ar/BU9X6AvzqLk+l41eGirrW81GRvZCIiyp2StuQlyzvA5o5n36YPq8KhlpcUp/4QEVHubLktWcM5wRv1jUheUroMIiKifKkaWtaIggre5MuJa6+rq/ZARESUM0ehrNGJtvEm52GwPsTrICIiypnr0JaXWm+dO3uoWiKi+i15ylc9vmZLRES5U3aVvOR7RhFvYbi+iJTRk6dMHkYmIqIcajiOrKGCMt7gZl7VLKIlw4aWpU77AERERHnz0dWyhh94Nbze0DVF5BYHYhfhSqvsSMZ1z0FERJQ7Q2XKGo7TwKtdKUdSWziSAKciJzh8LBqCiIgof8pOS9awDa+K1xoaHRHRQKHfQChyg0BSZtQFERFR/pyHjqyjogu80l4QSiq6qiDVNx0U/HnJgG/ZEhFRLvU8W1as1We/7RbwKl8CZ1FFdesAzgu4kIw35DBbIiLKpbLqyIru+7LQCQ28yq0byJLZ3q8AlaakopAjf4iIKJ8+BlpWrOq+LGl1iVcodVx5yuoWypJREXeRiYgop26Nliz5OzhqhkdDW0TstiphYztOz8wKnZiyZFrz0jpk+ygiIsqp09CTlRLwEfgsGdvQV5uvk8OOpPrY68gzKiyBiIgop0Jty4JbAVBx5FHT0wVspOL2tGQOgYKWpwyPC1siIsqtklby6ASpopKlluHcYANFL4zk0bCK6lB+aSn2Rab/xKdtTq8ios31DFsy3vlW6QY7vqxEoW5sMoredWQpBHC5KuV7bgFE/4NSYLYuP4GIaDMHkZJM07LFqqMlv7Ta6hD/aFsZWlL+PLvbSDWa8kiHFyD6D1y1zWbYsQMO1SCiDdUMrylL0Y6SJyxDDYv/VORaL441X+KmKbqCz9fAR1fmtOJKgP4Dxa5luqfV855lGzcgItrElePJitLylB86zgH+as/Thilz+8DW0TkORIbAkWQcpwyi9+7LYeRHh8g0XNu65RQrItqIoZqy4stzynPCLfxR/cgxtCx9Rmo7K+N1JWOGBojeu23XbnY/YmE/sjuXICLaZKyt4ctvmWHgdPfwWzfXofaa8ktYAMq/Cvpe1ADR+1Y/sq321rMt5Zbv8M4mog2UlSN/YBlG1D44X5vTjaEK2y2Z6+24kulcAaeWLOjwGkTvWrHftIMSnttqm+aQj26J6J/V2p6SP7FUMAzD61M8s9P3nKGjF1FrNoC+zNlloO4t/uroCojes/3Ijg4reGHPMa0ub++f7N3BbqJgEAfwf2ZjjKtxqaAgwcRAgkDU8BE1WkMvctA0xkcy7kv0Rfog3n2ZXbFWUXbb7XIQM7+LieHzoOgM3zAjY+yzCh1Lpr+yTVMMOqPhzPf7v5WjaKk4g8B4Xyc/ojRu05shMDys88JHMJZjj4btTipIU4sCe1CugzHGPqUoJJs+oMquo3imiJnexHFV9bRoCq1NJ9aUYo7gFluWZ1rZ8yZz/EllOpZmnE8yxj5pJkz6DL0tYq5+8fwTJLpmGCswllvVmajgA3UIjyeksbtWm/fLRT7LszE2QvoTMXbpAwNgQFcCw+EtNpZfDcPu1PChMbk+l27Z/XqaKns+95Zn4YdjBpTOLqEwpVSysCnmVuHRJdcTPLOd5dbc01VFw8eqPk9wZHesMFTecLNbFr4ZVkCpyqhBs+ma23+CRQdzaPL+MVDej1QdUQJj+VQZyrI1R1L958t2+/q63b1scO6b0rYlPtvZfeop73q8V5mBp44TUIoVKjM0KOY2io3G5HiYBaCkU2wEFNu2bVTew68s8Y3ILLfKgR32kLTZva7fbb/j3NzS1QXvsrE7VFDORD/A/lup4wzoiqjCMeBTLMTejzHFHMw1RBSzi0ClWwKKKsVcSTTAWC41O7o7fUDSbp203eBcMZR5giO7Q13lHE+6z4LWcUK6IGsok3IKtgWzU8aD/BZsfQ/1gGJ277CdRgeBxde1LKe0kd4eaUjabNdXXnCuOh3YZheM3RdfiXHdNksFwzApqQ/4qo+IYiY0onYdEu1J6FMPjzYdiOXU0ukgtEIeZMdy6WHa1q9j5uZ1neIFCdpKlVdcumV3pb5QEiZcLclCZSwknc5MgBpQwJBiY7SIHCCgvRH8/QETumKGFv/ksDyq94UuekiJtam+I2nuyOqC24C+rFoDuzEPQyWJBxVloj5JFG4doOxKTWBFsRUKkf8DTYoNoT0DqLiUpBodiavoLI/mku4uH3Blu0613eBSWdiC24C+mukEBlefbk1hqFyYg2WhLCSDjjytJRPJFYyOwXav61JsCaCxqKJLCcILOPVheaRNZHncwrXdOtUOKapTV5c4ZHxB15FdVx61wG5JbaFcWHD/TzZakjj9P62tEpFaPQbbCUqWI+jNEs9toggY04kqhZycsjyqRq5udJFmt02x+4l02ljVVzzb7h89rfS2orUkVV0UwG7IVLnE+VBWlh2nI9OJ/HwMpz4adLKMr2l1fzagIzs0jRV/VVgONQ078LN6LVPnCY7/pBCpuhVn6f3QFj2w29FTLvHnk5lnL5AEnaijgGLNRLCN0KSkwAtMvjGc5dCzJbeXFWSmJ3RRBPvC21WN3F/s3d9q2lAcB/Bf4qSIwapRY6NGUTHGOYkhzjhNQYxgV8yQbjBKi73Y1TaQipe722OMwS4He4Q9wMbeYLd9il0uJpvrYvwz6aZZfx9KGuKpF4Hyzck5v3PoIpZQ7Y4HETvcxfkG+Yt8skrO6Xg18pdsQyCvE7J8toOzCZH7UH2aKaUWfipqoo1273DltBKZLeGc/LX0cgX5KAQznkcMG8ECk13hjczBRe9vUKjJZ7MSTf6uQLPkAqyULapYgYXcyC8V+D1YKCbMk9UYrOAr0XQfh25Xitdo2r6GSDnLZprYfdoRohGvuLDFX0SJRSmbY8i1sNmcxDfxcQe5UDnJSuL+siyWX8/LqPE1vpmWRZy5uVS0I9BOUyorVVrFEqrdcBC57uPHSERM7zRwnUAnGFTVKlMglyowkqrmgvgMj9zI+4iRGhQs0xFeO8j4YaWwlhRw+HGZGF+QxDA4CPSFQhArOneBp3E9aj9/ePt8ONZ32eXo7OIuuEu0V+OrSlEWGHIBRhCSCl99VA4BQi7kz2REWO7IMWyZJqyhQtMMVkos2TI40/fCAj6FpnFkaheIv7L2y1viGWH87LxxNw8uE4gdlXhZyirFzFzQJpVcVeZLtQoFCLmTKJRKzU16toIfVvI8Yulkks7gCo5OqAbNBFPLy7FooYP3but8P6M28tYNOfvDeACuEy43lZISLGZVWZIFWTIPcjVZzClKqR/D/wXkYqJwcK9YrPz5mC3vgRVCHYEU/NFoU2BVLAOyC/hlc1racppU4HGvzq3TrKz9/Nw9UTs1qoMLeVO9PS0STKpq1aCqfE5pVh74sEuLXE7MlCF1xCtlWOhAEGTB5vXqodhKlaSt0t14hKGLuK7a/Pa/YVjJU2PYEg7dblnceoXsom6t5dJtI7fXBCgqnvLFPRQO0aL/g5g5CIVCD+7zjRQs4N2r7NlUDihY7jhIFpTZVz4o0kwDH01nUiU2s+6KlsdBmqnhvduu2LRfS7hP24UzkxH6P03D1kOFvJUgr3nhphzWaFLds+0GJIu4GZbJ02TYdXr64f0w/FjBUdZwuZxtinYiEZe9Q7Z0ASG0E8ywNQQOxWyuEoYboWVI2V7Q4m0KLA4/TmkyXa2sTloqnkqlDqmwNfpNJ/HebRP15u3mWcslDJx1NvtNEMbF601mp7bG1ilHbOYJIIR2gRW2Bm/AV+OVHjj59snBt4fgLJYk2YbXeTcg5daXAZWzrNwPgalVr9dbaXASSh37TPF9MBzex3u3XY+JZxtH7VC/vNS5xAuCeDHWh4RhqI+nh+GszbDdNj42Gpitx0TCbKSb1wir6WbagBDaBWbYWryhA4Xvx2He4ysn776lHatDSTLXW1TKwjK1W70rli8y2zI4Pzhvty/bo9H5oAV2YU88nvL5jL6tmbZWSOPQ7RaEwTIgNsRx3VMASJ/oCYIb1VsnnHHtIl0fc0/Sp8Y1U2IA6SE3PSEGeYDWxSjBJbrpVvepFcWT9GTIYdcWIRebhe1UgKrksk5Dt9+u3s27uvpUBxtPhCWXvPAM+yVaur0rOAaOGDpZBtOFbi6OYByI9xOwi0Yhuk+lrLSNWpfuVW/zvduKQExrdsTeNCv1TbOWuABLS08kugATzsjfCYBO3AW4TBCWuzDgpq1fnILlLPH0zDiaYZvQ09O/xlFbhFxsFrYhr/kuOd7kcwdRsGl9ck7bl7aI2OMZSVuaB6FaVS72bmVkRCvVX2szng6J4ftnP0zA2X7cTFvv7N4JBSyh+ocOjyKmTgruPiM2kzgDgJPzszxAnkicAzyZhW0e0lbYmtfbT6cnJwBwMZgAwOjrr7Adt6Cuc8RGdJyQjNAumIVtuWfGLRU4rqn3e+uk7dU7W9aWVa3Xe3U6uROGJQLHvuPALdy0o5y7XsLT5Ybvx93ByWBwdn6ehwXC39k7m9dUriiAn9EOgzid+DGZaBxN0JKZmGjM42k0fkBQIWlQsb6ABINSBvqRB6JkUWjJrtBFoJsuusmiNAFLF4WWEkpXpSQt3Ty6bJdd9i8odNM7dxyr0dE2rW3iu7/k8WbGcXMX7/fOufeco9rWkhno4Ei2bv8r6AKvE7q4o2x9quvyVU+1nlJ9qsmWGpJtA04o9NzTQm8fVavoHg6q+X9FtvVDIBAI/z9d2XLrflvExbHqJe0OSkNzNRy//fLL7STyj9CPObZiYuGw/Pnnn1+8AxMQC89Z57VMaXHBZgGdpZZS71RgIpzXgvLIjoEOjst7pMz/P4Hpmz9wrtw9sD30+ShPtb3TahtEtp5iStNqtYY+9/jQg8pB2TMg27W2j7obDSAQCP8/umy3/ZI/xtB2HNyarbI/xA0dSe7TrXo8amuwN+Oy6VEYUhfItTc3lxdrMBbZ9Fx1cLTnVlcGJualWh2l3beAjXy+hpes/0kePclYkG4d0Ef28comGb73H0An+mVL3QmcFy77fMetVhGdLTaQbTUPKezSahkgrz7yoZeqg2nkO8u2AgQC4f9HTyPTu1FZFKPb3VyyNykFBRgk9eQ7JFmN24U/4Uem5SwH8NLF5xfYtjdvL8EYXIXlxedngFw4vbiam4M+lnaUulKGHnmffpAGFQOBStODk42cF0e2/WSiC04yuHD67PL/gmyrDYAjj6cIKvnRaWQfdQINzboVgGaVwra9Jds1IlsC4UHT27PlWCEmpgNZL6fq1s7tlqTh2Xg/PvkNl9g+TQ31ZixlALGGVItki2x7ebE1qQuhM/FcDIHeDawsDPVmrKE92/qfwWyl0+mUVdXmd3Z2Kjj0VZRWCmAe79neYhetHf9crN3/ifCvyLYCkNdlW67mR8lW/bSpybasbtnialufp1+2W7BVJGlkAuEhg2WLYe2uiE0SgyEzh+9YJihmzTAZV3TRpBe0pNTI9kaz7c3Lk3rxLz4HXQhdaJLAiDj0pbZ6GrlYAY2DtqLgY6tqOVBrC31e7FBHgGTrslhoGCK0ubKaI1u3Q0xNtqd3TSOXARo+T72WP1DVeaSV/lCDsi3DVr0n24pP3bOtlfP/0p7t8QkQCIT/n/46W5azJAOiWHLT+BFnjvjjczARydS3h/iJGth+rrr2cuPyExgLhxoXzngHRzRf0KA340mRUuqKr9nQ3NtSsFvzSMGd9gn6uN2hyli2ep3tcPfLNNm6HWSKsv2Buhu+HbwlUP3Jg2XbUguAqlU1Z9HuyZZag9qfJUDQqlbVeLihnUb2If7RaWT0XQKB8P+DZduDo9cToiTv7eNcMo3k62Ud44XJudK8HXocamlkzbYbFxyMheWXZ7kLoUOQnKsFO4zkpSOFqtepunoMCpaaijqhJbVDtYt1pQJQqR/j08oOi9dgDV2xBadtdtfu/0fg+3nzrrZtACzVijuHoKqzvgTQwDeHvnpXtlW9yJbS8stbR8XyEnqk1tmelMvlSqX5T9LITSAQCPeAAdni7HE4Lom2SIZjcQdHb6SU9IIRlkQ6HXFBH6kLPbJFbHx88wTGsx1YdO7NagdH9+pCMAOGNFpUp96hWocAkFeU4hoctqmdfF3JA5Q7Slt9ziLXGrErLjzKAKGP6cn2zrU/9TXQqXl8td4JuWobd5DSimx9vu7brRRolPGerUajuAWpoo+cjyIQHjBYtv2wnLp1K8UYVtOtyxoQsyyMgkObtWlmHgZ4B0e2Pdt+/BoNOnPvffPZWy9+NDxG/ZF1NltKhVY3S4IDDEnV2goKbndSABXlGMm10qHyh21lZ0mVr7p1C7Tx12km9niVnEruZ3qyvfs0W0+9kcKJjEqqpjY83kJ3qZd2PL72SWqr6KE8xTXcAhmD7g7Ut1N5H3o11aXcPkwdtj3UXSiSLDKBcC+4LVsczu7uyZLcKwNyZcXAKGWEHplWh3v1OrTQ9hKzsbFx/vqrWLdbT775+erqGv1+efsbyccrgZnsQhhejifxJCVDTppKHaeNT5SOcgA1RSlDi2q/BEeK0lyCMTgYm78gLT835VNTZbJs797WgvL46s1as+6h6sdqSc9xMX/UPlbNeVyvU/pfPTxU+0h924c/0DhWL0nhD4HwoBmWrTb/hxclOevlWO3cVCEdv23DddHkLNAwzAtItvqmLbbt2advfPDBG78j0SLee/fq6incwlVacMZmsINjeKEE6zEp6gVDUk0Fp43Xise+CjSpOjIuhey7g08nG7NdkmLWdSLbQaYp2++PlX8yz1ZtZaHdoDvt0td7MvAyflu71MGv3okm6YxMINwPsGyH4cyhuCShMiCsW7t9PS5FXQO9GU2moIFD3r7pi2yxbRHPrjQ+++zq+of3HEPukJ3LyZkrZQkvxDiODcvimCqdCpJtEwB5lqpttajWGjQoXz7VUsZ1c8wURFtEcAtEtlNE4Adt+yn18Ki/BAQC4V6AZTsCmvPmApKfX+/mkllrQLTqyuBQb8a0AAbMXfRHtojz09OzK53r66uff3gKQ1g3V2aulEWVrZnW8vBgQFnpKEe4y4Vy1GhTTbUE17dzUFTaB2CAPSL79xiBYYhspwmW7WCt7UPjmAyzJRDuC0ayxVu3UVny7+1rup1z5UQbo/dmXI04wJCXby77I9uPP8aufYZ/rn746Cn98twohaCS1MBsuQPL1ox0ux+VYtswisNWR+vbWFGOW3l8udT0tfNF9XDyaISglAi7GYbIdroI/LBtFeoh0Sb9LAiEe0Nk2QIZ82g4WihJaX0akJ3b56WSd94SMC0mWBjH2xs922JOVdfi36svsGcNK0dnq4OjJtveJKX+RTtot3aaR0fNNnJt+yVQu1go9XYdz5GvUZ02PpI8Cgsvxa1ugSGynS66bAvCXl9rizeVB6TbozUgEAj3hdxywgWseTSsPWO1SWJMoO34jhbigeDCyuT48+LjvsB24/x9HNU+Q0ek3oWxuP0Lj0MwM6iy1VfSbJVFKwc6lSqlYDqUUtHmAKn9G1uqYRsdpVOn8jACc1K0ZQWkWiLbqSNEeUR0bi7yp2350zcfSnS7Q84hEwj3if3NxUcR1sEaRLe4g6OkTgPSOjiySedCAibiuDz/eEP37eun758h06rbte9O/GJ8eXV2Wlz0ZNstoZJsAnRpUFqMpHRaDcDUKKrr3a0mpVCdAxiCswbQZq2bYYhspw4dtyWwbGlw96eS+U/P9WZSx4pyfD+p79TIbi2BcM+wR1edsjDHGeWS7biDYyDrxbZ1bC/IsYQXJvHyOeJjlQ20Y3t2hkyL+AgmsJuISauzk0jul602SSnNuwCzdFLOHyFqB0ugkarka13vbpXzo/6x3I5LpZBbYIhsp44ju2ISddkyAxu3X/P89xrfvnN4P3lpixT8EAj3EIta5bo7TxvmkllGLQMS8MatezG7G08nJwrx5rwLUi3i6vrX6+vPYDzeghQPBZdZmBV6smVZGrfjooWghNbuTliiYjyiZZAFgch2qjCPTZu7QnRYtnp4qzGTnVgIBML0cIuLqwXXPG0Q3eIOjpvBDItlmwQ24vdbHTCWt3XZnp19hX6eobj2ZzuMwx7xy0lh2zZ7smVd0ZhA4yt1kpI8vHaTYbP+QLarWrc1EYwIRLbTwiuanFYAN28kW50cEAgEwt9hPrfpTFtph9lsXAYU6Ua2yTk7h2LQ4DaMY23jHPP+mcpXSLZXT8YPyLGJqKBFcM+gbGlvYFOdpMRqk5QKYvzvhkRzTECMhrUMspvZs/mlpJvIdjrQCZMpYYdJssWQMRAEAuFvYi4sL8ruObuxblmzLltVGdt8OrEPxqQuddd+hX+vr7+c0H2whAtaZlG2ZnqbF6VAxGXXJilt81LCAn+D9ZjEh9yMiiBk436/LUnSyFMi6zQFvKDCTJYtGQNBIBD+Nrs250JpH+wZsyG6bBEcy9jELD1Btqc4rMWR7Q9gTGZPDODtyBmVLVqtcDyNJyl11y4gZu3wF3FFRVtvszbCy2IgEXIT2U4F92PTI0Ff9+RE2UaAQCAQ/jZhyfl4zwwTZavX4Ob8AcYxLo18qqoW/7n62djLdqssFxgkk9mVrToYOCdL/ug2152kpK/dROiIX97rro47HA34/bEIOSA1Hbw2kzMHPRzu6ATZJjggEAiEv409t7qYDtFz7GTZdqcBSfF1GMnb+n4t1u2zMxcYIQRF3H1wpmWrZt53o3JaTnq7urVEpb+ydRu2idHu6riZZFCUg1lBIKU/08DBo81aGvphQzw/VrZk05ZAINwJM+902tbnucwk2WI4Wp0GlIERXGLX4pPIyLXvPwEDvLwUtCJ9zLxscffLmCTFrWaO7Vu7sezH0PtuPYMck0VbIewWSJ3tNIg4Tf59uI0lwo6QbZTXmKnmogQC4T9lHW3d8l5gJ6aRaa0GNxwYNUDu4hy1jdIj22cfPgXEhO6DQle2q7MqW737Zclt765dKCBG7GCIa0+05fRyn1BC9su8Fd2SphZTYD1teszAKBwjZOvajhLZEgiEf8Z8eHPxcdY8z2bGyZbd1To4slwGTwMaIIVce3qqV/2cvULDSOZCsr/AdHOk4Vx4xiNbvftl2l/oTlLCw/cY40F6cpJxa6oN79lEOY7NS2T772MOmFZyDuO+ZvwtaAgR2RIIhH8KV1h1SmFuLmMsW9YVD+R604ASUszSp9q3L09V3seqffb6uzCa7bhYCuk50lxcTgozL1u9+2Wwf5ISWrth5teDIo9Sxr1yH9GGj0kR2f77cAWTKTZOm6yVH8RMZEsgEP4NvGjYXXB7njaWbaYkSXGG7VaOuuPpvQwglt559QYNi0ecqTw7e/1dDkZiSUjxiC4TKy/75ezzIFu0hGw4rq4d3Vs7qeCCW6j/f9E3a93WkuzXyn2IbKeAddkk7cN4LFkiWwKBMA0EcXE54QU6Y5RGduVsaTGxrk8Dssr+iKrVly8u1Zofjdc/eLoEI6FzIpKrniMt2EQ5FpnhOtsBWM6bDaT/nKRktsoyXrsebFL8szdjKBoQ5VIE3RLZToHdTdNyGCbiWC8Q2RIIhGmAOjg+yrHzo2WLOzgWRCmQtHS7EHr3RNs6qDhefvrkk/fee/LUDkbMlaQo0w3cmGxQFoNJRpj108g6uIlUFE9S4lh8h9YuuA46XDjgjzJ/lvv4/drqENn+wd7d9SaqBnEAnwwhpIEgL8oDBBMiiYhBIkYMSuQGLzTG8P2/zREUT09b7NZtT1o6v4tdzfamc7F/fYaZ5/PlKxyfevAn1GhNYUsI+QJc4tpOJMtSy+iPyhul4ytifo3b/XqbHOEPbJL+WrSEZqBlNPKSyOr+6M9zKi+sHH86465xe65dea2dlfq3DVHG7lwd5VRVh8L2CxzGmHLwp/I5hS0h5Cs8KXrVulXzt+dsJZkTp1u/FHj5tsExk+Ad5snxsuYEWVx7Tj3Q0tE521Lj7tyktHX61rV2vHGuHQ9gJv50bhkt1XnBcihs/4IQ4HYDH3E8UNgSQr5C5OtBYoL0ZtjWd9gU1RbCvXyZHK0ukJtp716k1xwZCydlNKoHWrq51GLGFE1uv9rheBj5zW1A1eV7k4kgjrzMeFWdFqEQu3Sl6qOOI2QifFDPWFPYEkI+WbPBMZ5LPel12N7aj5PtpGi2EA4PfmpBK2F62z5oCEVatyPPbzsatpsg8MJea9yqargebZVqDKipndPMHRvGrTotQuMQu053ivX/UlPEgwwfJ1UxK1HYEkI+W97X7YmhyfmbYVufHldbCGecfAmQzcpfm/CmY/l8+2A5cbykGrTtbNjC0dODvqnxrWfJ3CzdOitBUrkzzUxTw2qpzgtWOJ8w1u9Qrf5Pg8JGZQiPecr6JoUtIeTzhQpjqyPwb4ZtvURqXm8h5C9nybyg+AUPr+QH//n2QW90HWjpcNgCzGJ9WfDXh8xaxoB8J9lXpePPYRsZVXmipKnO24wwSl3m0RnyY4wFxiE8zpJApLAlhHw6TYzt4GAO+PxV2Dat20O1hXB/2+A48iIN/kMWJ6PDv9sHp84orQdtOx62IM0D249kjWvBy5tkEntP/PnlsA7bs9K/VKdFaKyXeixoQB5gOmiL8Hfomy0h5EvIp8DeiqrWhO1LKm+tfV/ZmdcxoGo/1BGesZ5vH9yl9f01hiF0P2wBzFJnyr79LFmVhFX6JD0P27WSRO3PIFuZz4KMrlJ9CL9G7PPwtziRwpYQ8hWeVsz2LNg0YfvWFkLHT6Nmg2O48hPz3+2D29WtWdtsHzy//RVhCxB6upuYvfa4NZ847nnYRmL7CfKlWTsE8uBFepPPqd2woLAlhHyF0LFZEulZr639+GKD46y+fO+2fdB6tX3w14QtaEJsL+b8oLV1yz8L20pLdaKqWRvoE2rWPiZc4NKAT9Kz1n26PJ4Q8gXmC31pz6ElMuoNjiN/ctvgaJ5D1oJevX3QMG7bBy+7GVtspl0MWwA5c3XH6KlcuyZs7wiNZOFuRSCPMKdoFwP4PNyMvtkSQr5CngRstLkzOcpbfcdX5vl1cvSYOEnf77+7fbBhWcWC8dBJTyVj6b6nPhS2TXV8PTh18sPI19PWY/z0UakBEELIVzh6urs2gc/bJ0frDY7SdQuh5YzmzbiP2PecyVq8Mzsqesztd/Y/sM3IDk7cQHosbI1zdVw9NYE8QmTo0G5LQsjPMdvqyx3fuzc5Wm9wVKXqnbZahZesiBJlNFrd3T64CtyJBR0mLvRYVOVHwjYUyoBNDCCP2PgYREAIIT+IlC1tX1A1rsV1g+Murzu3q5VVZ+1u6ryzfTBZ6It5xwdauMLVR5bcuxO2v7g6X0XyEAuaSiaE/DR5qbPpXlNbz5IlYbX1N/LzsE23d7cPWoXD3KSj7drnhlPdXT1p/EfC1rJ2VXWoWfuQXjbGlB4bJoT8RNZEd5N7S3/zXWZKz8M2688to70dqTA2PULHqG/+RtFWDw5cT/rTsDXCmcLclBqOj4kC9Kl2hJAfSp4t7MVcAilv3YskcU3Y1oz22VGhDHTf6NyDUeJ48ebvpM6Wdiyqg3fDtqnOUvcFII942qJOzVpCyA/Gn1x9ZMgy10LibmF7V2icYrbsXktt77fflyoljHlhT30/bC3rELPFrnMfRP4fUt8OOv3EHSHkN9grTE+PrZOj74Zt047Ug7Jz2welKY6zAbTaKIyVwx7fGrZNdUa6m1DD8TGSuNvR89uEkB9vEPp2cMhByh8MWyOcTV3d61xLTcsQp/n92llbe1lIAylvC9voUh2lc61sQgghH6MVSz0W+d5jYRsK/SWLu7d9UFhiHP5B7QLdj2S5LWxDYb1kPjUcCSGEwLDv2hNLlj8etqF1iPXg0Ln1skcHXRH+hJkwXdnI8ltha1nZVg92v2AY6iVTHEJFne01S5zNoig6/7ExZteXM4mv/4qOcBHtAWCfTbzMhLsEYQCNXpg4qyi/nDZ37miFENJBR89m5dOAzz8UtlZ9Vdyqc81avo+YyB+onbs2B/yLsI2u1fmVzdodni61wYkaYGM7xoYV4kVsXn4uAXmFlXEBd2i6K8OVucCKPQcAA0dACCHfi2rx8NIs1oNM0qQ/D9vqqjiXjbr39EqhozeED5jF1+2XTdg21XG9X3qR3g4TqOzR18TkcHBRyU6HaHd+OcbV+SVnYFAURbnERRWeJQ7BR7c4bk6IIrTTbLcHF0OGW/FopIgZgIAOEELI99JHd3KEF6QisLczXpPeD9tbO1JfiCp0jLHE2IKPkXZBvf2yCdtrdWKxB7/Tv99st1BJcQNXDGU4i1CBMy3AEABcBiIu+Lr+aKswkAE4tapsrsKZBqBxfPVCX8KgfgUxllAREYf0zZYQ8g1Z84OLqQkvmCvGlFBT8/the2tHdnH7oKmgvXt8+yVfh21VHZ8Fh859EPlA2GZQGaIPFQWFf8N2eAnbyfVfZgBPuAYXLailWxPCZZHiAfYxIio59JTJXEc8aaCxIHMRSw02yAZQ8zChsCWEfFNzNl5L8ILhMNYfavx7YWtU7cgOnpFqa8Q1Dw8JvWr7JeRpamyqawbLJ/i9dliaw+GQi+6ErQdnPMM9QIa5jAz+JSDiIpQQyyRGHwZLxFGfYQlagOicXxVwwBQuDPQobAkh35W6xvGrp4DkaGEvCw6kvD1so7odqW+tzq1EEnUcHeFRPSG2F6JZrmZloI9+99KjHTbawzbIktNkjM4AIHZhgzEADE+nU5Y9gYEo9CDCAwDoYxkWWAKYNuawxBPABh3oYwYXe1yARWFLCPmuzHSsF9rrLYS6E8lyS9g2V8UFReeuitts0RXgb6gHxpypt+ji3PFHw9Z1KvGdsL2YcAAcrkGou7siVnbXL6oSB9w+sm0VApQAYIICuGMeQMUYSpzfwjamsCWEfGdDBd05vHBcVZOjPfXtsLWswtfdpHPjPrmCdgF/66lkQeBmnWtlfzxsd1CR7oRtvNmEGxPO5riBIwbVz4fhZlWHbQlnwtZGRFeGYDwAgAwLYOd3INkLyHANFwIqdIxMCPneNgEuw1dbCH27aj/y+cuwjaxQ9JjevWatfEBMOfgE4Ujp3AeRv3kauT1sFWgsmAbyGDmorW9hmyFO58OlLUNgw9kBd6AHvUvYGriEs3wICmYUtv+wdz+rqWNxHMAPPxFTlag5amywIAqxkURUVKriEKZilFbcZeOqiywLfQXvooV21UURxzfozp1QCsVn6KvMfs5J44ztdHr7x46aez69Nz3Gk3C59+K3528Yhtl0rVdWlQqtMi61gsLLsFXzVcWNfaR5BZqu+wHiQ9YQtvvI4bVzNw1VRHkkO2yrdtUEOUpyyOlGzsIRworTsuWxvSC3KVVApkt/9hHDMMwm8742BXevlpKSvkhoOWzVeK+ElYbr9mbsZEHRELOusG3ZbyZkiHoEIY4BCk7YpiCOhDDgCCpBUohpIKLYImwFVADo/SaQIzQQuaC4U6/X1Y7rHvPIMIx77GVByqMXOhksHnRikd/ssKU9yK2kG/dmDPYBer/q5hPfpQtRRNVBQVQWNOQA2EFEAIrIkQLBPiMByAC4Cz1nYVALQAS5BIq3Sd8A2EUCyHS/C8CC3csMMiaHcIJc4Pgld8dkGGZbxF97xk2gSFeOxoI0bONqICymsu7bm7EhQS6BmNXq1FREeWoBROVre8jRqHifuk60v8+0kO23aLLcrHpQt07ejSOikG0eJPiDXLAk7oZLdKpArEHnz/M9+5JONKkUq/E+9FGiUutTlV93IxGGYbaB0JIh87JV4GmVpWIhiKrVI19fwSXNdZ9kPgWKKmI2hfAfpxWMXhdChOa67haGYdwrmANo8Oi5vSrG+/Vo9bCIRfftzbiXAVxAzMbjFey6HVQYhvlldZKQ0tALu/uSmG1inHPdbF0+ClBx3dYcrsSLMgtbhmHco1OG7NG/N0yW8L7rohYVJNhn3Y9r5PktkUgE0bsk2L8UwzDrFuOtFYnwiZos94+sZTzP9Ws6H7E+i9/E1RidJijum+21VfYOAP/CD0ZiGGarWIPb6+uTlbm+vSwB3J+Qey6fvL3+yj2vb0/1zeoF9Ebp3ozMGnmqMvTZOh2GYbaCfnt5QqLs9Ir+oq6WD1f2t0XJef/l6ZdvXg3+LINUGQycWss1rl75bR+Wyi/uSUskqi9PBhvUvk2kIO26rTm2ircCsM9WXDEMsxUip5fXpwNOXzFLb4iQVC1LXxnu6vbymkMbIiGC+3ac3CZCA0PSfbMAGIZxJ+7k5JQzdW7ldIvrA+QGlsmtiqkPri8HaCNEJOigZ2LoQ2L/p83qf1+JFobmr/24X4Zhtsjg8npAovZbmJaaBbmhWyu8JXd7eYo2wQHE0QL/x8XZ+fFGOz+7+LFBXfBf5iuDmEcMwzDbQSf9sjr3bUxLK4MSME1uVXT99PIKrV8Casjx4+zxhqTZhjsmf8iLIXKHeBFSbB8RhmG2RuSEZu13svSuDNndVfYl325CT3Ie6sjGn90cn1+M/P72RvP7Rxfnj48XbuhPrmdBOmT7iDAMsz1OTwYm971MaxAG6HPWqkJd565P1v9JewgJRP14fDwb0TDbdG1idP54vP6/ui/ayYFcYwtrGYbZIublqfnZyHt/17DFq1nAXX1VcasPTtY/bFsHDRHTm+OR4d8WbePi8fEH2maJMECULbhyOU+l/y9RtnsMs8Vur7nPOsxV6/r7ojGX1CxNBCVvWStK29tLC62ZFyfJ8febc//mN2qXGKPjbU7bYBQgzPZcdDm+pYjZl5KKlGP/8sy2ilye6p+dppQF8JnvqroLkCYxW5Nhf2Dpq2nabsCobQAOSB/y8XZlLU3bx+NtfcY935Ag20GMu8WTUqmAngh8xBGr59z4yDDmF0Ey69Nhmwb577A1LZP84ihSImWLVrHs05Y+2C/1dN1CXFXGNXvo1iJv0Xe+MGp7i9YuB43j49GWZS3pSr54PENb6RBDlj012O06GUmpBYV4oxHQCgE1EvI6UEzL4hLbR4bZSqfX3CrC1hoUotHCwCKnTV+3t8sFtAFn6oFeYzAIaBwXaMX1gabpehRAKZCUjTcqPk4LkKT/JPP0cgPm+VSLjxfGm63IhfYHsnBxxbcxzm5+oP/BTqtx+LpuIIg+LK9A2YcYd/NUsBiuo0T0UE0k4rtqpZcQgl5bMII8jbKcZD9vMVvo+lbnvh62pi8FhJg3dbNPCnIZIG9xaVLECgBXlyHDxwFKClBFtScDeQXQ4j8dtleXJlo7/ub8zdgczRamP8vOv9O1PXWuMIxXKrwezh9t2o7+j6ZtpJHCEn6dhIvaxxfWKmxhresVylLWh1Cwlkfe3XhH6wiBaoL3LvBopyriKnvwBLN1TlYRtuZAAlDKAPLAagGABISPr9KspS858n7YitOApWmbxaQkpYAoWNwn6VcnG7BFsv/x4q0QNeayLINtMvxJ/I3vZk+3Gt4BvUgWk9NnITqezF6/dD6ZkCj/kPbZzRB9r1i+KJUb6m78NbtqX5Q+9GhjtQhSa1tHmpn38iWlUsOLvPxOxRs59MV9hUOEWo0IidlF61ZA8TRWuhvQr8UwH0EW/nw9bK0+QE43D8hRKAFU9IAMcpzDIBXM3iJseRK2OE4TuMulAEr6Ef5S2A5O1j9DCp0d+98OWyBeC9t2+3nRmIpwb7SdsHWknjK0/XRUoOmnpcWK3kXJmADMDPu1sXTXn2T7zRR9q04G4+oR+k9CfF/CtQR6n50MyBW2sNbtdg6kVHQPCUFvJNL1IS1eCB/ukbDtRpygdfqSvYWiVNQQw2yTk1Od+6SlsC3RNq1FIrVkilDWLSsHskrCNWxZZnmpZZuzLA2gZjVBBkWNfi1sN6BlG3s8b/t/ErblMUXanoQdkHYoTqdtg76iXcBzv0G+UnA//Dts72bjiQIkfmnd+dSg3xXIGqSiMSL1aUVaGpEzwwnAnEQ5uelsaizuOp2+Gbb+43P0jRJRjPd3Uci7LOhdhkKFoqQcht5ztxxAlS2sdbtIBeNMHfFeIhjaq8ZJ8/YgEey0ons8OUO+6JGKIE9NwTk2K53ZJisZszVToHCmyZWhpGJI67rZA1kNAEQt3cwstWz7vKnJUOEUKBUwKDIEvjJmq6N1428ujJ+F7T2iD9yJGZOUMiEZWFTSbWOiYExfzYvK3Z2IU5PhLAUgledtJ2xnsWFsjkGaGu2JImFlPJwrMsjKbDhNilLqfmqQe2dFSUxPhw8YQHwwjLGCQWzOaUEZ34tj4820PT9G3yZyqEjFQAQ5H4/LrZKnr8Vkl15KasZjP38+P+TYE2vdLlQoSc1ACAUXY7OJw1Z9J9BoHOaDoeDy/yE7i1E9jHGULQNitsftLad/oWUbf1rnUwKJtmwxlHQRypxlhZ9atplnLdtF2NbMEoim2ZcBWkj//Gzk9Xcr/nhH2JZms9l4PDNmpGgMxwD3scmiZ3kOjvlTaWY4YTsekqbsPf1+B7bZU4WxXwSqPB3OpaeSvwlElt6ZwnPa0pUB3g5b4+wxhr6Jrymleh7EL2J2Ea/k+PyMgI4OMA7X355lJUOaNWFcT01LpUYQ8YsfxI4a9ZBH3Qv9FhFiQX65ZWsXgxFByCelcmD9HwIM8z5XJ19aZ9uN5/OaxvUB+pYVBQgLZYCoXrDHbCWQW3ptecy2aodtVNgHyJkqBsCVz26YrN9eo7X7g86PeteYrWK0iyCRZijAfCpBeTwrA4xICe58SXIYjjE05yP/32FLLqbfpwDF2VgEPJ2lSG6370ld9YFeQEoPhSbA5A9SmkynGOTJjLzTtGO3/DB/+092ccOjb6FmsFjdQZGlluyiZB+fRa892QVHE+zh8L+2vYNUqrqHIl5bJOYphLOZnlbveD1aoFft7gj8UsvWgfhGWUyzhywyW8K8vPpC2IJs6+oyQLEIAKrVcqYgy0+zkSWgYVt/1rLtCz6nEkigaJb1uSHbDXjK3vvDttgeTmiGKlCiYfjgbz/QKMVQHKIZeT00FHJo/ytsSd1J239PO5bLkB4aKRDnP+YSZKciKAaaZ0uTGKkzJwdy/dAgiT4ixebIaP9kpe33hO1vNTpYK6Dlj0X6PULR8svoRZFCSVIKXvSKWEAEhW2H63rBXopuVRFz/tMI/G4/uR/OJJOZ/Q5fzSbTyXDBgyLLLVtaCPKoXhTF8BFimC0gXF9/esy2CY4+CjxFZ8HUrQopKkUStpaekwFKtBtZBUiHfAC5kBkgR8tqpQDEIkChIEFa/UTjVt+EIdv3dSPPZ8SclGV4mAJMYnfguJtiGrNziRxHqeXZyGODzHKiEft33cmwDFmDXPAkNZPhnvY1G217NrI90Gs8jffOaG1yq/+/GznUUqRSgLc/FxcifEggJ6gQEkK8HblLscsjTyWFm69kqq8ICtstyP20kpTs5Y6c0Vo+dtTbT2fCRCaTbSEtSUr76QNfRPC+HIwQEplqEitdNnTLbIMBbdp+jq/l2NUttXuQ66oWjcG45rP6ALs6p/s01WqCyHEFuoMUPdDjLseZKqnUA9DQ4ADgYPDxZ92e3G7AY1nfNUEqZhjGkOSo0YTiHchzGrbN+/v7h4fZXPqvsB22h1MM0ugBIHmffiB1DSdsU/alkxnYYTsaPS39cRLa7qae2UXi/54g5cvag7X/fBzyAu9NqPlWrxKNRmvRWrelqb/ZZ4PP4vboQJReNlDUIuCWgBiX+4u981ltGwkD+CAjXK/ESBpbjmxGYGbAGhvb2ME2kk1MwMZ/cIxvueTUQ46FvkL20EB66mEJ3b5Bb7kVSmHZJ9hDXmXvO6NIiezdbLNpuk2U+blxFGsmaSH4129mvu9r0HJ3ZS3pAKkCI9OmXLUR1Ldck4krhoMGNJKRLcfI4XZxvZvfk78okqfA/XvHH3Mg5E+H4vqqHvKhV+42D7PcEy9e1PJe43CsKJ0X+2JM+BQ+H9artcnxoKYoRV4guSTKFRz+t7Xkw1ePoX4UsA/e/PQ12XqR94QUq2UFT0/E0jA44cWlzrdke5KU7QUR+69CpPbJhahAFS4j82XomT3jkfJFWSwjf8qXP/Mx8TKyPe2KZeSvy3Z6fvAaPDDzel5kY9ixanXL1udaUKeMYEwIwR7pYGbWA22esaGaPO8CUJHkd3ojmVj73HDW5R2Rjl2MZdvyMTOvoawBevjqErNFzoZCszFCtsNstl2v5Jms4Ch5/Oyffdzntn0gjgOxX8s/eofHOLrUDrcHTaI7vrhzeNjmCmndsTlunPfz49vZCk4vz79W1KLs7XE6n6cz7sdwgZd/3vnwvss1mlxG3lFq768PSO1+wXlFBKy/K/zlDxWu01lFqbwXO71fmvyJ/PyFX413hZc/cM/+fs7HfH5PFG7kO8n2l1/BgzIKdsq4BND1e6GF1GzACGOU0vC90mw5bYYZ46+tNQfBzToFsN0td9vgCreuKDKtI/3Yi50ybQBDhaVItnqbYWreQIaghQkTUH5nMrKtOLSNZNvSmsUx3qksZPM9yaPn6OzVw9l2f39RqSrV7uKQf891vqqUO83Dv8ty0i0r1VoQ/dzj/V5VbN0e3tW1R49iEflq0/aOFaR2p2EuT/ViKkLckN+ESr+czMSK8Gy2e536w10aUv3AN2Q/R9u7sxkWqT/TmiKo/H7yqXz1TaZivuKdfIqrTgn5fviabN9cQvCAwEmX90SLMmsFOoLFNbleD6SEDXPIRvOAMPEVro9zMBZzpNtRr1L2xNZtpq8ofZlYm3pQc6+81w4za2PZ6hZyh0ndEl81Btn2MOjXTcpwh7ZHMP61iWWraa1sr5OvDWU1T8lj59WD2vb4xaAoOv7wy8MXjdIRf95G3DmKBkUN+o6YovA0oDvGtS9fPpIVRvvg4F+dduHFfJhyK3re55lw8Ke9yk5HlLj44nGh/k74XX5zdzdM15m990J++53v4U5n7/cqlb33sykfttv9dHL+WzffDYtafNqr7ex+FnWpPne6v01PPnm18M6U/5hP0/+1EUERlys9Bxg3mbUosyCJrTcaNEK3IjW7plToltCha1vJihc2GPCFaL8hEmtzQJJ25rRaW4zCzNpEZKsiOAgwu/nNaeoQAYCQnmu02sOCvxiICcnIltNsaf1unsokMckjx3519vHoAXUruLn8l1FJgR5n95Sdyf5XDybzWfyv+0hcC8CvXzkidRIjRk3DT1eVFq8KK/IX4pdnJ3HN41k043rs+exq9mwqnqcXP51Mw2H8m5xcDRFT+fUFvxt+v+nXAtsHTfwZV/L+EiTXhdHcT64GsvUIhO+P0HYKhDIR3VJsNlVjo9yFbRe9fK0qE2ufAZl1fmcdZ9bqsWxDkJq92biltB+sxlq2NHcswLGcZUbdimwFzWKbVnb6svyJ5JFz9PLlRx5oHu7/QOBxe0fpFHlD+ds55LHw23dnrx7HGnLIm8vz2X36t0/v8Nr26+Jz3G4gvtq+cxdmpw/bhoDWWjZIni9GSxObCahZaHGxQns0IazljmloYoZ7DtosngzgKh8ASdoRBT1ZEYB4ZQOWzBvZ6hCMJhTT+IwUwR5m1PT7a27dYml5U5PMcPG4pUW0sgtvpzJWgUTymDl+e/by3au3Rz8SvhVbryr1ty9uH/L27ceXZx9/fAOCBPDygJ+RelLMzi/fgIfE7+q2nijwY2XW2NyAeb1Rxray5t7CRQjOV4SFh6b8nK1vFEwGxars5pJ6GnvVjmYl0rHtAZ2DxH+6IFr2SPJUMqWMMUIY8aiWsdQIsMSLbFOLaLZaAU8DkjUuJI+cw6OPZ2cvfyzvPp7tKuUvL9+9e/fPA87O3r19VKrl/MxtO3tCup3OTi8P0APL1oXJggOojemma/EYGtqih4OBYfBBRvheyseQ+hKpSUCrLBvEpx2r1l0k07ENlCvgfvirca1bA5bWXLebUELHLopPsCOrVae0oLWaWkxWq9f6QCJ57Fj7L45+NC9aHaX85213948fYfL6r5eXp7xf3hNh9tPry4MT8B1kq8eRLXR8YiahZhYiUOp4wQhYV3X23D6pi3053M9EU/lDyvZ5oFbMaAU56v40wXWt763cZPMKy85odUzNBIT0BkbsWgPNC17BbVG2aLa0mFa2UwASieRONLtK/Uk1L/354Jc359Nbd1y/PRZ9sKCWb+qeHvzy2gbge0a2doPQDdey3hyOnKW5RzQLQdWyR0PPL7ltE1MTD6ElI9vnhVrzLahGIKtF8XgEdI0RTUfqDdB2huwme4yRftEyonsWv+eZRWjY7grXJzfBbVPKViK5M1ZPUdZPqaSBfXF5efD6/KfHzvnp64NfDs6B4DtFtuIDlDxzExaoC3O1aC51d9gwrCZlmo4M5A4po3Rg6KqMbJ8Taq2uwuumAz5euTbUI31aiexr3TAGQZRBxoipZZAVryBfqdlWdd2wB2uybreaUrYSyX/HwUr5SZWgR6cHl1y4t/Hmjz/+OPjhXHLeXICQ7xnZghI2N8GNJcaawYcOd/EwYAsnLI+MUC5guAdlZPu8iGWrQzvXw/0wBZs/uFr7XrBEyUbItpoNk8gIW7jIuC6Y0vC9nmtHwgaqRglfS5aylUjuQamj7JbAU+Lni4vT17fw4cuXD6en/PYP5fTiAoIE32vPFs0pNWPEJQmsnhfk9BHQ2GQc+GPDtsRoBBsBZfUclJHtsyKSrYVGY1wvctXGIJg18dhBlhoj9hzaJibBwIDX3S1ywV5/gGByzJiZ42ZTylYiuQeTskLTUu7U0LrV9ZPah/6m08hwhYVmxQehjFDSaJhZvcTqGu3rNh9kOSpSDWPeI4QPyQIZ2T4rhGwty1bD7QRgbRTtzLQxa6p2Yi0ZovmqaUWv6JCLFdOWlRhxtZZcwH2+lixlK5H8d9S+oiwgSAcwqCqp7WITy1aPWvnYJUKjlJ9gkPX3ClZxmdEKq3Yx54qmtrl2fbG0RxMaDvM0EM7VpWyfCUK2wGj4eJHoR8EfUdza8/oNw0hk3RoWhNfHqbIUD0f21jSd32iabNVsSdlKJPcgx5Sd1Lz1uqaSH4NUEso2ibXAoWrrLdVGo3bRQsB11cyy2C601GyPYa7ZYT/K6/A0Gdk+L9Saj9wA95Y2jI2ZWBgxjEbf6+WEhmMsS1UTt2xre5oAZMbMHLakbCWS+1CsKJ3UlDst7Sq7RZBCoj3bm4fh1IlJ6xPHhroODVVdau3x2qcMe/U1CyVLMYtTOkpIRrbPCh7ZTphfgihaC4lD1PgCqE2GJxkDbmIY7sqri2mc7WlXmbdrsu7Icp8SyX2wF1XFH4GUMMkrZlr2obdluwEaUEKLN91tGwVCCKNUuJWaG5C1bsnI9lmhdjvrrCWOQcXG3LqCyBnifnu8yWRisraOrGh0LOqbTxaCpXVXylYiuR+ZvlJdpWXrVg8UJUjLPyYh2wzSk6FtaFtcaGUQjM696IVIsttQko3nCkBWyjb1qN3d/tyI4trrEDUpXR2CBmX+FsR3gVDt9rR4NkSZVl/KViK5N8uOspOa5dclUXaeVArx17HrtaJt6Jv9e+y53xElf+wwxafYM6kp/mxDvSFMzkLD8gRI0o3axX0s8mRvjClIfqFD3R9bmSS63gtgtFu7HRDHBTLquC+XkSWSb6BZUbzUbN1mu0qnAVKEYVbw0LXhZoCCnB7GOGgYSHQdINT8JxheqTeaFgWDOpUhkKQbtUZzGiPtDLJiU8aPa3lCp94GVhIDLgp6NGErshUfEM0DLA9ISSTfCFwpSj8tiapoXFXM1OxDC9l2hyZrZ+JIJT6vAos+2WOLxoRi8x+hmEzg9SSIcgvi+ztStmlHrZGcPl9gU2zcRluvMbE8Lac+MdQklrUq6LdEtjpEoyFhK02m/kgk38qIKdX2I2oa/03ofopSiIFBa8tlD9ev69rqcTUCR1t7e4wx8x8heF0yrpcSQUajJCj28lK2aUetsaXjOKW+V5gjqN8W2U6MxJ1QtrdGtkhtmXgti1pIJA9CY0/pZkFKmGOlkpYu6Vy2g4xTWnvrsCVpIuqwgJ5dmIQxRqmZhDJGWKGoJnqTZuu40G4VAynb1BPKNpdznKaJF44N1TtEtvptkS1/hiL91pflGiWSB0PLKyQ1mTPp2YcWsnVyI1e8dUanXhL196CbHa7rFHth7g8VmuXXpj8c6NdHS5ExCHB9zAOTrJRt+olkm3NHyzFhmm5b94ts4xVkt4eZbEQgkTwkcK0oPRWkA9SrKqkomBzKVrx15saENXV786CUZUBLzRUni6Dvm5RSv1/oDbVBBhow0ZuU0JV4t5SyfQ7EshXBbSPw/BI07h/Z2nqb4kC22JNIHhiXKvnU5IaMfKW8AE+eSLZCt4OVJ7ZurY2kjNC4AOmOOx/MB66bsQCCiTrzepuSnsZVK2X7PIhlK3Cd4lVfvftEtrplwGwd92XzeInkO1CqKbsDkBIaHaX25PehI9kKHKcYnnqJ61TEzwILGohjQGglM2uton/Vr0XK9rkQyzbEHbltiscje6Ncxd0iW8OeFzw6FGsiUrYSycMzziumA1JCe0dhOfCkiWUrcB1XM72xA6yNQnrxRXK1ME6O9MLNWk3K9tmQlG2o2/lQdM1DKucukW2EBUZjwsI1ESlbieS7oBeU9PSrs0QK8ZPeh45kGzPKTQhr61GkknTu9hcQic3a8GiLlO0zIpJtUreNwOs3YFxLOyFbgZ7Ms43QRT9cUxxg1zQpW4nku5HbU/ItkBJcqjzpGoUJ2SZOvRQh2rTrFmFzF4oDjYe1UrbPiki2SRy3tXGWXU9Gtpxt2eoINdZXayJSthLJdyXbVfZSs3Urmu+VwFMlKdvE1m0wR1C9HQSLvrcON2ulbJ8XsWyTuE5uwoho6vNPka14JGVrAXfhXa2JSNn+xd7d8yoNhQEcf3wIaUibWnuA9mKrDSSFIq2UQKVFmmgZMATRGBcTXwYHN6OJq4NfwFmNmyauujgYRz+Cm9/A0S8g9V2sim/XU3h+g7khahy8+d+np+ccQv6xvSMb2xtz6GG3hq28biFejW0qNt2GMdIr3/9D0w87a0WK7bb5NrYf32U32sKHZ8k/mGzTS6S6LSNMF2sptoTsAklBnKiwGYr53UKcFduSqc9G9YYX7WTqRJN6693OWort9smKbUr/uA1I+tFkK6l7q8PmMN3uQ7ElZJdMm2htzNJtqYVaLu9y/Rzb1UklbH5X/d1gQrHdRtmxTenpMWQjXZW/P9nK6ixsKqM0tRRbQnaPy7A5gw2R08v3MmObknYak6iTqdzoeiLFdjt9J7YpM04fiIjFyt6VyfZDbGUoJEZ9nv6gRrElZFftDW0sS7AhxD4GudtC/N3Y6lXFk/RMg8bEpdhuqYzYrrzLHnSg0J6o31yxp+4VPtzuQ7ElZNfpbayNNuTyvcKO6wp5q+33Yysool7KFFJst9dKbDOWbofNeRR0Qf6Sqp4Io0VzmKSppdgS8j9EfXTyu3Mm9349tibFdpv9JLYzMy51Wy1lXhW+Fiqt97f7UGwJ+V+6Wn53zuQeTbbk78X24wmO80ajtaLRKKeLtRRbQv6j4gCxnM+dM1/Ru93JZCJGKmSJEh6v5PvLk20CZLOlsTVLPxbP2vOo86VoZ6G4rkixJeQ/0w2suZB3Ir7nm5AhQB5fVqbJlvzVyTZlTtuJpH+pYIYNkWJLCAfyfejhx9g2XVc84WNP3uDY0prtVlsrtlF7pH/9yazc6FJsCeFBZWJjI2/v8q7G9gQsVTScQlFOv5LSX4sls/gutiaYJm+HZtFkSyi2hGyX4hBxJEN+iRhCyseoorUBYFo7AZDYiEwEWGB5jOhz9ioYTbaEYkvItpnVURMht0QcwJJp4759aADADi7Aw/5kwrADIaKftLC3F3hCky2h2BKyfQQN/SnklIi9cnnhI7YhxjoAdDCEOgoAHW0O4buPHOTrUTlNtoRiS8gWqsxtDHjcI7P+28gskEH/FNsQ+5MpLJXRAwAFS8CVtlOK/9JkuzOg2G48ii0hmyIO0D7B17PWtWPbLpVmJQngi9jKCiI6AxUWuJO2jbPY6r4Vlgr6X5hsPaFraCeAbDaKLSG/aqch7gMuTXtoVSF/RJx/ahi2AMDDEADMpIkYwAI7/MV2YmuONhbjePank60gBo7mR0A2G8WWkF9TGmqMGbwmzbXQyN/leyKG8EGMPgAMcADl4F17GYT8xXanh/60M9RYqyPpfzTZesKgx6xBDGTDUWwJ+RX75latXg1YbcjZTpTP/0DEIG+X730RW9XBatFDHICDrqpOsc/fZFtooS0CQEUYM6c8Lei/Pdl6QmJYmpLbN9sIxZaQf6Hi+XY/qQAIhq2NOH0bKa6j3YVc6eIQPprgEsM2RDY6Fto7oGAVAAzkZGLfO0dcFD58PXJYL4kLvznZCmLbYUb+j9skFFtC/qZOi2lhDKlKt1fr8bqzNaqjn6sTHM0kgk/cQOlKSQdguhiPgylAJ0nTtpPwcePCyoN6c2Axwy3Evz7Zup676DFnkufTSMj6in2KLSFriRc1pszgIym07Banr7WormWVaRnwHzCbyDz4SqfOrHZH0n9xshWEE2NNC/jaPEy+RrElZNfJI8cee/ClqVLTAk6Xbsm/UCyjPZdhVddn/UFJ+pXJ1hWSlqUpuXr+QP5IkRklk2JLyE94Y9ZPZFhRbTJnlMudreQ3TBgqOmSQ5lbNT/SCueZk6wrdtsO4XYYg/4KE1j+cbBdAyCaIDNQWBfiWnPRtSwDuVNTKEnzHXt5u0FmHPK3+3zhFPvar8B0lhbG6IOmzdSZbwQt7zBnwsQZNdkmCeOfW3Z94/Pze6u959vzO6zs/8bofAiEbwAzCsAPZ9Plg3OBt68bett9bMgb7IIPp5/I70+uhMYX/pdDGWgI/INSZFUwl86eTrVsdNTUr4O3/DPlNh86eOb2GB6devLj95Gce3r6y+tHN24d/7un902s5c/YIEMIp1fu2WBX4UlJjIV87W2WGzLJsRL8I35piE/JIHiEOi/BfnPj5wdP7uv1ab24W4h9OtoLQbTjMoMXazXD09LHre9Zx4NHS5f0/dXnPN59cPvBTy799z5pOXr10EAjhUGSwlZBeuPBNjse24/K0g0NmtqSqcqmHCXxrhi3IJ13BWqLCrhP6OI7gpwplxgyx2Pl+bFuiF/SZn9A6/0Y4ePr6nhy6dgkI4U1pyNhgL3zp+I27Wa8q13g6wXEZ272wJGADqiMJANyuDFAdNhalNLZKIWzPOT3f+cc6PvYF2F1ma+3LgqOhxtqTwJP0DHE8UMpjZoWcnoZCftG5Y3ty6vxRIIQn+05YrNWBr718cxwAVPiaHmgcneC4jC2kRFRgjBEAMCzCHJfsKsxsVkPEXj5f0BEZ1k3YPXKIONgH6/LGNcdYnJhnUnxN426Bn/ymsxf35NYxWrolPBF9uyd+s1b76s1LgLsXMo6XqmlzTpZul7E1Jcl0++iCgVMAsGqVIlpxZQc10G00CgUfJ5BL+0LEsAi7xLXQKMEvUE84lqVls6wmnc24Kc7luLXLR8k025K37J3dTuNGGIZfD6XVqihQDITNwAR1rbAkgFjENvtjWrlgidUKV5FlyY3sOtLuWQ4sW0Z7Fb2BXkBvJsdIROIucgOdcdJkf2xYWiAhmkeCTDzfDDniyTcefzMxvHqqbrz5TJ7z3y7joneGwmUBX7LzTH02GY9OFrZISVUJIU8XB7LdKmE1zWVfHWGdqAB2SBUPlPUnRD3GfXBy+B9WrR/t7uSxOyHfxiT/m9qDvF07wpDbpCSTwcxvavHLZeHli7+5bDu//HL2ARnMnm5NRgXHwgY5XNtc+2kHGMp2fvGQkMO9WeCEHAJ4TBbwYFk5IPvbuHOWCDmVe5kkWfhKNsx16aBBla+izYewNm/QrBGiM+1zGW8q+aSBN6ABiWT8zB9vVDI3PJ1dzJ91eufnvfOcpOYnVV0af7nbglpZhGAoW7U0h8WlA0LIS6yTpw9dtsCRSqqruFOWn5JnE3Osn2SycN7nKC8OwyhtxaHRzgjIHhILT1rpyBGUUt7phzFvWr4f8OZwxuzAm9g2qEEiGTe7m7yU3iK+5EPn7LzT6V3ypeSs7kFZ+q2jRYwVIdsfRrJ9CyxXSrPzq8Db4yJZ/XkaZIu5JVJ5vog75OlDvastuXsMJRvXBnQhPcYb0VfJjzaApkJZO0EtGI1gbbMRMuoBJmV+HQh5nEWH/ZmByg3wIJGMl0fVykZOKb3L3p9/djqdi7Ne5x1yWNzbr4zhgLtc2b4g3wPfkyJWyB6Al+RkZipkC5yskY0d3BlH5BQSSSbNPHHGOgCPcgW2BrJllA21yEYvjH4sW5iUBk3U49EIFgDN1KGeG4hZDSHbUX/aoGlmnAY2xCSDi0N4ZC6x3CMlGStzz9VS9W2OR7lkBWdnnfzUVty6LZaqJxgjhQqZxYBdop6+JKS4PENKRytviqXCKlkDuHuf4KGzu0U2X+FumKn8CIkkm0ZeYuuDk9BhZktpHL2nTBiW0XbMKCcIKFctb38kWz2ggchs0xFGTCn3pI7EpZZpWq4CaDGzTLGMzMdHbcpSXVsW44FKuR/ox+Ji24jSmanACq7QraxtIRkji3sHan51ir86H/HLlclxUX05i7FR2CoOM9v5nwgh1c2DWexUeEvdxqPSAoDt0gs8eOZfE1Kdw12wQ7YhkWQTKpkwLrCyjrLh9mVLmenU9GbLci0naZjNRuQ4pq1pduw1a0lIR7KF7QrZcgOHTh2aY3SNpAzdiSLbjsIEqPMX2+b9hqOJGSkL7ESvJx7lvYNAg9G41YSemIwx22l5SV2zAybXkSWTx+O1ysEVN1zfdT7iHa5iZa10sFfAuCgUMGJmex0oLANzK3uPZ4HlwjzE76nYZ7taJaXXi7h9TsnDLPohuQfKVt4qMuB4gDeQrWsipcksCFoh+tT7s9CBbPUyYNEmaoHrI6Uc9xuhz3+8frMhZozKg3Vs6iDFNPu9ZrreXENKg7JBC3aubH1IJONh/YVafP4z8jnvdUac42p4jvzjBFVwnF5eHZKtXdw6x2RiCoJJJg09yJGtEG0EaAHtZ7YadNNIeCsQjtTMEIDXAOD4GuAPZduow1YcLtu2DjRCG0gCs4ya2TYBM/DK0PzARjmiCWCbdSCMgMTwAKft8UA/DXTFQJ+/hyECa34DqLfzbGtAIhkHs7w248JbXMW7XkZmm8vMy43K5FRwzGKiP9zNKjiuPcItc0LeQCLJpJYn2ybKQdcBolS2FvNtj1naQLamQn2g5fIoWF0PMNlAtog8wG+h1g4Bh3bfiwhXR+Km+u6yshjWQtmKdR7UDbWaaXmNkJrgMbzX6fZ3I9d4SNflTdtNAKPL6ly2ipStZJLY3a8c7iKDvHu2H3AtJ9WS+nqCFyOPH+RZBBkUnhOyNIfbZbMyLV9GJJz7yGxpVEbZNxLApjRdRg7sOgRCtk3FFbL1mJvwCVxh0aFsDYVLtIma0kjzXSpemD7YjWy6MdcpYzbKcQi0+tuZqeHo4CSUz50wJnQd60gU5kZC6Qn3Pm3zOWVmK5kkeG3Gg+MCrmD5218hqkcN6P0OfHhXwDWsbE5KBcesyh1FdQ9TwurCrVdwnCmV5PE8kpvcs3UbGFBXaJrZNgHYTl+2LZpmtg1GE+jxp7INuyaAL2SbZMnWZgIaAdDs+hWy1WPa/uYK2YaQSO6ZVV6b8bcZXM155+zysjPk/PKsc7GI6ygcHUxGBccsvtsiz6Zmy+3jfbL/GLfJNlG/g0TytbuRWbuJf/FdGwgMwFG6dp5szZFsXUUTsn0/WkaOhGzdz2RrWWVoSjfUNK8BeN223pet4w6XkePhMrKQrSZkK3cjSyaEk4Ni9Xof/tHp9Toj+LveOb6COX4KzIvxV3DM5nWJVCf1s92YY5U8Wcct8qpElqZiy7bktvEyE1sDqPmhH7YAO5WtD7RiX8+VLR3Klroh8PEGqaZwaN1vm5/INmKa6NcA0wY8ywYSGgO1sJ1aWbwPBxukBrKtt5l8zlYyIRxvPNvD9fzd+4zL5a87FFdV1YOxV3DMPXCBVJ4XMB3MicP3btOOMwukKHeUS74kUTJgNmB3Ke1GAGIbsAIdfcJAWFGhJmAzqgGWKzLToWx9V6EOUI6Hj/4Ybrs2ePTHc9MaUWlNqn/7WzTEIDJQ6gAMMw385NGfmAp358k2lmfaSu6bva3T6sJ319vw/OITLv/A9RT2tsj+ET8N6HBS/2m/PSQbu5gSTtZI8XvcIjsV8mRqUn/JrVGOMlwbtJK0UAWNecPwk8Ryw2a5bntO4omiFly2RpKYjNqJw63Kg1kqW5NH8z4rSVoBo35SR01cYGGiaYYh5gz4aMa8xLFEv45mQ6FKo1Zueh7vdkVglAZSq6VBTzzGGP8jAW3bSautZGNCIrln9v5h735enAaiOIA/J8RSEqZNp23S2GhopdmWtrQhrd2WBqQVupQq4k38BYp3RfGm6FnPouJJEK/eBPHiP6DgxYN3r4I3T2a0RtcmtdWwSeN8Fsts2F0QVr5O38x7el/pDLsTCF5+iMg2B5DsEdKbQjTRpocTiIlEFQ37EBy+g9CJuGz9o6cx8DaK+i/kKZ/pOwd/juFx/jiRePT8AfqYPqKBTJd0PV863NXB71/iBObRq99XB88/2/Ud86dXjjovzmdXnb6Mjl+/0Hl95rZrdF89OQVmhtljLb0AfKFnzGxY6un197+4/gH+RKshlE7+mAakyp2IXgPCOwj14nLyNjVCqMZBcLQtpMbm1Ha0TMpqtW3+qv39tS3L2xGfs3903wrcoQGu9b7noOc3/0hpmqkLX0hDlw39YSLKCVtJxJxQLgkSLPHh8y7Xc7CUOJNRuwmucbuyMLhPnBaEzqCZr3MQKq6MKuMcxIPdQ5WdDAQnr6N2VE+UbzClQ9StOs8tEsWWqVpCpK+Bnz6/b6NdYTN/mL1Hw5bjRKyMjHRhWc323vVf3PsASwkWqo5SuwcK6aRUgJ/qZYLm1OLIhjDRpoexuegyMQLu4NhSUYmVbgOVG1RJW8AgeQJuppNhpM8SOLXQDXaVjY5n9pgbtg4JT7LGiST4yUj43I0f8Dm8NLtKqLJ4dVerEbWnuT2rEDJmzaRtJ+uJbgUhM9ywEwgqRbWsvLaGjIpTCA7fRWjGSrfBKRhqdYcDSeQ9iTmY9GS1loToOrVvcx1nBVsmBG7YcqLEJ2rGiANfF1fb1ipdFW3VwUOiWNFH0vzc7AkNfir0ZNQONW5TWYSiWlZeG+5U0Akx0N1yjE5th23a/XZgMMNT4uIHfZjL5IuqPLAhsi4c37ehrhwGhgmBG7YOLAqlkpABH/u/N7ZY2s8ix20TWqz1lmmZ6jDBZ1FlgGE3PJaR1YQQad+aHsYEHb43ggDlLWSy0m0A+I5MJ2Jl5kHrC7DQJtYIIuvIsX2b6OrJQ8AwYXDDluKxNjNqdf+mjX/sZ6HVTHMggS9+ZBKCstizuaOKhkkIEQ2UAsQE7eCYh+Ck6KntiB+Sjb5Uw1LNlgRuzIo+H7yIgZtV1WKEfyFPHzu+aun20rNnl36snznrA54u7Vt4cumgp2f0563v/JUzrFzLhMUNW4kXadxK/RPGtgbe9r+/fv39U/BVV1IpWG6iI0R2ePCCBxV6cSVEI4LSsTkL1Aq4g6PdQyqbvPdPCiWidzjAP2PWn8inINmVyYkI37o9dO3kmWMruXzXXd69fPnxsbMfPTx+vPDk5hMPHz/evPzm8bF1nTnFirVMaNywFZVRk5do3GI+ny6ORPB27hz4ErOoD8spZaQL9aJqjTP+F1dyEB4xi9B2XM4C8XT4HoZAS7cyK93+NaVL5N4UMI3YP+1sxflJqcIWIdsxOEtAeu7SfkSsl8/v3Hn4u9evHv3+8OWrBwtevHj0Sq8+iPTdKIbxDVtcaJdmE8zT3MXKuFRuZsCXf29GDpazSQ0DpAZWxciDp76JqgUIUdJAcgNiYlpCcgsCJKioxCbd/hV+rKvFfAZojopLd7biz5VES7eqKWz6SIgMScNPWlk2Z5qY3E3r1wbK7ifTbLnVEHbLt9JVORuXNjTMf2QetrzWKRrlkYZF+glOzoxuH9aRbyN5JoGH+7fuu+ucPQ/drOzbwbGhI2MKIUpYMWrjkLeCnSRIG27VYrDT2nMNJzNb2L3us2xnuyuJJTo6Sy1Gtbv4ilIkDb9qtslQ4BRt3bBtJBpZk/Ri88+T+Z/8qNnyYqJrDHsN7lvcSlK/a3SUdU7yIp9Reve/fPpyHxZMy8Svg6PUQaiLITypQSU+w/cyI4TSNgRHSaPKKC4Nt/bKpKzqHRuwm6T+O9v5Y3cl0tKtrvY2+g2F38MW+IYul/OcvV7YJhKdIWnHpv8M839xD0jxWGmlh6VsXeK/3boVG+Vii4dV8DMZ+b0tfPvdJ++0BWFYMQXfjrykBSHi0whFdTDg2rguqsxSEJxCnE5t7wVuRkhtksvNQ3b1ne189a10Kw82+K1TGra/UU4QvTsRtdXDtpEfb8l6bG7DM/+bedhSIp7ubBmlnan0o3RbLCdW+REWMgXwkXv76YtP2uKBRbYK4KneDrmB4qSI9NiUbgP/yzRkZGz0Tmsv5cYWMRJO1FJulK66s/0ul2kMVXNzR0LQsF3QL6vWjmJrq4VtI9GqVeVslNtqMczK92wxX9guDtMt5ft7yXi6bfxx+F6/iNSl/9n0T1uwu7LaVcBTq4K2bAgRbXoY4VsX62nKwU4SlOipbXYedBV1QzXHEszz1U3QNXa29BWDuGOpxTpsJs+whVTCIoZgc6uEbaKZNYmx4aVr5r/2lb37e1kaCuMA/nTGEPO07WzN6dpquNim6FDR8nUphAaayejXXVFEEP2AKLoMopvqP6g/oa7rRiKoy+6CLoP+hu67qWP2e1Oj1ZrtwysvvhcveOOXZ+c5z7MI2wXMMbWKrXUymNB3hOQrvXF/xWxGYQKhThx7tCxtoeioxoCDIGzct3DktoV2bsoYB3FqoX0YopMtISW5ldZfM6lIxlYBeHYB/xCx38Chle08onnQ9ylSQis7GrZBmKmimEWmsCpsa/mxpjSHm3Kyk/ovfR+2NG71oWlrW1Uy/zOHa06pzoV2EinILkK4Ew9ms3NL05Z2aYaNd9TNmI9uCx2kepvSCzT/MBChahO10qPbpcjHLBFGwH9tiFpW2S5+BVW2i+q2K0hKO4kPFGjYBsv6kuFP+oVlYetmBo6hbP3Dk6JTqV8P23kn8rTUM73s4hqQ7mlCUYYAmQYyhjyEu/J+9jFtF7Xt69sQiJuWLXMUvkx1BDGigbIxj66qDdTKQHRk2uicfgOGEmsttecubtb+XmW7qG6Br9lqs5a8Ao+GbZh8T2l6Og4L21wun+u0JCepT9BTqdCwpft/8r5tCzlmEbejnb2Ap1ddB6lbDCxx4mPWPngwe0Br23fv7sgQItuRpLD/NFSRWYAY1RXkbEwvUF1BpSxEB+9E1lbyvvr/jqqjtgZkcbM2gsqWvgiwg5bqJO6BwrKwBc4zJDvHMKOgsM1l3HZDamxMs2Lq//Vz2FJcP1exbT+P53FL2HxF85gfvmYtJGRhmcMfs5aazc7Jr2jWhquWpNaAhyDYR6gtQlwWQw835boB/TBbMkQnqyEpB6mAnY1Gq134fLM2ksqWvjABvd0y/IT1EtCwXUJ/KilCN7vv57AVXE9TjHaCbz2lUkvDlg6R8pye0/48wbFfdxyXg8/4YZku0luOvzj7mLT09X6/fF+GZeR60wo7/R31kJGBGOmbFChZBzV1oP7RRucNUSyXt1j49mYtZn+/sqXvgGuXywkb7EDDdqmqppb9To7/blwlwVPTLEvPktkUlkqtFbY0brvtEp3guIhbfWxXqt8c1q4z8+HxbPb+/Ww2eyzCSnhqhE5wzJRjHqBYbG7QGAfXQGOIkDi0kJmWHj/IKEJHcIlIMIsjrGyJSDIVs5S0sAWpAiuc+xi3z/zn3/Kf22XJvgep1CaoG1XCBON+nODo93bqn2YzWj4Dq5zYcQ8uPNq//+axFzKsQ69IUpsNaXtGqMNCfMShioRNObol+5APUWI6CI2TPis/Ynl1rO+091V5kY3szBazotj17UpOMP6NsN17/NDVg2t5eengCqffXnoZ4NLb0wcjcvXU2XSbbSo+Q6MKTAi8mOBYJORT35Qr2LnJWEFrdAbS7qjZCdj+5Mn2AzKsKaNZzVroRF411om8hAbKpizfGyMBItVtoMQVW39WXp3yBVewx7pMoqpsCeheyRzXMv9G2J69um1tayx7P083wlMP6c/899y2CJ05dBJSqXjUjF6d5XFo3GY9xy5NR4Slb+nRrWH1irDaCXpae/M+vfNz/5d2oygdOXSZquFCjCYOUjbl6FZALkQrY6BGenT7Xdiy2X627pSGjMitrGypFZWtCLhWMcduPpOvGPFfhLlxcFsiHdoLqVQc+LYiOUWeY0KQzxMc54HMyq5U3smtlbUPZsfg1mvx9usjsD6m0zJYCJGzkFaAGLkG6m3Gdi9ZbYkQLa6NkL8pXdsRhW220B9NNSFDRBYvqWwxBzwPHF42QYpAwa30zOlw4HkDxxjqX2GIwdHL2xLqelrcpmIyqkiKr4uhxS1hXDrB0cWY1rZVad9WaeU2IHrDlobt61sAt27BuhivtNMpY6BCl++xECM69HAjeoE6iIGoFQQkDSA111U9wJjBhJtMzfZE5NgFjH/cOkDEgjsc1goyYcNmI7PA1ZsIWapqUeq3YrmEempbcp1J0zYVl7ymtsaMyPaZIH26/0ewbY/BDEOK6pCra6YLy4ifplm8P/Dm3ZFb7+7CericWfKKFQMDteToFmLU34es8QaMcRggHaLXbaB/4jQxJpmKs2A6Paul9eZKdrnsDAs0bvHPlS0mInY7mqbZlRqWCQ48vQU5ryHJL2YCFHca0l9fUHB0W5JdTtM2FRdu0FJ6LsczIQgZTe1O/1PYesCN2iu2AV2ch+3jPXD39et1s7ba0fxasSoYeMX9RdTswq9Ke4F+0LNY+BPqFjI3Ze/+L8pWJMMxP3NMrbegNSylWXGx/POZLWZFruuXSsJHpY+tiJxI//ZDZcuB7ltIK4oQSKyaiuQX4C86uS3ZrqddyanY6L4imV2RhB/dZrqY+RS2PCak2OmNCxBGPvBiNptdFGF9k7bdqRfzmSIN2+VyEirpEKOcgbQJJNoECfBnEHp0m8RZ+b8JtxVVy0Mgpm1YRmNnled/bIvixOzYcUxhziw504nMLSrbr4e1eKygVp0HErz+lsyX3RoeB3/LgWvbfsPuz7bF5zSkUrEZmaqxpYukzwTjWOZz2NJ32HW0IQeB7r5+I76YXdwDa8OeZg7y+UxmnbAFdivm5XtkitC+hA3M+44ooT78KbqDrP9t+R5fb6qNOoHAdfCYg8k+STXs8UTkv41STuzXBc0UvjA1oV6QOcx+vXkLXK2BlClDozYEZoH1WisXFPwrD5HPXJ47c3ntdN61a1vUbkAqFZ9aQ2oOWZFZYhG2X7cBwU8+sHduualbUQDdNrUQwjLYDk8bE0EUGwiIROERXhIKVIloiBBCshAIPvpVKiEQE+hPO4ROIWPpDO4s+t2venOgaSncQIHwqNcNxOfg3IsSKevus8/Z+9dffjH66X0b/FGAdXFYw3LKigmpdWSL2FTaE4cDUtJo/wkLJUzHYY9gs6bz2LW9Jj7ZP+1ay66yocvlDl2L95q99C5NluPdWVlz/gMtlE4w3PstkHPS19kazJagl/3BeQECF5f+8BN8BsH6NnFttz1jUpfWtPOoTu2aIZiYHBC2culXExzHfixb0g3oofj6BAv88vvvf/z+3U+wPjdp9SJOVEtkexIFFG9uT7b5Xu6e3vc7x6X+/03qNpAWsdIoz34FBhz222vx0tAtwxJ422tRDv0Ltfga4GZfxD9lr2nVDQLDLjCT+DsObHYrvgZgFUeSsZUaMGeoL64vL16R6wbE6srCNF5tQ8/M2pocFm9a9ERzDq70oWwRjvFF1Rd20bakm966BFJyFJO1G8oWBGymysIBSfpp7QRLpHMP9HUO9g2DzZrOpeDWV2Hyl37ZKgDzARxYnm9vb7FRNJlwJcLp1yWkwz6BQXjOHYrcJjngmUUWzgiRBWdXQvVfPvKwguM49oOyzbQNriYjXdelAWU8K4pxJVGKPnUoTkoS3osoehOCPcPL5IbBQDLuxRu3owkmJofFFxIvU16B/VC2CMtZkpoWdyza9mdYFyYZ0vJWVO1mskUsafr6xQGHg0sbQjm1vUDxyCcdVa4VseLX2RO/9d9XGOAZWAeXw8E7XPOBC1xLwHmCwDMuWA6/pBgVB8zjnb9ohT1T3la2HUmZ0q1WyxI+j+rVar3bbAwVhVKUYWPSr9Ylpdc1Xuh0hhModEaKVO70G92BpJSr1fGwOdpSt1UwMTkwjvid/67CCmzp67JlmVk3oEc16l6w7dqRbcIpvyR8VsTt3ky2SC104AKKgTAtnlTqNlekI59mQN89fX/mqdsnTcRkLcOyPHwqPLusGBUP3oeI33nj2ifc+PutZUsuOwAwKAPA2LgqgEGTkpQmIIWhXgfIFOAKkL5E7Djp6U2AGEBZMpO2JicPk/J4ZDfn+JpsWUs86eUss25A6kMA/gNPr3La7nMT1VYe7BvKFkmIdNEGBwS7/x2+Tu0m3XkE+DSEZ5rOnkXBreWUHkTRmQMgJ3T2wwaRrfHBwjR1e+cR6f3xw7ayLVwZxBq61AJoGo/qF9RuZgIA3S9VgELLuAwOSF6138xAsD0cYbL4yhjqDZwNjraUbRlMTI6AnNMjRmsCs1q2TCCspq3MX92A5AoLG+LNy87KPJ6NP2jyi29z2YIjf01HWTggeT8dPY29QPit+lz1od6vn11wlgiViL9oFbDq0/5l68Cs7weRLXkfAlhl0eNPp9LR/fDbYFvZElq6NM5MLyS9A9CexqwTPJTT1aU+QBVl2x/2pCYUxnofRUzFoEChravlAWXK1uQs8Mn+SKokMKVVkS2bDBflVI7ncZazJENa3AUbwCc1LU+O+7h9iRenrKXt7o1li5QO/fucPY29QIlLWs3Bp1NTafEsU7fuov/+kQFU3N5ly1sCNpst4GWEDyJbBgG+citm9/ezHm+bs73qG7SqEiV1gwDf9FC2aNhxECajArQHilQG6I9jEBx/kShDtnWlDTBptQoAww5AQ5fMsz8m54LjMSLe2hlhVc6W5XMpWQ0/BrhpNyAeK0DlNpB5VL5IzFeQH7Oa7Hy24mhj2SK5OzrigwPydPx7gWohWrTDQbD7afkEd21/nVrU77kIgIB627dsXSU0bQB96+U+iGynnx2Yur121uBfHPyYLcnZKvNBL4OBLYWyLesKVYAJWlZRlHoQWoZs2z1JIbKNwYwh3iuZNaRMzohAyuMP+RzcUtmSCo5ZWY3aLUS33M1rMWVbU04X6nuyNvmqhcIPcd/CbuSNo7YaHJBEhC4ecTfXafAtwIFw5Gk6esoFt/4F84LVTcHBzH23T9kKlqloA4gtwP0jsv1nneV353LYzEu8sMA+6G4r26ouIYqCq8UY05LIVh8FYVLPQKyn612ApiHbyUBRqD4UxlIbCsNR2YBq7EK233fAxOR4eAr7PemawJWWH/1hOW/SqcqvPoYjp25JBce1ajPOkrVuI1kblrXXJBnOZHuKFXm5I94L5Kpc004vHJCSk6Yfz6BXEsFhvxfVuAOI2RaWkTPt9lUsCNBuTHb143MIgsB4iW5tXuFdtisiW4TFRkFi5JGDv3EM1RpRtq0O0hh96WKgbKgUN0jFRgPcLyW18B8YtwGGvb9kGxxKTQh29F6z3yeyNes1mpwZ8Vsxkre4lsqWrB6/hFTt5YljpiPvoxx2uz6wUlwLvcxrM1qfo6FQlBy03UK2SEA78CkcNkxfV45xL5D70MW2kJv7I3gTuyGn+SN5lvR6X4xsY9X629tbr5yBqtSFXeJiA8S2LJEtEf3yyJYlp2755K1fdcPOuRrspoJUlcIUbBOgj5EtahdgpGMytWBcXim9zFS2SgPv7RXIdFvfiWzrQTAxOSqwgqORunWwpWWyRcH6LkJquBLgyanb2ksxnYOv4M6quGQ8O+6TDYWcqQQOt5UtKaAYccMByalH2M3VptGeozgKnPDQxTNI3XrTIiZreeK3hci2UKa+H4/Hvber9WUbzKBGMsH5KFaA5XABGwlt14hsyTOUUhHR+QQzjmId+W+y7WKQi2vHMKwCTPDb0FUoqVuYHaito2yNiRFgxDu6Avw82I1sG2BicmzgL5fwDedYLlssImXPqmo2wZK1ZN6XVV9Kq/PA6rw2o9tnv9Bk7QJzt9vLlpCkaa0EBwRLAh9V8z0eGyQdSZGr6Xth4KRhHi/F8I0LUGZLItvW91QnloldtYNQVbrEpEGMx/AqCEvpvA0Bht83ySg2emvAStsiNm69yBYfAtSyovhggd0y2Sa07dXn9PChKGPjuQMwHFS7Y0mhFGk8bHRGlEQNxvUxCUPLw7oi9cqNqvEJ/4IBtSXjApiYHB9uFf8v72KXypb0/9HU0MMNCW55i12T7fzyMDkUzs9P1iZS4VAoW8HhzmQLzMWBm+8JF0cllKSHDh1RNBmYbok+YaxFY52HI6bDj8XItv9G9WEKke1kVJ+06hiqBbu9FRLtYuQ20jtkdDVWOrAKdhraMutFtmRGENyaGEkKsFOq27T9keYoivGYVkDWUbZfSCs9nMAXyMVsAi8U/AKFdNwzKyObnCdc4s5vpG4FprRMtqjbXEpTtXyN6JbzVlSnGxZx2cPy81/J2nxUDkXJcGeyRWyHLqDoddL+ChwF2BnpyBoT3dzRkZNN3T5pIiZric+WRLaoSqrefJdtbKwPCy3lbQLQfpMaK8SllAHK81eDsXYBViEEbCjbdSNbAsDz/aUddgkul+8UXBru6tQGmIWRTc4UNuUR1TgvLJdtieVYa1pVnckSqeDI5R7Ui9pCQvNP9s5lN3ErjOMfphaKsIxtwBhiLjIRNpeggAyEyyAhQCJFECGEVCEQXnjXBQLxCpW66DP0skPqupvZdtEuKnWXB+gyT9Blz2EMIRkzSaakgdS/0TDHg2eU3U/f+c73P/eyGfOKiMZ90ON+ZYvhfUSmDa+I/zDOAiHrx+oHd2DLW48RTBWOkat4vLierKXMK1vo6yF9+sUHhzZR0VoLQ7Kr93Ho7zwJBoWBVgkPtH5fS96TbUHTKvDFsILjCpODfn8ImOFgRcEobZ9T2eJfYD/3KJEc7Jdk17ZPTseLxSf6sNZlthb/J0qXeLKQ48xka4wBRUURJzhSWLckn5DLdtgQ7IiJBn/XrJWMcZ8XkC14GwEiWoVXpOEmokF4PqzDlLQdng2XI4j84exnP9jqz7ng+BDjCs957wnt4zlbbWYLTUbhlWx7+hz7cnraxNn7U6zZfg+Pt4ROzxZfhRDzwZZsKzN0JKgwQauFrs/Rt1jS4dHyw2aqBgh2Z88WL0wqW47mE3In57uCPZOc2faJsW/83zC2GrYWhw0vBiJFqmUmW+Mu+SvlnXSX4OiUJCdnSKQhKXV+nc2YY0Tl0ohq3L9sMfbXzHDAkJ9zLok7z7rNUcv0s09qHXBqU1AiAkfYupUyReXST3tJaldli6mMJrZQE7c10RDQAAB7FtvUNgoX8KU23QL0QjM4G/f6vVmoFr6TbfO0ewZnuA5eTPT5eDSzzcIwCk2aWnOiN1eCoHefRt74dauy5Vylopio8+X9yxYqTdtx8rUVZ2Fx8HB11Z3JuZFszWFJ//VWgiN9ciUmUvjfORipmPbz62atIjId/PhSssW0Mq88hXMiE77zZ45vxjK58tXHlDtiLON43gzSgcdHpn2EfFCntp8m25L/Us6dcDRF3oO6f+vPoqbrGjR13TY/A8RA1xcwWQ5GGjLwcrK4mwrS9G5hLdv+wIZ7u8kPskVv4W+T6AvshrGx8+lCsrWbz9k+1D9FsV6hLClX52lHB8l2/2g12/Hx9XgIFhaHTzAXcQfqwNp3wNrPEzjBscp+0G0JJTgG29fy9V02Y16Roh78aI6/hGS7t7vvSvCK8CqRTT1jwirgy9nBHLqhBqIleCLVBBG4gsMGh1pFDzRwa7dsU1QQNUsaVY7FSjOtbDHDpT5CXq2hwrUAiNpX/YHeHc76MJ1MdfS5Og11tlj0lt2kIVvbFFt2I1us6YE+H65lG5qF16O2HGBcNPvpypblKGdUzDnTTucLyRYnQc2+th0Rk9rICo6yOBZaSkTNCRxpNwWXs/WoLF7z6wRHB8NEmbtmLc5mzONHc/iUk1EjLOwFFw5QJOH14Oqxp16+R15F3MwJ7MbuiQSuq08NIr48giBiCt+te1StWynjF4LV9pUcdbCAzWbWszUGgPCm8GhojPGg9u04NBpO+oVJTdNHyKwaFMZzfbm8k62uoz+2ZDsE0LBse/pkPBovQz3AsO11NnK7RXEsRe6obCmSY/15MX+RPne+mGwx4bPF4GgYJq3YKIsjwoUi2DNOmt5Z3LKoTbRJcKRYO8NsJms7jCIxOJtxByneo7qzFwD7S+QNvOp5XDJBEGUOHsWRCcjpx4OqI2Xy8f9KJd6V4ChoZYj4wQVuPSLbkxNB8Hvk6xLnMuvZhkfNXn80t81xglQTeiFdg5U157bBwDYahHrIt4XucoEUO2n2xluy7U70vols+5OJbtMnzQpgqsG104tyseSiSYRZZUt72zkxUT7Hql3J9tB3OiwsLD7m5Nrnlnhut24pR17ECY4UfqLzeeMkVP1SkqI5HNVojt/fybgjHQEQe9Rt1gGvSFt8vHVbUgLqhetJ4SIZ5yP+EonIER094uNE5oDvSjKVLdZtOiF3ghz9cWUbnq/yF7oDQLKdQqV2ivuwhZlNnxc0W7NpW8B00p90K+EZrlUXd7IN9XqhyXAt2+VGtjNbfzhYFGCFi+LAICeidiz+GUwqW5oT6kq0c452kC3ZWlgcM7wUiOTbQFbtppCr24Dk/AmJHwzZ8jnFuN3HlDSfulB8bqYEe8XLllW16IJX5NxHyJ8SSvU6FnniVWh0PRtTSkd/i/0WdIcg8kew530nW0zQftKQpAvKuOduu2c7GDXHzV4SALSmBnA2ag4AYDgN1ZBBZ/N5Enr6bFmDcM3WLBRG+ka2p33k31plc0BqLduRPhtp65wLL2zIiYwiJpx2L7uO2Nj8BjLNiB4n2kG2ZGthcexcZAPZMsVRdnPwbUCy1GK3ZZuXE/VP7CCnE3GfeA5vkVyMuKZ239GfTZTgqdg7kUAx+InpXgGODAFv9cNRYMgWE6yWOnKCpzlyxaP32eI95eTcFpriajYUwnO3oWV3ruOki01co6afjiE5CeE52yWWbWiyAA0NEtn07jgJmHuyZRhFyvO0sZ+9xuVKofiYBlatJVsLi+On2okE5HPaRe0cA3LwlH0tW4yznEYLU3g/X8y6442DzGDYA8IlETNv3aYzASUIz+GEcUeuaPPcqswB5FY9n9Y7wncUrduNbDFC1X8te0ou11Zla86gO53hxMZwb1bTAGA0mw7xmOqsOx1NxwXozfBU7qwPaDUthMe1AZzVpkk8QoQUOw01B73p/HRa+Ui2GEkqtlz0lmq5k47IlPEOsiVbC4u3QSvh9jGlnXvJFM3a78mW9+/aQfan6rLPdy3Av4NjaYT3wV/SAK4tN9EuwLiMd03xsjTsmVSWUPmPxZmIqWX8A/39GwdPxiEHMumH79PRg0lkfj4XMUIJwsFjyHZNNehkxLrgZalHZLvU9a4GiEoFMJUwYAqFMITRMlwxPvALYbRav4I/C91TDXDY4+TMVLZMVIw27JspIKAuFGk17mPJ1sLi7eCQ3JGi4CXtu9nIdjd8yhn1+ZgU/FtyajwSiaj3r+/sqHZgshs1pdUSYC5X72YTQTCByjJgwr7v37EXA26PAIg/fr79LQyIL/8Owy7YE2FrE1/xP5CtrBxVs/Y+9MFmS5rK1iAotOtK1Elx7CdlC4XhsAKfSXh6Wutr2jTULZjINsogFLlBkxiWox0J0XOBVGvJ1sLiTcFeqIFMg+Soz5ctn3LkVTeu1P41IuFW1QhBxLZtGyWCECE2HpIJFjAq4VNVH0G4zWxbJeKwf1gkFA+5ddgp7lZaYLj2z79+RKm33/78598A77+/ubl5TwKwv98gfgJM8MOaW3s6HrgUYBsOjprDvDVht2w3rducnFglOCLZvghnKKZJt9nmmknP1ihtFQe9ymakSx4xgZu1lmwtLN4c9qIbjwGx1c+SrTHuE79iYQ9IRAlL7JJg4I4EIUCWcK2FFxBhRZbAliUVwmMm21gGXgJh6zZXhxzLGGsvku3tdz+UUqVvVrK9+f2nX365ubEDdfvrT7+8v/0VAH5Cy3bp/e37ux1ot7t+LMd4n4Q/TmQPe0D4oWwxguDIy7k2R7+UbKHSHzVHvSHskK0iFlMsLqy9wbIUvcLNWku2FhZvkdKl25doednPka0/1RB9Ec8J7AWJaAGCIlRoX7ex0Ir2B7J1EI61bIWVsoh34Pdg7zpzJPpaeafwWLbvhLx4GYS9488Qqh8A2ow7XqdhzR9/3f7woUn3BwD8jmtZGnmVuhEA4JvbKrRufwFMqw0b/CKazoW3BL484ZBbtyayRQhBZ1SsVzkaXhRz2SriZZrkkGo5+0VUWTVrLdlaWLxRvCj+SM0JXvK5ssXZjHG3mII9IRH/sHd3u6liUQDHVxYhxkhA9hZBAgnRBMGIEYPGj8iNXtAQ40NN5jWa9AHmsje97cX4BD6ETzFspOf0A6Pt2Alj+Z1z0tOT9ly1+Xd1l7Wrx4COYIErAHCw/y62U5QhFaCQBgsNmKKXjborZNbAqbaNiKoJV8dWAk/NDVUn2ut//etvAiQ2IbVLw7p/TmJbTbNrwn4HH0lD3zb6cEP4RnpXUlHlxJYxw3hhdAYS/KfujOMPR2kgCrwiN6fGlu1mLGNbKt0waeHqy5oofi62/WZjRP0hXI2DXhiaNR9nsMA1ANRx/ja2hDpwNMKWFlaHAa5gkk67S+SITTkwEUVRxSVHetiA7zDRqd7+2Mh4f7h/jJ+kbLKND4/HyZY8HaTw8JAfp7Glb/93l+ecuyupsA9bn4htusFx1p1FABJjDgbN37ymICUA+uu7Gi99BeHWi2GlNReBSAmh5VVaza1Tb7c3MdvYKJJobPRWLLVlbEul22bOVOo0iXh5bFutuyW1FhxcTwcxnUh9GRbIIt57H9s+1uBomb2tIWWx7aIgIq0CcDWJt20CEOESvkGrTv2cnPx5eAq1x8NeBNjtn56fD88kie3u6XmfhLZ1ME/FaarS8U0d3fZH6Bb0ceETsc2ObnvdcZI+QeC1Wt33u4zR9ZeTpsALklKd2mhUeF74Ap6r+Yiu0WjJEp+81p91fd9otxstkbDUai+HtWVsS6Xb1+/o1rYKfJgb2/zdjNMYrsnBZafT2XoEWGzzJtuezcGRj0byto0BwK/JNoQeorupAmi2BQAm+nB15tR2NzJ8IN0/Q+J5zybb+90hrauw3+92Txz78SjtdLzbulv7Hz/184GyQqyHUEBZbHOZYXXotNccyIKsCIOp4bATVdbHpIfAL1TsNgkkqfwCgQfJ823L7yyqipheCb/Zbhu1dF0k8F7nuJuxjG2p9DN4frbB8Xxs+4OpS50KXBc7s83cpbFtv4+tPYJMgAIwWWyzH09ed21Eh8i2n/3w1JUJM0qnZm6ED1H6Ip1sH0A7VNPYZo2NDn/CaTVfN5pwQ4QJ4qaAXz9ksT2Z2+jOqA9YXGUlXNeNtlGv8YrME8Xz0V2LkG2/+PSvhJj02rXdZW/IKXLyqsQLopT8hUitSbabsYxtqfRTCKvjBsdzse03Zz4Nrj6Nsba+je3oXWznuAEma2tmiqxUKmpSBBBWRthXvie2yrAbGH2As7F9ZM/ayiy2VUgRNveeJtwFbu+mjm7NNurFu7zoRGzfbnDczkWSlJBUW5WWSWQBYO4gHYcgZ9fyfFaWZxHMraoH3UmFJ6zajCTFY6O+YhfplbEtlX4Sc0LVHtvgeDq22W7GGQfMd8W2hj2AyH4X2y2GObG9wxlAE20+xgYADHGg6N8S24qljyF15tvIjwD84elVbOEhG22FByk/twF1ObglA4rdon39cCa2Cc30esadyWpIiKRIvAxhQ8d6BArPfHmyZe8G0Hd0OmqP50RKsw3cun183KeMban007Q61GUbHHNjm+1mtNRJBN+gi33IhIiTqY44f71BSlJVeGH9jm3E3hbR5kSK29qM6ryEAQDEOIKrGrqoruGE/uHJNB8PLLb7RwB4PFSBu48h83R41Hh+fr/PjW3VQd393933c+7o1sZ6sb6AOBNbxtSqa8cZvmxwVMS1i8uKovDC78q+I1w22bIXRBksbct3FiYRZSIP6saM7WYsY1sq/UCSxzY4CkTIi22zP5gEdNmEbzFVo9f7EdCZqBE01BAMlUBCe5U6Q9XgxUJH7NVdDSILEfUmCG4bAEzVgasaqisDrQrkq+6SHY39vQjw/ACJ3TPwexNePOyZJxE+khuInaV6Y7EF4KaIdxIUx/nYZhscjV5TTvrKHkFHa83D66DmzK0XTras3sCvAnZ063Fif2tM2WHtBVqrMral0u0Rxmq6wfF9bLPdjMGCwH9Aij/ER1EgnxiH2TtFg7kI32VII1hTdGLIx/NgsslVIpBQZABJgV9I/NAS8v9bHNVa3duLLcB8hEGBHgNq+32tep6mNSfdWaRA3LPthgaSkMbyCpNt8oeA1lD1wJgtnM6d59UuUfF66hhKpdLNiRvZBsc3sW31Vwa1NjfYhItj2yQKP0Pcijld0SCx28EnNX0MFnFUWaqFvzTnKyoW+oU5uu2O+rxZvYBmenVjtbHsXgRS1surTLZ8QoT5VLV8gx3WXqIyGI9ocFObxkql0uu9vRtNEbLYHg9rexbtRPBzsdiGIkQO2kMF3nm+f6xGT4c5fApblVD3mjVv6KsRL2S4gt+e89nL97YF+Tqi7nYHIVe9gBnG665NZyJkh7WfnmyFE5Mt+w1kbKlt76LWDioLg6rTn/x5VyrdtmFw3OCYxbbfbAS0W9hFfP+JAZ2DJBKA+RL9FrwlP+72u+cYPkNr6KgH/sh1A1dVg9GLoFOg773+a5qDtBgXLphbdu+yYF6UW2GmO71Gn3xxsuVPT7ZkPqsbVrvm1c7yKsO6Rds39RR2qVR6K9wcNzjKSWzT3YzuuiADykfmxjAWkagocG1kOL7LLDq0t5kxi/HIxo4J7wgy/MJVvMFgMFfgNGWh4rLTNo7avzntQJ8W+facz4p8tIrRi7lD3VnMaXH1rHBmb6Jpdxxnub3SZCsSc2N01nX1gth6FW/i0lGtsJ93pVLpKuLjBsftJGa7GSeFPqz1XHtL4Ooqvq6+oh/Z1KU66mMZTgi3OqZGNTiluUR1JZI8kjlV6aJYj838O2sbO4X4+CGeT0drTbgstsQcOsaQgyydX59ss/gKMnC1TntWa2axPXdY61Nrc0sfB6VSKV/F0IP1ZLp1ab3o39gUN4hTHq5qXteDVbOSZziiNrr5KSVrir+055An6qDe4OCk5o1ddisX5vI94c6ixoDTLojtmD+ucKyI5PV3goWvTLYp6eUmvcH52HqVlUHVSXlYWyr9CPLa0kcj+odHoPD+Ye/8WhrHogB+OKUNpSFpk7ZJQ8qGFNI/25YmxNI/tIW2D9VSBPFlXnxYH3TA9wVBEXYEhWX2xZddH3wrLH4EEXzwe/gB/BJ7b2071a0T3bpO1PwY+ye5djrjTH8599x7jhxGoxuDF4ONKlJUhkdoVrMKYiMP/4KxcRaj8m+n+qsGpvrwPYSQqTTcfoXzHOQUGu64fEhWRKmS9zWfINtR970oKeHICxPVUv4dw3Ixnqc9Br6XsxX4WlTNjbbWOsq2OErWqvF3tFTOw8Pju8Tq2m/u+Ix0JpFFKw8vA1fSlFQNvkMvJyqIuQc67mfwIdKDyg58yUarCE74B1mjEoT3AyNhwx2BWlyVsoMg+wTZEuRkMawuy7HZNgQPY1iBTRQLCV/Mzz6as+ViyXomNaBrkJ1lyxSitmh1XdjMwcPjo7IRGB78rwyHF6fD4QLfv/krvB4hEdXki7xQWjSLzp/ZRLfGbOqWixo4h1m1CiELtQ7/tI1Bohh9T81uSwpmXJG65TpZ0SzJvqSjbClysJTJlHxCZG5ky/p5LrGqqmp6NcHRAHheZBsR7pK1RLXOsi0WB6aUXXbF35SHhwfh14Prvb29L/8zx8dfFoC8weOvAXgt/DQ3yMGi+OLxmh8c4WqJRKgb5GBCGB8hCWP4esOuNuGJ1FLpd7UNyD3N93xLkpRhmj5n2U5LODIzKqWMI11eCC7peiocDuv6oCfw9ODDyDbGJXJqmSRrQ86yLTIdXZNUT7UeHm5h49Pu3vUnEjq6muHBp5svu9evp9ugilIIFkEudYPwDGIwRcX5KN/0yn3sNFzPxCwDbqAXFrVyj006yna2hCP3cM1TRGh2w1S1lJSa6soQeRj9ckKfuLpOizM6y5YJVbJaVtLc16HQw+ODMtzb+7rZarcIAfo1vh39mt7PHJwcnh0zPjp9gfHg+d9CD9y7efhi9MGD90FptwOfjne/CvBaJCy08ws1h0NjGZ5HUgYKu4rzSL2nXbOLEs+i5Y7ULdMQ7UHQl3SU7bSE43JypFt2YtOIwBYrY9WOdZsrsLRD3zc4Qe7omWWarHWUbYEkay3J1gxEtNxxTeLh8dH5tHuzSTT2JmgR3e5eb8BrIXQQcz74L/DQFDFHlJmAZ1Ew6jxQehl8iMmMLePNDI7gB4hlV6SiI/Ws1AjJPgfZTks41tVMYaYHEMtxtaiuh++hq9EEF5kOIcOLYTUaIjPIzrJlistpUcoqeEfGu0bz8PjhfN392nojqr3T7cGXL69nW5obNAYCPJta/64XfQcr8CziiFZ8UggDZ5HqMCJYxjwQBL8Az4ZzxRbVF6OZQqXjiul0Wj4kFffJDrKd6DZfTVcSPO+/I9KsZ0hY+4CUrtd93DSszZfVcpeq1lG2BaabkaRK18IJRvR9/dw9PN4eB7tf263AW6K9+eU6Bq9HX0UxBM/Dv2T0IIpdAAZT8Cx6loGT5nuxkIZTxpUruIGCGf/o90jJsLKzE6HaXVnZWREAVtZ3eGGFssMD5aeVFSBEdnZWeGran0JhxhVuejH6DZTcMU1ay4jaas0n951lO03djis4QslMheeQMpmYn8LTZG24Q1XrKNsCTdaKDUYAblnBCVr3ff3cPTzeGJu7N2/MtcS25AIBXpOiiOkgPB2+ZCt6E3qoxfMWlmjF5dWn10xMliUDjSoLlMhAwhGZGowoWmiHYqNH2Xrk7+3ttbMj8H/eXtv+7IfD7fPz9Z217bW1te11oKxsr+0ACFvb29snO3B0ttNP6T6AmjtSnS9DSXHJNKkQok2ak6yDbCfBbbKU0rvN0a5bLh9Oz7FtRl1NcqPajM1SJjPqpOcsW6ZQtcTssh8ocg6nmF5zPQ+PH4ZwfNxawLUtwuie8p1BL23br7t/wWsidAwMs/BE4rpohYBQR4IegTwVpt10WoA8JaGLBmolGNEsZxWxUYAReR2lZW7sGNMPJ38c7pyd76zsrx0drQtH+yc7RzuRo8Pz88Mjv5zwAxzu758A8MS9R+dn3Nb+OnTVJkAXV99RoVz3NN/zLWliI9RsJh1kO0nddtRUwU933fLB5X/NI6f0cMnHsf6I4GdyarREVOss2yJTT4taNQgTEiZOcElVaQ+Pj8hw96C9aBKVfj081p4NlzcDL0wrcHwNr4svh1gX4Akkc0Z2wI61KyJRI2diuZZDFQCiekTo90r9Zj/er9WTIKtK1J8ZzAuREM04jPDLzRhQfGU0KvLU6WYQts55WN8/9J9vAQBR7zqM2F4TIBbWGBDWPp9tcyCcnQEZu3N4vg6DVATAlxKz9XeUxWumELvgBmgFx3Dc13SULUUepW7ztIKjwOeX9PurkTP1IK3bKHC11fSoNqOzbItMN6VJmfz9f0wSThCX3tEP3cPjDSEcX7cWcd5VI50+aAXap2a6cTqr1+FwOmjz0r588dD20+6v8MrULLTj4ARbF8WZyogpBQBkzALwErIQs5HLD0qd5eV4sVNf8kMGtaUkNuZVWLQNxFwSvhHpaNhIzIRzGR8R6Lr/ZHtl5Xzt8PAotk4i2ggA8NtEsLGqmYeV86P1/XUqW577fL5CZRvSE0AoNAzTHanOlyGuoVkDNxBXSWTZZ51lO67gmFMHyViEJfFrfFXNTGeQ9Wqe42kjPRLzhpfpzlpn2TKhsi2apRjch52pRpb1dt16ePwAft39tIhsNyVEvGi32iYiXrXpodbIhaeidNueLGdSUBrPNb/YvHJr88sneHWKRHZ9h/ShJaozPlxWMCeDjBp5LFLZmuhvBvtcMNirycl8TJCyHDmtz0/darT5Hg9jCkT2BfiG3KgCbP2xfb5/RJx6/vnshIf1s/3t9bFsQWCBynhnfwt+Ojv/vH1+SJ9CTR3EgMB1bTHjDj29DCERdVekbrmSrVj1pC/pJNtpBUeSuhVIbjbGEvNm7lRbKUYEugTZRxK7o2Sts2yLxSVL1Do+uM/DbWRpL3Xr4fHqHOxtLiTbLP2/224PxTvZtjba5FcgAKeIt7FAe6PdJk9Pr0jQO3kSGA1qb7QWtO3NcQxeHZobjPrhUWqqYZV4mCCbiApqHR0xXExhGKhsfTBDRLKE+bKl1DISolaafFqKJBKeIdZNy7C1v7V1vkVkexKJ0JhWODrfjoxly/sAPv/x+Wx/TYCz85OtdRjJtpPpTwMeTXF3b+Hn4V9FdMc0qa8qSWqh6XuKbPvJZm+ghplIbNRioBtOq2o6XGrSGeQYFx/XZnSULU3WqpL0aL+JYhYnGLl3lK/38Hgb3FwHFrBeeyRbLbBxiyPZttunV5cXt+3WrY54eRs4vbglvQcCf57+SVcQX1xeXgyJkAOnl+rlKblfcB55A34ASeK80mPnVhVtiYUpvImpXr+KiKsWIqbZf8uW1yx4TLaUkGkYqNZArioYTsJ9GFMm9vTD5/PIyl3OVgCi1/2VO9kK1XTv5/Oz9aPP+ztwdsYB3Ml2OeWfbbOrdVyxsuhlCDZQK4IbqKUkKZdnk46ypchyYjUdrdHgluf73eXlbp8+5oReVc116Ayys2xpIz1JZeBR+JltQGLd2wbk4fGqHN+0AotFtlkFDzYu0KaybelIuWhbSLADIkoaWvSu1f5TRIJ0sBFQkWJuthbc/fMX/BBqJmrxeVHvsiTm+jBDAi0g5HAVIp2lLgcj2UYgEWJBXgonmkV/UtFKfSrbWLHAQa1c7tcSHMzgr9sKGhlzXgeirsWSJVErcPjH0cr++dbW1s7RyeHJ/mce+PPzCAgVLf/L7+sA63+cCGtrPBDoauROWoZv9NJS+h0Ft5Cw0XbH3DjTELPVvk/uO8uW6vYudUsVCzwHHEtrM9b11ChZ6yTbUnGUrLVDEYe1WzjFdsc1iYfHR2Hva3tB2eoWnm5k8MrAK+Jc1NIK4u2tjWieBmjca1wFbLRp4hZtjRzdOEW8rGepkheS7XBvE34QXePfWygExrT1Bw4u4QAIDJHthJhpcEuo8n0JFUVDpoiIFdnICSlcgjqiKCmSDPeQy6aIImblOV4ps7+srcDK2mHk7Hz7nOzuITcnfgD+MzEuyAluazsCwH0+iZyc8EA4XNvJN1LsbCyoof2ulswIdcSKK6ZJI/WsaHaTrKNsKclmsKPrIRYmHYCALYwa6RVCzrItMkumRGdVnJjdBqS6Ir/t4fFB2F1YtpdXJKSV8NQgdxpqLTgw8DJGc7YCOYuXBwFyZxMPExm3bBQDV+TRr4GLq9OFZNsa7g3hR+GvIkY5mMWnKbYA9wlh5c651el22lhDiaLpj1nY5YsKFllRKyRlI62SMX1UasTEogwPiKImmRqmmg+1Eqo2gf8JgOeB5wgC8P4IEOiRmXuB/2l8QBAgvtSDKckwag3pXckWgM2hURfABQSrkqgyPr+TbKfN99K5OMf7CTyXqIyTtc6yzdQzkpaqwVMoaTjBcEdVaQ+PD8GXhWWr/onmAWq3Bl5siqhYloWotYls/9wgZ6XARnsk20ti343W8PaWniLDLjY3FiwitReAH0cyg0oJZmCzEkoFuIdsYBygT7ekdLPGKH6MqYgNgCSGAWAZGRjlbBXEMsAS1gHANh5GtilD1JRVtoy4xMOLwkURw7WoUoB3RlBFxR3TpLWMKFX6S86ynVZwjPZ4XpipzegsW83Miuk4PBG2auAEqeOKaxIPjw/A9U1rwdXI6SEqVySARbw4MJCiKPZUtmarRQdZGw1EUj1jA4R260objfqzvWDO9lf4kTASNnowhZVSXQnVPsxSR9QzCtpoIGYRC3eyzfqghssAUKSytbmRbFWAVfIUQDfkh+ufw3VNyYFQM1F6UYOERLS7+X7u/cn2bhtQEFxArGSJlq50IOhMP9lMhlJqpyl3M5lBqBh6CvGclrXrPDgxfxuQmQAPD49X4OtxYFHZtrKokKgWR5FtmlSzODg4oInZW46cbRDZTiNbrn16eTXcHN6eXmURrXZroYKNexz8WGhF3uY32eocXzWwwsIM3SyiUhUKaCSgiBJPp5EHqHEcDW+hPJEtqmFchS4NbzlJkWedYWOjlAyJRLaRGDAWpmvwQiRM1Ab5BFOrvEfZgrBsYMUV06S+ZS1L9wHJQYpz6rar5yp69ImqLTLLlhZNwvMoWjglE4QJkbI7lpZ5eLxDhrvD9mKybbQvkYh0k+ZksygebNya9hWV7enGjGzpAT1wYKCxqRt2IHarYHahmDpwfQM/GjqzOxgr3yfpMgfBHOK9mTmhYfTJQLQAQMMmxGwUopiBHKZKZGwRRC0CMqZAxXpEwmq3Mc3ZMqpl2YiYtTTJMESbkKbutqxyE74PzzsbIIxYjtcY5r3K9u6P6I5p0mRFlcRcgm32g87IzXwqM5pBdqZ410mPh+fC1RWcoFT9QBFKEmrvaBuYh4er2Nj9tKBsTepRZXOIOFIsakg8K9BjF4HxNLJGVyOLiKJBTnFX5MGlhXjZXmx91AH8eHomZplJZCv7fZzA2GjF4RtpgyUnFSUJPUPkIKaSGx0ZroEoNow4WA0OmmKYyNqQ8xqirdkyEHphxEw4XI5Gy5VKhdzmKORpJWzh96saMynLTDEOn7WI6UI+zrxn2QLkbbRcUi0pn6H7gNgnBbdyORd6kmuZUDkrNkICPJOH3YC0EAAkGkhIe/tvPTz+H26+bLYWlO0torVxMCpqcSoionjabm2a5GDgW2RLOr5nkXDRagcukaIHWgsVkPryK7iBeBat2lS2Pp/AlaRv7fiCKo6KLCyhQR6VAEBOChDrkfPxgi/Wi4Asx0BINgHYXhP8RYZjk8LdIhb1MU3QEslW6FH/60j5buHCkIZmt0ZU+85lC1CQMO2K1C3ECpZidmkJR2cqT5FtoVisWqJd9/1n/6dxSjo0cW8VPDw8/g/+Wmzzz/Bg2Aoc3N1sBlrt4Z+nt8N2i4j09vaAnh0PotWmbk9PD+ip9sHp6eltq73YLttP4A74AWKZhchYtk0WfNVJTUfOwoaORo/Y1kCj8/TSulm0vxevNMsG6jWYgy9qzM4OzqWfRmUpkWeYDyBbiFQRq354beRebM4y4KyoF32+vmNo6yTbaSc9qZxcaO2WhP/GHau4PTzeHzd7i2Rt2+329KZFn1OmPfbI13jQ5FRrdIqyUFzbuv7hy6O+IYdRCbEale2ICPRUlGgY28UUwCquUgvWWHgiPhWVgYMf8joqcz5o7396aqV5r15GDMfzceZjyBYgqeLrbiQWap3U/CurYEWSynk2uXhkW2BKKUnKxGExIlEDH6IEwQk2FGqCh4fH84h8OQ60A2+KFukdPwQX0WugNI5sKU0OGAvtJpQxBJBAHZ5FAcNBcIRpTLrIT4lb+AArAQ8YKKgX6LqoDyPbUW/EbB5eBUHuZmxErMB8EqqSHfTZZH+hyLYwStaaoQgsTLBi4AOyThMBIVMUra6X3PXweHaXveu3ZVvqWrdMIk8oiSKV7QQ25u8g3e3TaLI6Lj/TDcwTF5RqaBZjMCEYxjmE5Xs6tlGr5/PMx5ItxDoG5mT4n4kFmXLWQIoJj8F1LbFRktlFIltanFHMDnzwEkRMfEgGvkctLCqVqqToLll65uHxdtjcPaZp1rdCu3Wz+xXchjwjW4pf6PkAUmiIaPvg/6G5qqCamHgU56P0YUJfRzFKVfvRZAvgp7u0ePj/8BWjDQPHSOz3Ri5JYoph5f8a2dJOeqJW7sOLULTx3yzBoySJZq0CzWMoYqUPHh4ez+HX471Pgfab8C15lwfXrotrCX6JynaGph8A+CVNirLwv9EjNh83pC3jI4Qm77CCmGNqDPMRZTtK3Soh+F/w56OmhDMk4Lv0UyJN3cr9/xDZFmknPVFPvFjV0bkUYT5cx1bsu34HQshUtIG3LdfD41ls3OwefxoG2q6ntUlUe7wJ7oOdyHZKk4/FAOJxbjokKM8lKAOFayZ7PDyXgonaMgsAcgPnYVSFyUQ3WqVagvmosgUojstpvrBoO7qI9+mAE4W0aC0H2edHtkxh1RbNEg8vgbyKj6AkYR5xVRQr8tS8A00xCzx4eHg8g79udveub75+cjVfb66/kClvV67MeChbCsuyzYIp5ZowImkbivgv/mHvblqViMI4gD890zCEMuYcc/SkNWhMjozmDGo55mx0MSEmFEFBVIsIqkUEUUS0axm0aFVB0CZqG7QsWlTQp2jZol30AXKmml60Zkwnenl+d3O5cr1cFP4eznP+h+uqAwDZiaVVnQwsLTM0Pt2R1zBwTs0Lb3k1+uYsav/jsAVlqONmAdZn3K8aOKcL0bJDjQ9aBbe81Mq22Qw2a921FVvZ+APtLMxx6ox9e/h7PPtJhcqVCVnOsfuvr127+me79vzI7T/0k/SisHVdNy17VcRPNfHjAS5gmQBKyka2T4BfIuT4xwYMcR/Db9hNCBRqiNO8KUn/d9gCpOvhi7EiudDYrOm4gBU36VRWzQvuOPbKtikNK6paH8P6ZMqNevBfRA9JpTuabrXkubUuZ90CEEKWs+XYH+0PzdmFYRuSlWLY6QiShd9pN4IuP9R7Lvwyp4r6nk2f2i5CbJ8CvmwHsdQ08xKFbXAMqF2EVYl7DPwBVliiwVGbOmI55spWStU1VpEglOz6fB98TWlYXOtkYd6ozY3hH3HhAyHkfxCG7bxMxq9H9CDQMvArzJ+QLXd1verBSvI7kU3EYPgGP5kWws3aQcvvZqSwDUgaWmNYjThS8QdMiE1p2NzubxLK0WHbCDZr260sJEI0RzWO38rDF/kKVzePYaFCTuPWf/UOIoSsILmwDRocO4jT9KexEoaf1QUAsa+i1YRVyUMN26kMABRtnNlpQsCxkE38bkYK26+vCF55RFzu6bjIEJYhdgxWSrnfNjiW58O2KU0GTOu5kKC02RmoC4ekyl2Vl6SfTlezzXQMiBASIbmwDYkwriEffilMDPOwaaE6zMAaCD2OO/MwU2y1iuHVLnrd72aksP1aoYasBStyduK8zcs3OGn+5Xvln61sG9LI36x1IHFCozfAz9oy+MS+ytsj+KmmxdUcbd0SQiIkGbZhg2PeQk2CgNe1rFoLAJwa8mkB1iO4TXe2dRtSJjrWgm5GCtv5uxG1Iqyoit+zZViaNNC1npcujOfCNuxmrBvcbirwe2ySpoYefnLY4h+nzbkQQdzXniXynzxUQQj5N/wsbMMGRx2rZQhs2RLsdnFcW+ldWJgc1vg1DTSGZlGisF1kpPtVlisodxl+x/i1tLk30Nt3xpduh549ufX21kezb561uf0YfqdMeRTMTPXB28xYvHkCt6vynXQMiBASIcmwDePWnSLm5LCwV0O7Ceu1ZWSg0YIZp4Rqz+9mpLBdTMwh9mT4RfJEx5D64qMDJw7+ihMvr794cePlo9CNGwd2fXZg9tj104cOruTEhe2wJMVsde1ZgA4kiMksMbVOW7eEkAiJh63gZsGroJ4CX9O/tUeEtRM6DEtOOuxmjOR1/8+wBSiEL8bSUhp+Zrw6s+1k4MGDkxt+yYPjJ09uPbwtdNJ/nm0bAlu3njx5fPbEqzm+/9yJpfO2pfF2X4TYMi1qcCSEJCkM2yhpOdPU0DJBqTK2pwyJGNe5oaGVMotSDEWvylLwn5I03OmtNBv14tWDWcZ+suGXzX454qHVnT8ByyhWmDYVlh301ridoq1bQkhiBLUiyq4QTZH7HLt9HaeQmDrynBcravNmqmpo//FW24hj1YWlCHvwM/2Uv5r9a5zbC3F5dcZqHixtvJkaHAkhCRK0diq7RYjmilDYg3qb6ZUCJGJThTO2z5FicKRum2m9P7Jt+jdJ70HsQ3xyn+Fn6pm/KWpnzu+AWNIdVR80Nr6/+WPv5lz53K/CWdcFQghJgpzTWNVRRCGGLORVJk0Qc1lYO3GKWN/HOqYUqVicWCqrboL/m2fjzjLEJNkYunvmwYa/zP7dEE1J2dzYl4GNTxe7fPnyxQUeftXgqPVp65YQkgyzxNVcWcm6QqR0eqCb4NWQt2DNhgxLrXGfd8zoqB1VVDag8VGAFGIT4vBKGBqYb/66rJ2tbfdClHyJq8E8wYXFSRtE7eXZ16KwDRscB00ghJAkZFL+wf40xAjbgsXziiJLGtoOrJFpo9o3zeIkMmzzTqNusLbOHSBQtuKkbTqn42esDwe/ydqz2w5v3bohWdsOHz68dVswo3z4V//W0ejjw7xWBN+FxUl7OYzahWEbNjhWPSCEkCSIHcYHUkaOE7ZFRUhn5H4wn7Mm5Q/sncFrIlcYwL95IrLEmuhEjb5klCSYNZqQiImNMcKQCBuWnTBYYRiUmUNvFoYRCS300sNC/4S9FnopFHpYethLYa/9D/w3cu2l35vRSdTRSbu7EMj7HbLjm88ZWJb95Xvve9/DVPmUba3NXAfJNpNar6bFs2j9mNVGc+AlKT96uw/ydRNK03mtNOj1rE+26VJfU6PX7VoG6rYvt2Rp0RMkYRl9fXknqDSWEwP4yfYHjwXTyLyDI4fD+fJ4xZjYxJbpNli27AI2Tgk5WQ3UaCqzAQHEzwjZOcS6qGDZljPXF2lx7YVzoHqWrG0Bp1qIwjIyFeKxWceBnjCFxlJGmX6aa61215AWiri3C8hui1KlAUPJN0hR2/Jy2/ZgIUk8SK94EgIf2XqWxUooltbiT4e7d/98GF/+Nt/BsXIVAw6Hw/kSpC7w4M8mPEq2yGoCk8t0ZLnBX7JdJgGFTAciqR7h1tpg2abKRy/z4kUKXMKsHJf/n7hF1pfd3Sce1RVASsZM1lnCQZNOxHh/Q3qgQnYt4ch0lDdI2xNfUypNfQuhLRjT1ZQcDHHYw/sG7eFtOvPw6Uhjd/GxyKK4/wI8hj5J7btXzV/ufrj9Y2vjj1vk+43VZOz1Ox/ZIqHTtLiXAg6Hw/kSJK6wbfxRfDUaKFuXWPKgSI7rsIjQOnEpnIVhEeVjkn/DVBso21Tm8OuiiMLwYG2t8s+2r4VHvrikN2OWTMieJ4DRFqagMiC1vuT4VbGFifHsAZUmQjUUdOJANuhclCIbkiRpKoCtsc+yNaB0bEpl4DgaBQsdS0Yfg9KvQWdKofgeS8HvUYvJVmLvlfENk9c+DP32V/Bl62a2ufGP8/PHt//EYAsz2fcA79Gv+AmSAKEPfrJFytuiyDs4cjicL0TzrJJ+mYklAmTrfYLQG1wFDIEfq1ci8UgfJfx9vEPIaQpnkINlW06dVcT8m5mXHebJxXOvlNoXw+DPYZF47DfBpSVMIbUhV8NRjXlXrzWGqq7LVOruNmrtjt4RFF3vqqU2VTolKA1t7T7KokJXb0Cpo0gdfMKuit/Sc+wzpZauq2aNPVTQ0LK6oGm0g28xULZ0oOttSm0M0WgPv1HTLa1XQuN3BlpLb+R0VdIUvMteGziPHL+sFiqXMXjIcFa1TLZxeIGy/ejKFp379o9vAD4ukC0k2KFBJ1HgcDicL8FNVkyfbiWjgbJ1iSe2dkjhHObJHJMpLsowR+KckL2DcioSLNtM+XLPf2ftdYGchuA5UywmwY/6pu9fvzzt2n4D9BaASZ0U1KWndcElJ9nAaBslYNRsqjRmo3YHOUdxmgpukDJqAaPryNYEsJjKlVZXGaBsNQVAp5oMYI4scOl33T/GPjUxhmFOyVbOwRyRPTE9d6D+j3OuRdmGH8j27i0k/3GvmWwXzAqwDo4J4HA4nM9Nqkg2Vy6wL0AoEW4Gy5YRT2YuSP4Qpnm9Q+bY2Zovkj2+qqNqA2Wbyazs5BetojVPSeH6Gf+fuEFOA3ozkvwBeDQU4SG0hyZVGjhMqQmgW23mYwOFqlo6QEmyc6jcDhtu2yqgKtssSgVmUB1qljLEK8VEsxoY2mjJHeZKiznXlCnaXMAAW3PrjTVlLNuOI9u2hvdaitqAVl8FMO1BAxo9GwcVw9F3iy5vbFH336jzo6Pav2Zl+/petnX46V2AbFmv7rS4zUveORzOZ2bL7VURP8cipIN4MkC2HhBfyZK9hzln7KxAfMiePFTi6wtSOMmgWQNl6/ZmrBzFlh2oHoHnSpGEYI7Vc/HB33sc7qlNy5blncpIZXmqoKMVRxJzY48llSO7MZatLAk1aMiSnIMSc6c8okyxkqV2+/YuXo26AAr7oY5GLAcWLAB9ILk7izDAps6lRO9lSx3Z6syock8ZMPe2Ruy9hqSiuZUc5CxJmGJQgilCTm9GmOdH9KxPZtv8/sO7t65s//741d3t7wBfLZEtksE2Gad8GxCHw/mMxE8IOXV9tnGK+UI9GQ6UrUs4ET3D78ZhzOomWcD6g3pPQtZSOIMcLFvszVhJp8/iATtJN59nJ4LVC5KCOSLHxMObe/fLbJn9oGuZTH+DGuwalHbRjS1nEVfadWU7FLR+beJqCwfdqJ42aOeAYTFb27SNV1TQOgB9GUDVJNewXmb7bZ8qjWnZ9tyHdqlTIKV1YYzJXivRGdnW4AH1q4pYPU+Av2z9MltIJpMwzmbdIqmoVyC1iKOKWDznO8w4HM7n4ij7cJ63vlPIux0cg2WLhOH1GslegstqhSzga3BJXmfJ9gqbQQ6UbSZzuZkOLgyNvXmeS7d1kURglhcPF2szME1OnkpsWzDBMGpQ6lOqAiiObCWp5Mq2LVC8l+sMh6apYiZbMzQNoyyWCjdUcyJbjclW82Tb1e5z5y6KV+vquuwUSLnTyDaTLZXNBiCqNpGt3sG3mD18rakt6dgYOhNxY3gYkEdntg6ebO9+BvjzNki2EF0Ts9Vnem4yh8P53JSPSTE129K9ehmGANl6JFZTRVLMgMOLY+JHdnJ8QaZI0pesYVSgbLE345rfYq1/YXPh6pkt3SZOSCEFM4QeTOLnj2COnnCPJHRgQlfTWbZqsFlfC0A3tF7Ok22/xhQrWZYsDVlUH2NlGcCURu2xbJ2qqLY2GqCXBetetiwJbtiaxlQpC2PZ6poTTbtqV7LxCSVqjaeRVU0bWJZhw7xsezAhfFQsbO8VLiLJRbKdXbRlso3/8v79d55s/0hC6EOgbJtYJrVWLaw9z3kTDofzWdlaI+LlfAfHtNPBMRosW0Y0xvb6bG+Bw0GVzLHzGhxebxJxPZOJIAGyxWnmm6pYvYLHUb4g1ae/dJs6OPRhpQ7/nUiRzOd2V3ni4bu/WZ2aRWYTw7Jsq8x/+APau8By1hJ+RgdOZCtJ+KHTU3HAi3KU3LG7bE2XybatKHiptnS8RGt6spUEDM6pKrp2SAcNNl/NPneBqTmHcXYrBzqT7dBCUYPaY9LHGJMu6o4c2csWLyF+IpLtzMJpZJ+tPx8m+2yRD01IfrwNkO3qJRbxHcKr/ax4w5duORzOJxE+I2Q9CvO82M96HRwDZYv3oLlOyHhtNX6eJlMcH4JD9IaQtQjOIAfLFnszHovpkyY8mpU02X7anQhebWZFf77e+s+PIukVmKG8cLHWQ+8LHpJTX0ypZgCALOmANFjmauUAcTJbjGD9JfTxJDTtD8dRVr8ELt0R8+BwsuSqGyxtVbWJ0e1xnD5wd/1QFVw6GOdioYERQwbGeKp5JrPtDyel7li11ATkxRouTWwtzGwXVyMjvwC8vQ2Q7QFW3l2FATlkeufdyjgczv9nRSQLT6tL7Yn5k1AyQLYescSrCyIejB1+miUe6UkhCxYuV1ZYw6hA2WJvRlysXftv7kycoe6f7oGkW+vZ/M31Gx+u90XxPAqPJ8p+sVmd+/WIeFRSsABZuEc1TYuy3bZ40RvRVttsOWVOI0M127IOJWGAQ5idUqM9bOimTQWN9nBIxShN7tR0tWWaqmS0O0NVoj2z1Bi2DYnK7nNd6KDdaTSGqkElfFpXoILa0U32Lk1qdWpQ6lhUklrmsDPQLHxCRxWoYpotKkxhA2MDS5B3vHw2hTq8DgdktnP7bJF3MYh/v1y2r3Bh4ibklXdXCxdPf96Ew+E8UTATqmaWyOty3MGxGSxbRjxxWCXV8uRsA68KOQQOqSopXtdRtYGyTZUP9nEHUuR/Tok/SWLn7Jh+8CcZ2cPdTfBYztkpDEt6M4pLHmUK91BNo5MLDRdQ+yOqAwwGbbVFR3ID9P4kQtK+tQ1KBdpSu4az9cemVFL6GgvAu9K3Ej6FDmxBk4S+xAY98K5iu00YnXEMMSj7Xt/p/eg2eGQ/nCcoGO4+YJq205esOHXgLA7kSWUlYM12voPU3SuA2M9vf7lbKNvmepa8rMM9G2dp8eVz71bG4XD+F03MhAImx1jV53YqlgiWrRsA0XNC1prgkNkrEFLYroPDxg4hN5l6BAmSbT11hou1C3fWBp1yU32CTeQThxXUxCqEo+F5cBDiV5XsZhkeQ6Tqc77gSpFMYAnZEizBF23IOibuAuxKBrCy4BxA66EyXVuaLEp32ynj0OypA1QKOEDPi/bu0KlBFumH7CzLF4pvwrP/QtGK5VnZevj3Rv4IDslFW39il0VSiSRnU11RPHmGJe8cDufTSFwSsh+FIF7hEhkujEUDZesSTmBySSYtneoHB2PVxk4I2T7EnbXBss2U/2Xvfl4bKcM4gD++0xhihklm3iaTvCY6JGGSyS8zIb/TRDQRkoYY1AoquooKtlgQ9eChBVEp7MmDLOhNRBTFgxe9KB7Ei0cviuB/ICjoSfTi+ybp2CaTTpKm3Zqdz67N7HSYLKL95nnfd563rsvyJgdLamMUvWqPRta8pFDnQeBH2Trxi/FAoKrgZAesuBJIzk3dP4IMoR6cKfa0+VZ4r9C0ZSn7IB0P3hovprpr6qqnHwVmg24ScJk+iUEtiXHJBVM6bDvkwERlOzmM/J7LwerYzznHt7SwDfKBQKDJuWaErbOBsNkjvG4a9m0RbDabbX4Zed5GEH5WT7AOjtZhyzggPb12JyejRo6ti7IM204wl5DlaO2ca76qV+lnYnMTy4MAiPwoaSeNApcXoJOUZYvu944BQkURTuMmJmstPPqi+R7vL770wJNP0U3e2TJltt37fbTWnM7k542rLtEnB9LXmMwaxvXrSO4KE5Xt6bj9c7Sf7fCFfh0znbPteGl4h8GM0CrgRhZsNpttgbWsGZgT6+CoZwTJCFsLPiGLkd4DQ6eBSJ89WWsdtq10RWN71p5POILwldl8z5FTcDTtA5aow1Sd/GVELvicIaK5BZjF1yYoEZhKAIyO4a4HrD1ilrZsbvXOux6jE6bDOVw2qTrzqjvZVZfn+QefDWqqnpNgBoE9o5Mxq2wNNFXZVxOfTk6coEgHZmmWZDV51cZNbDbbFcVvIrUoLRJeA4wTaZ8wX9hyvOQoqqjCw1AgidRkkI0gW4etHNWx1pLg3Ni85tVoIu9sEN3t8RllrXllO0pi0Sfk8iTinz0fnQ/ChGweGSoczOXRV277/3j+k5f3vMRYdWyOG6jGgqbDyZxlGTvKWcuwbWvIomFU2kvYA2k2m81mpU6DsAmL6SRUZRAQG2pN4ubAgys52o1HorGbyLARZGvBuoKVzTCsgq9FkPfmlyCd6HCylmWpdWXL4haaRY14XeaTtThnctKwQH/o1AMv3vY/8cnTH/5E8OS4rvmjOqXmMGx/M/cH/W1iGwzOOFK6PFjINkjhVutWZrPZFuan5VF6ifBy50m+1SBZ4Ll5eKR0ASnpoIY0ozejlU5RiXRgVRwVhLoC3EzNPpFLLpBGeWpd2dLfvI9N3eJuEybUERqIZ/RmLGRhEU889eBtV9/zn9x3z2eKal7rm9T4Wl1kzTiW4/Kq6lwdtoW+poauxriJzWa7ooy1rIvjuzJWlEKXl+aLW0HIyQjJxXTQOQ9/2jnIKzVYoU4EKW64aaS2xjZElRzGCLJFZTtOXA/4I7jQ9sEpxbgLYGrZ2TFS98GCtp556IGnrrYnH7l+I65OPkhr0V5x6WV1GM2doOEqxkm7YbLNZpvBsWmsZV1GOKkoGDeyoo+bBw+iogZrzrmk/X1dliM8rFRWQ4003BxBnehuAYyota5sjbgFIacTq2Vifh0dUytr2ro38I2qFPkFrh8QFF0mBD3tAsq7JZhbLYEx/ZvZbDbbNLexV8CyMtVsFGOvsdutBciTzpxlbS6iyHoOVq6rolITLl/HS7Q+BwJvZCw/Z2XL/vEA19dIpXPWBx9kaKxpZ6PwgBCz+tH349v3n7HOHm82YUHBOMJ9CRaS09WC226YbLPZzNay+uH8sjqRqwFJ5KxBQbWarjW6M8psvekF4EpI7UtwufgqlisuEEYpOruynUpi41oBeiUZz+oFJRQJOqas6YOffF8mptv63P77q++8+rhwxtSt0lpwshapSReYeePdX6h33wATjraG43bDZJvNdkrAi9S2D1bB0dVwoe2AVYVtzVnNy3IyABek07jkQBLcGo74fcAPQ9SqsnVMV7bsPA8QTGAtJ8K0jIaOkeLV3XnhPDzZgpo3W/N77W0ata++887vz83+71NBC/TV5osYxdPmSfvD62Nf/GKWt4GSTEousNlstjFPF6GKA1bFlcQ45PcIqwjbYLrekOWIHy6QW2HPxVwWZ5zkc8LwyVqLynb8vcnKdnQJL9LU1snJ2qmTabWc4XQIGaJrOlkbjBLZrBGx9CPN2Vcp+vLzzLFkrqKq807dugtIc5tG7S9fvH7SLz6Y5o+octdumGyz2f6brHXBKqUTbDmmRzhv2AbTrDtj3g0XS+hadXxY5QcRjcaEEaNTle1EWcubVrbjQ+C6BRxNw1BLVxGF13+y1lUiuNIzidrnfh9G7fALG0t+DWaoRRCp8nNN1s7okHmHEbVGdXsHTPNldZzP+cBms9lq8QsYRpVyeaL0m3C+sK1lS5qsFAW4cE0vUlsSXDSui+VKB3y8kZtLVLbs6/hQosEjk2oAgI+jCcqa/oznW4pqOhd678+vjlP2OHN//1EAc5I7jwptwWJupaLO6nzy7usm3gUTYlFRE/ZTtzbbLW+4QAguANeXSd4tCvzSYRsMFvPDhUSXIt1ABSdcrFyBhJwgjYLy/JXt6KnbdBQrbcdk1qpXaq+FFcropGDWBvm1x18dR+zPt1/7kR2fPXUr9WV05uNTQpFeEASLrLVOW+iVMC71wGaz3cKkLkIWXXHON3WbSAvScmGbDrZCsnyZnXjcMtt/7uKkQ4qeM56sXaSy5R1mle0YCO640iDoFG1Nf7inE+aTtZ4ffzfi1cfWST3++6ujKvfney0K1yVK3zdfnz9smXQEy/31XKlms50HF1zTn1Sm/fhrcHGcISIPwsAvEbbpjFeR8zm4TALbfI+HC8IVFC8PHiNqz1/ZGpvveUpKAaOTCKyj8CYm3hpMu/a7MU8rwcjj9A8UPf8xzBIMIRrd5vGI8MyxAd8PZkn7N83amdp5Vc/YDZNttlPceSzfEs1fOqELb1foa2uqVuc9jsXClvVm1LB8+Y+thL0It+Bi9JRGpdWUBBqPppUtv+ic7Zgoce5SfCJs0RougRXryqwHV+9lycrK2Ndg5LW3Xz32zs8Wi41zMCmQVFVvD2b5xSxrjad/zHFdBSeCYLPZjqUjasHbUPNuD6w3voRQX4AL5y6QRlaUrl27NkzcaxSrdHn6OgpbP+Vk/nvNfK2rKNKEmyCoo4IfLkJPrmYiUbcDRP50ZWv8M19lO3GhT/Qn41XvRNjm166K8mV1dea47mvDsDUmaK8Zg8rsy+NnP0Yro3hw4kFci9ncN958Y5pk3c0Uk8HN32jKZrsaXFVMvB3giwpZ8xWEOcz2GV+YsL2/Q+0DtU0PtoFiZzzHB0B52MHokv39D5IIhY6uHx31aMY26etRmB6E6eshRsHsl0yGOnHw3a+kzwEcHOxcN2536h3ZX0Icv+N1aXhm+25YjTZG0TCsngsXpXQ1Xkl7PA5qurI16lvryta4SpBq1VCl5U8Wikn0H3ntHvqpJYm8GQCYHbbv/H4Nxn4+nr/92TJsWQgaDaKM3YHacBGccVVp21O3NhuA0Jdx3A9ML4lxcn0/hvq1pTZPv/vGw0O7e6lyObW3+/DujXKqvP0wPXh2K1Xe2aXfOqAHz+7SizboJTfowY1aNvfdZ7u7/9wQt7f3d//Z/eeIHjy7u7v78Hdf7YdfYAfXaWju0YM9Fp70dh+97wA4HN2ufPJ2o7eOsXd8gb71ITv4lL7jp7sP792QYCUcVYQ2BVg1F646wk1/KV7teTyzK1t2YFHZGmckX6AdTbboYEBSS0NOJypbh6wqlXXbvTy8yVpuw0z3s7A1hot9v7OsZT0b72XnH7deuYZwXxiHOj2ucnAWzhWeFBBgHh53nuhusNlucT6nTgotwcijOFHqV/VjaA/OIxxFJAeL20q98MKznx4cUhsbG7GNg/HB8IRxwJy45OCJu7e2tp4YX/sE+84T44OD8lYsNvxOjDo8cXCQKpveznjHU2/NfPrsjb1tWA1jI/aVh63L1QznEpEWB6yB1MzKludpySoJE8E7uYBKgLDbGy+1cu12LqrkHL6Av+ttRDdb69YhUGxrqtFg0SJsJSNs2TLk242wtdzUZ7hrQHOgoqjF/1xC5a3GBL2RrM37QU4h0fUeM7PZrNS8GFebpxb3FIiegSvI1XUC+3TtCvjAVLPnOat+R6gkwqL2U6mNjVRsbIMyOTBeZx+kJq9NWdzO9NqU+SXluyVYCX+Blf4r1cR9YJPVYiDnrTgdknllOyII4VotLAgnTk1WuiKILY3IWkFjFFnL5/XGkB7KrdWCg0ycaC0BzvLaOGylx38chy0bVDbC1ppYxSiRbStId4IFrqEVpihvdebf70neXN8xM5vNCrdJ8FS71GZVIYmrNvvFt/Iq8qeJiiilCGaSJAyz5MhSU5Iv7D6b2rjyYgd7+6taR01W0VnYXy2O9UtyvFpiBtWo3ijWBMnBm1W2PC9IgXbS603Ww5IwjtmpBVTgcepIS0RCI5ETEjpurM9uM1JVUbpNoKwrW9qu8XEjbF+bP2yZwABjUpjj8ZzwW2aUkg/m1IkoeXtdsu0WJbo1tZGFaR1W7l6lZu6BTVVVBmIzh7RoNJFHqAomIsg1u0+S5oSFeWjWbvwPxA73dndWuFy7K8B59LxEVuRjCiYjWMY4n2iFfaLpnK3kcCZpZCYSoaSb8zn46cqW90AnidRB2MGbcHDdAvGuy7PioqYkejBH2LLlUO8sH7bg1zFONMGSSzML20LEAfPqarKWXavBB5ttTs4G1lrCrO8RrX5Vmsx2oggNakDVkXuYnYjwMC2KuBk9cxCpwxJ2aF0b2/gfiG3s7e7DivRCSMmcZ7QEy5vO7H8yx7KZiCrnvW7eJ05UtrzDI6Q3I4mol0mESk5BMoLWWIIMXJWgSBo8oikBwiUZl67Sh8TliflCJVEMg8Uw8vhJn6XDtpaUiZZX53i221UwC1stIcJ8snGMNfuhW9utyJUkyhk/mMRWgTT8cAX0EjRqxylaRy1gZNQU4216UGPLqP15lXg5FrbZCpH7k+Upm6zlYRkbB/+LqB3Wtjf2YWWyGorXYClCW8OJoA/MOXJ5VdYHflE6NRfLeyRXNxGJeo9FIsWaRzIqW/YigpjTUD4jsQ1xzfE+CCZk9gHy/0/Ma7V0NNQSrcKWWTZsuaKGSKTXLGGUb1vUnAHdLGzl1ryPMGEklwK1EMYle+bWdktp1mWrR2oDmzKp3PRROUfxZBvjOsoBJahICqAoPcqhPgQR0vNIESCJENYRKsJJTg3pHVjK3anUdKqVDSsNS7pC+Xw3iKVgdaS+yj7gLM7fILpbAJE3T0MPBKqKqsX7HUk48WitxLm9kYT3hGgo2gqwsWQjR33+EGKbpAqj7DX5Nd7stkHWYepWzCsdCLRCUafvosJWyOkEjTbC84eQGgrCWRwhWZuiJB0Ac4W6qkaCowaORGndCo3qbLaRdgHr2TlWKmvyJg+XxrrVQh0lnc7spoYS0EMVAMigOugoDVBCORq2OgcuVRbA0IkjLQNLKptk2vUvDYfnLntT5Zhx26+un/d2W7BCzWWG3nterHV5cPCzidCrYKyF6mFBHF/noJO18USUSYx/scN4NMeL4ysEqeNFpBIGYereDsPoEPh6gXiv2vq+ZcK2JjiEXjFeqs2esz1P2PojRFXqHAxJmfzw3+9sUrsymFDadAtzDXboqmo8Z8tVFWw/dGu7VaQjRLPcjUPgAgIXLDYKN7GDYzA/0USwjkYaHHSMsG2gzYAEHAdJlrqQR/xKejPevbMxrfwVMlw/b217+F3py5hx2+/K541uWKm0vuCiMm5TlksukGiVeRaQnBFZ1qK5gGN0oRQMxWnCTohGQ7pfcozy1FWUh5URP8Uoco1Vyx4IDxQy+J93SR6GLccJYjAZL3ILhu0cTS1cJRnhiuvkEJKMtDOnbn2wFGeCoMLJG/e8mEQ7YLOtvfAA40p4lCfl8t1gSuJcVIDjakkcCsJNEUgi0oJT6ihSr3fbaYATYVvDCOX7AQDvcDVy6DhsPa1zPcay8/CnqbPDlo78xlLDEdzRMqoY/To+pN8o0yN2LmacM06Ozpb3VeQtxybD1rif8UztxO3oe5qJffqCBCuVk1HCBXPysV1rgz6fgxckz5kAoObOZP09z+hCCPvTpvwBGF4hCcFcjtV3nmmSMNHkkf6WIB0lSut/vbPtOGw5XuTc0ZBbXGQY+Zplu0a+WyAo7pycV0Uon4HVclUUlSTDU8sv5ao9dWtbc56ugiNpoGJPvnTfyy/fd99LTz0DU/hwIBxmHSS4ZlFh40uXTiiqaGIM21iNzHRQCQDaqAUgtiMIqU6IIvb3jCMRmBZGjRos78ae2bjuzgcfHCUQqtY+ODo43CgfHh2WU/TcTirFOj6lUtc/2CnTPCwffvDl0UaZntvfKLNzLJTp1exkjF0ZS13f2ScoGZsK23JsdL8ndvYP2Z/39w9j5Q16j9j4djtHh6aF7bO7+7BaYhGhgQPm4Y9jtmstyzsJLpM00QCS4UHKxv/fHQJHYcvwQqAV9/rPDtsTTS0kuh3B2WEruRuqmjcZAg7GVTR7JcfBXyZ2RDgD1y8gYvJhXagXiNayHwOyrTGfX1fzOQmoh1657bbbnn+efrnz5enyVvL5PI6Ai7VrcqQTN2FNQ1ZG8R5MYquRjbBNAsAmaoO7A+CoowZ4/wtbT1Zhz6+cg7T3Qsos0rbuhipCH8AWeEn8O0U+3E4QhIh3v3wkk+8jqoq/KsfKX8k0/rUvt2IJehFRSWWb1qtf4eHJ8tYRwdUoKbBr5KPy6bBN7YTY/ZLbGxqRd1JbXUK+gg8KKiINWkrT9/yKaIcp0wXJDz8Lqxb+l72ziWmliuL46S0jaWimnZlXWsqUadpmWjpACilMgaFJAyR8BLCWJtoU22gTNJJUao0L30qDsvBj8xITFz5JjKlxows2bt9CdyYkJi5cuTYuX0zceG6/LO20RXw8Kc7vJTCU6aDx48e559z/DRF35Eqj7ZPzdHjp6cvW1jBs22G31uU5d2hwFyubskU4bmMvuGe5WmX708/4Yk/ZTvkF4tQPQrYtT9KhYdDl6Fc9Pv+jp9TJrP6Ys3nB6w4a24AM7ixLIcFbb9bmC4VcpYC6xT+7Wte1ZA/Cw8jcU05wpHNNMwC9ZBsnTh48AsqWULuayWxDtsIUYOircw3+FcxzLwW6DA4vEHKuDmlBgsj37aSKXzsjdU6kc0IEb3WleYXUCGtaYwX6DGp3Ot0Erdom24D6LqkSA3zwd1oAH3B0KtfecKSJBHGjbHUIPHcITx7sm8+OQU+YHUEIbwMNNX4asnU42mTbUdlSWOyXOIWBTQhskS3CMXig4HKHH/mf3micHk9L22pF2zg8/ue3uh1u4JTl7gNknkU3mVzlQY8/UK0d/PrrH1pXqcvORQa6sORzO+2D+9uQgUGftIHGoVpS0ZSr7GbzqVQyW8z2POmDRhFbdyaf4kyDOUbkZRvoME82W/KihCiaZwd2iDsWkskMBKs92ygZxap2jYN/h3QUGOotW7p2bT8/FWT71inWCuqJjHbc8KE2wYd3YHUrfyeJBF31HX5nf8hN3OeeR4S8q50SQqI/nJ26iW+/bUAKnyLHuBOBvCudEBKCfZn4pCCRz82P8BYpRH/md0MB3b+wwxO4ARxrvZMu+UhU8I06gJru5mXLWuMul8vMOLpWts3qlqfB396dwdx12ypbCmse8YVGeGgD27ONc/WegZ/xikK/+hJ0YVbnSJ+KcsPvJivToIP0PcpWz7agg2XPSwS7BbrjGJl1O+eNbUAGdw52ZNIdHIU6SqlS2C1DP3iXBTu3LF55YoIw74KnAL8mE78VdBluGeqw+p1u+0xwBmDHKcveCMBmMA4Ai6GxuRkH/Gu0/rLFylPD5uz5CYrQGUDZ+jVatf4AIsr00fkZ9lZF4j4F8OM7Tug3JAkr1bf3CZnc0rQhgSxIbT3bwD4+b4kqWQlMEq9yjpWw4iXes+1zN1kJ+PFnSuqQPooNbgSm11D3mOieW+PoztqnIFuH2VLHZetT2eIrHLDYup2buS1JaNeSbZxhrWaEYS07wfAUtIHByG/UC9qPapUtte8LL3Y54UsUSLRvr3Rklgi6hwCperb99fst6IBZnpOJONP3cM9J99zIYP42ZGCAdNGUOxpxQINAJVdIQBN1vXiQhFYyBwfFNABTly0yKron1xxw0wxHycoUXAmHDeq44tCCB54E2lB/2Z5qQ9rZCqE4lRMZhalS2WpnboIIPyhKkESVgPYdOvK76rskfPMJytYvoVcFElbaB6S089rz3h2CH/DWH4gQ2HeTGk5csxb21a7BFnBTbPuIdwR08MQELzZrOaaZNHGTsmVd2+hZD8Xi4fpUthQOS7noQEYENmXLTI24uJpuuaW9lXkLtOH48vdacdtUbbcVZCz05StlnluXvdjVtUIH2ve//tpe136v6mUzuuXo6pVy7ARBvBVBdQYGTyqbUfZeGolQS5VKKd3y5fjErgSIpmlASeLgFOrX4bI0ZAs2zNrD9t2Nsu17Akeq2uBJoCh9ZYviU09oQ/Y8eEm2inb6aFImKFBNJFE1ID3Cd5zTQngIYqholO2C1iFbSVUURcL3y7Hzd1G20plMflghYelUwEXn2A+PHn035CferlkaAQVujplJndluZsfpDG+Ag6qts7KVNEnS2192fRiz1Rr3WCw127L9Klv6h6WZVe7YwLVuG7Jl4rGVvTEGLxGWGcYER6ZjLfkFqtsaqNpnQJc4ZjNeuRfkWsBwKb0S+I/PW3VL56Mk3WxG71U3OuPKyF3JszYwAOuy4G4fRTgw5Qq7SQ3qFE2FXVoYpRKJxIGCF1kcoCoDQNzScnysdd57owmONJvx3m3ZEHDSc0BKa8j2EToUtGirbB8pjxa+U48eyUQM+Ij7DKRZrFFPCRElCEzifNNpXbZusiApDdkuBu4jGn04qF6UrapEiVvGr4bwKw3U8+/OAiGUrdL1oD24QRw7Ms3NbGV6zh0c5qHaIO2obJVskW4rS0Pg+DgDTxCb1VOzrcvRt7Kl8PR//s7lAesNNvfZmndWxNDOBsvUilvXms8/zHekW2DrttGstek/j2Yz/pPNUMMikfWau1t/YHVb9W11FPmoU+qLmM3oX4IrQxMcB+0fj4GBLpE5ofNIgUzOhNPIxymgULe+Rgtd7XiiYJpIURkXCsdqdUTKYr0cyCfMM3AzrAnEfntKELrPtn9lS2W7cCYS4lT/lq3kRXdOoWzDKp2i2vuMEO8QHTP2b+IHu3RSk+2RTLzfHQXqshWik8ijH7AypivT7wYUbZEQKlcthp7eDNKJ5x6VrfLSq1twk9AEx83WHDKBNmtbKsmWyhYVO0E3lj1fhEylkIYnClu3LXeFypZBgMde5VwEBom/l5HNI2Ex6F9zcVXdWmnrdmEK2nkGi9vuzVoY9cnyZEdNrCoS6NNMcLRAB+r+H99T2X7/x76ik804J+O5nf9wctNIcDS4Cyz55KjeOSj5nKmSMxWKmdpXlUIlhQouFbCZuw6gFQuFIiDmbQ/fll6AZ03fRPU5hdmMt6m5RhOk9GVrry4Ia+jNU1WtbcvBDyd0AkrVULYx6VwmFPepFiS1y3NNOxFqzdh9wHvsKNsAPoGcabRR+4jUiZ6SOieaQq/t0pBy/93aO+9rs0TuVtmqh8/xcAPoJzjiOqN30dVQXWdluz6ey6bz+WQaMrnc1WSrHhTLUC6ua1AllVhXQR+by0Jla+5X2TZe4IDB8km8Tf92/ZMBKcuyPyjGhq31tWRuKhacj0M7mGXRrVm7veAlOmu1qWIxm8909y2z2C3BUdJUVdX06mGfm0Q3OfiHbPuNBEeDQcezgIeLxkGP8gHdamvKZTWgln2tkARIVSq7pUJCA+W4gM5FPBa2Y1o46vaNwRPGZSfCKtwm+Oce6NeQynk4fKIMKd+FfzhShtQzMSqenYXtZ/dj4TOMkAqHzxX1zP/u5Kz/RBsKknfP/LP+MxVteBpemQz+QCOn8B58QTmx+0KnCn3kWbjOI+1cjPpOzvF5qqIGCam+c+hRMCouYrgU/swulW3g7RvZZquf4MgtOwX7EvBosi6VbXE8AVXqsi0n81I+GaA1byqlgR6ZwkQKUhMlBaqsP18IdFVRbR35ipUtUm3dCgv/+SFW19r6wzBTi6LoW5yqF7ecddovRjqM9tbLoIt5s3bmThtS8oJSXE+VVegCTXD8BzvsLTGnfM0G7AwmOA7spmgDA+CXvc4eKTr5YxPVbVEDUGtyzZoq2aJpN1MtcVG+wLhY6CB+z+t+sjMNLG3W3ra2zT42bXVRpWqnVZOk6le4oqxWX5IkFaVX/ahqQ/cDGiYzimRSk/CGqqWlwH1VCjTuoS+oeEvtqo6GrdrG8wL7URIdojcENIW+s/Yz9VG+eIWDm4ebJ+7lNdEbnHFAaznbvLTWZHswXsq3yLacG1+Xjp9fB4DsRE7Rl22ugLIt7KqAUD2ntH4bwPtWtq2ZUp6Yc3JgitsW2SKsdSbmC4aWLRzTSHAU7cOgg3424+wMD21o2YuLx48Tjy+Qx8m0AvqMtiU49jsdN7R03b9hTHCMrvJgYDCIDM/KK9PQAy2bK+RyE1kACcvcA4DiRKmcLVTykMZv5KkFedBjwy44Gx2gJ5PNuGKBW4eGSu2P7sEA9RMJlIBIogG8oXlroP0Y2m7Pw0+LMp1nbn+nPujkLXgqeKIEfQvVnbXdK9s0XTMJ1GWbkY7HixIuLRdpnMr4QcteZhU0JZPJaJdlqykKHWYGUPFzJqM0WowUDRC2RbYNy/eqbKubbldnvfdgQGgLtWBY15o9KIZH4qy1nuB4TyfBUT+bkabGtaOia7Nq5nEqna35NptXoGuC4xV22LORFZmsRPrb8ujBiQRdExyNbUAGA4grJkTXWOhNOYG1bSlTnT5OgFoyHUOyUMhCCjMvMtCDUSxupuGJsLFCsxlvIxq68F+hBGaJ85oPURQ6JrWlXPV2CZ4SYa+biGONNWSrfs+WzgSYSkmJOrSUyY4fa4AiLQVA251IQR3poHAAB5VcLnec+lu2CijHlSwkK+jnbK6YyOVKWXpzdrdU2t0t1VTtsrQsI9fp2rNF1fLWEb99zzsPA0KbbKluN3Z8orgwyjAtCY7xfid8OWXd/QMqGpb2j9LrAdDSyapvE3nQxVVNcLT1kXpIkK+W1vXgwYOHh/sO3YcYCY4GA8maNzoCfVGOsbZNAdoVI5LLBdMBlHOFYtW9GvRiRJDd9u0nMuNKlm9riMzQV0P/UrcnZydD1yRw9t3Z/SsW10MKD08L+2w4Soh9o3rgjn5lSwms5yYmDjQq22ItrSxTmkhDuVKh19njRJ6Kdx2KpURxd6JSbspWg8T4sQooaAlXo02V411TIY1iHi8kEjjSl6yvIzcHpDoV2/FLAM+NxoJ706vOwZVtVa/3fEHf/AbHNRMcfZEeEsQYJ+IWl6ATBe2aBEr+sQpIOUvbt2rXBEcZExz7nI7rjLngKpyewP7Jqw+Puic4DvTZiAb/RyKTC+ErLP+sT+RodzZdMmEBQkeStV3TrrRuwpqjB9thQYjZ3c4dF/wrHDSb8bY1a//m6LlDXNT9N6iaev26WLviQrb61YMjeGr4Z2ciIYHI81ZgrF0rWyR9XECZZjAZtG7IYxMWrOPHQ0kIlMbH1/FjIQ+qKtGNQsmGbI+l5HgpQHu7KNv1iWJGqn43barkAVKmXLnZtOWuUNnSa5bfXhTty9OjywMtW2zVxkfCQdG+5mkkOHo2xfAU6MPPBAUSXQMdAg3XIql1RU1jQnoSdVu+UoKjfjZjaBSuhuPBPhzxpw9PjQRHg7tCZHJqzC/2DeRPmHJoWFB2Tbl8wlRSUL94dUAriK5Y592Edlfw99DoGvwLhidJcAluMSevvPr20K3npedeZeCp4Z8bY8bmV9zEi2UVZ+1W2SJaAnPJFFz8pTN3SHLiGA6eX08noJzbrdCP1KqU4ngWhuqyTeYqaajL9gBfp99dh7xpl2oiN9GobC1xoPBMn8qW5V2rIf/m9MzI8OZgy5bq1rPqF8XwtJmr63bp3sridrdsRue8GXTIoGtT0OBxIptMpTVQE/hiV5hVb5dz+RzT9HTcCFyZ/UN2C2Dr61MjwdHgjhDxTgEOLdK8GR20jKJi1aVk6z1bqVioHOyaigCQx6q2WMCaowu2yCSZrHWDmR2vHJyCa2LxEeG272Xfx9qWFpmqotTmlOjgE6K0XwQUZKj1QtG9d0jv3v6P0//R1WHmwOErhzZ4aqBsR+Nxz8zeHCE0YsjKdKts6W5blG2ulD+ubQTKmI7zJVM6u4vazSZKWpr2KrTscamUM2XrlW0F5+NT8Lds1+uyxe9mFSVL15sp8W2PDSg2lrV2r2zpFtsZu3hvZGZ65A7IFteS2aV5XEu+N8U1EhxH7cFlprPPOtn1zJ1y8eIiDw3Sj4uZunUvstdIcJyyC8S7aIWrw9eWYY6+3jISHA3uBhHvGMdw24vBBQt0kjThsMnxcQk7tqZ1QLCexcssrR7wxVIll+n6nwKR/966ux1zO8Pb181m3Lst2YzdYXlJVe4fvvTS29UD2r/66qtqqfs2XtynF1+1XmTwc+OWwNv69zZv6f+4oX6Pe+ml+wFF29qHpwmVrcUT347YvYTEPMAxTGc2ciCVLpdTJZRsIJcL4DBAFmhAWSVRONYSFfXAlMmaynnTAa1+cQiq1CJbOqCHZMcvyVZKmCYqlQm8j8I3E7u3Rxie6VrZ8uzUgriwRlV7N2RLd9kOL4hiaHObtda+jq/5Qpe39nAY4UG6xTgFihfFPDRIZTPJDFRJXmD/tvdQJJHFsXapy3J4A/4Rp4c8IIcPoRsRI8HRYJCgssWFJpo3sxPvlO14gfJawUT32SIpU6FSK2el4sRrlYmEBHp4YtXZmBamRHoi/YBnM/Zh/89XXnlO0TT18JXnXnmgaZryKl68hBf3n8OLfUnTvsLPr2zhKyd48aqK9z7Ai0NN1bboLV/hLUevIPfx4iV8Qe9x6t+P2+/yOK3xOFU7ws9/bklww+jL1oK6XVr2OYmwaQXW2nHqT3KcpjVOlDKAok1j75XOIOOnSgH32+byu7uQn0gmUZ152oWly8jNnm22gp87Ktsyri8fFLNpqMK4+Oa/fntjrI2z6lW22KydF+2r06jaOyNbhI1H7GLQHnGxfyc4xqZaY40xm7Fr/yiF/doW16qQSkGV9EWxDD1xYIKj3PKrNbc6R66xW2frgQ0Q28N96IYZT48wEhwNBoWabM1WHFr0+zryZvKlHLoWQy2OkxJQ1AR+faABkt8t0EkpHaybTjI7A02apwHNTdv+aTbj4AQMIBy7dVT9fHR0tAXI1tHRvg2QI7yQqofNI4CwLbcccY1beEAat/D4udvjkEuPs/V6HMfBzaMvW8TlGpuflUl0xAFot8uVbTlxjCsn6xmAQCKRAfVg90ADyBSpUBO5YmEdlEoiQe1qKkkAiRbZahiIEeiQbdp0nEoPdR7stBTCnH4Lj76/XNparRyY13y+eWzWjtwt2WKrdnszFBQXGgmOXDXB0dVYa3IS5z0zdCOPm2ozUCOJroV0FqoEWlaXeyc4Wv/OZpy7xk6C/VOocvgAumOxC4KR4GgwGFRlW8+b2Qza2zurSjqVSuJkhAR1tHwqDTUC+VQGOuGxWetctukNTDkxwXGQsxkNriFbLG490wtRQnwbYGOqtPRssTyXoAWp+mG3UMaOBa1dpQTWvmlI43azZLEwgbKtVGVbkhRcfdZal5ET+FEqmkyF0kFKhVaobP1+n33NzHNtg1E8NxMW70VwBXlAZbthM3cFExzv0QTHJbaR4DiDCY5MNcZJlntGPikJTLAI1F2r0RfQuBTtMZa8fdmIyWRuml6EnbKAUv/nnO7Xf4/8+gh6MEwTHI3WrcEAUJVtc0P8YnBvG/4FDge4loPBTRdeUoB/hwdHHQDLYig0bb56NuOe0ZAZWJqyRTzmDdq6lfdcYGuZRtYnuZ48mDjWIJ8rHAcAvWpCp0rZCq42001BgWaCFN6Qxco2Qbf+NCrbwHFufX13YuI40yFbuz0kxmYYvjkZ3WjWxqrN2sGU7aR3Cjhzd1jrNCY4+lctbCPBcQ0THKvZjMMO6IGETs1nFbygrkWkbBmqZC8ea9CfUVEm/hkMlrpu5bl/+vBrqHVtt6AH3GrUPRm5/WMdBv97WmQbp1MVYfHfjBw4WBvj4lgAWw3p5TefkWwNeACW5cdWOejPsJfM3sJsRoNryBZxuZY2RTdxrrLAWHvLNjGOM055vMjUogHLeRWQTCqvKWkFpHJZBbWckfCldBkUumgcwNdrH+m2IZDypfFsp2wRH63ymq5lHbgD1b9MV5AHVLa2sDe6Y3aYu8OwnjU/TXDEdAsKHYZcccrRTRZ6k0Sn5rOalKw3kJpN29RFMXC1yPVZt9cpiCNwPdiHX9fatdLhwxMeemDdizpXBmayw+B/S1O2DGOttm4jvtC1z8ZjrbyNxxqWb7iW+/nDX1je1gS/CVMkOHOVbMZhMBhgmrJt6nZ4EVu3c6PgYKy9ZFtOJpMZuCapiVyaBp7pyhbx+3wzddtyvDni982PoGoHVrZg2/G6V6axWu+l2415n4gDYvUER5s56I7OQD/yF8UMpLKPk1AnXb8qX1ykrxpm7hZmObgu+yfMSf3dJ30OYV6d9O6AgcHtpinb0SmGq22Ix9btGFyH0Sh25VqRfvrwww+/lGyt8NyiV7ZboAfmGCGbRjzMYNMmWyRuGYlNEkJXFRkryvYmUBMTpt3dAp6UoSdbxL+yzFZXkB0cruLs0WbtIMuWDv4Lgn+MZ83dYZnRPV8wtLPNVOXrCjrD4b4HhGRwEKq2mFzWgDKUVZsLzHAFGDoq7BR8M3B9bDXHnj74+gS6Y15esHsXwcDgdlOXLTsmhlZr+W4cs7QXXPTAP2XbLhMLXHLtp29+iH9evGRblsbWuJ2LcegCH5FJyGjWDjrtskU8ro1VmuB4zwPsDckW1GRidzexngF92fpCyy46I8XaNhbF8CpV7YDLFmDMJ3j3PNCjuKUJjnZMcBxjqrJdcc5ERP8oD73QqFO1bLqcxOgo6lstmWl8Y12CfjhodOOmY2aFCF2z0bnTmkv39+Fv2E+RdwDeQVic+XgRAB5gskVXuOmQb3WA8qwN/rfUZctt2MVgI9+No3kzq3q+653N6Jvi+VbX2n758M033/zwl0uvsnx1hFDoluBonSMrtzqb0eCaskU88amdoECEGx0flagK9GTrD2Gmko210mzGZR9mM6Jq74BsgY9E3XOrDMv00q1lORRcq8tWGIXtnZWFJegFDkLV9vtomVQ2m8yrqTSouDnh8UX/CSmabOHes1B3bnqJoJ8HKT189mOG1q0//ngCDV7/jfLei79UP7//zm+v07/Bw4dHXX9STFyc3lgbtH9mBv9DGsvIjGUztCLeG2NY/MJqi6+JNG/mqrCRSRId4YFnW2X7MrqW8ozULls6QigHx3Qf5Te2+9wF9GSLuDzDe7Nyx/9/ZxbhRtlA2dJhZCvQbEYr7ilfpM3auyFb+quuVwhOs7a4uSscMxXxWOuyHWY5bqy56VYfHIRSUvm6FzP5bPbx42w2m09dYGRy36Vtmfim/j7Ek8zpneJp+/jHZw8BHB//+ONDfssGAIzyzje/sOyL77Cvf/M6Vra//PbpN+8B5eiE0/9Ji8FwZGx0yqhsDW4/DdnSEKl7tXw3hn7FWuaDCxtwNcaCxL3DVSNoW1z74s812X74Myu1yRZx3ROEBWPe+M6iL1ta3Foi4TmqWxcA8HGX2cptLBChKoK4x8w7EACzZSkOjmsAriVPvDp/5aBYPS58rnXK7xdDERfPMgzPjsVq2Yx3R7Z0P6tAD3ntVdzSEcimbGsxNuIIA90oo1STgdaD5B+ntdpRQBL0gln2ksnIpXVu4hbHdGT79dcf8FjYPvj4wf7HpwDw8OsXf/sNJYsF7jefVsvcT39D2VIcPHRiXsVh8tHR4WFDtgYDQEO2CGudiTXz3VC+Sws6v/rqZzPKMdRmu2x/QtfWbPtTp2yRJb/g3DFOpbyjdJFtLcFx1T7rJYK4bGE9kQX7LCGT4YVYLOyPjbgYhqGHjHtnI3GOuQaca23WOxtenDY7WPwyPrznt4djYV9oZ4MGSNls241m7Z2SLcBw0D256LJx5p40ZYvQTbf+GeiCWrx4fEmrqTKN/Opb10bmMNPGDJcYmSNybLtDtg/3nz2Brz/e+uDBKV1Jxkv45Dfkl0/fb5OtHiyuT+wMjw0PG7I1GAiaskUY1rVmX2nku1lxQ7xfXGOgN8ymQJrBpzb28nRUFfz8lqQjW3BMz8pzIw4wuIN0lS3ico3O+/2zgkycs0GBEFkM20OhYHARJ+KtLHj2ZGJf4ljrtWBZHMCTo9gSYXlMY+SwPyKKvr0xzkFXkOOrqF26s/bOyRbY1Wrrlr+ibBGOwxibhW3QRcpeDmakEVLpYr+wxiU/IWELtMPNY7U7b26vbOHjr49+POR/RNmeVmUr4cs8riVjZev4lH//t2+xZ9uFJXrQ/9josCFbgwGByvbSnrwdnyguLnFMVbf08L2xnjacjrYuGdnYtukopD4j1SlbhF32Cv4pMLh79JItziV7RmL25ZFN39zkZHj1XgjxLYzaeIYDDlchg1PAM1bmWlgZHsZ8snMW97rwLB08tmBTrxrUyDPTdrHarL2LsqWtGSc95JW5omwRjhmLrWy6usRaXCQVaJJOQj5xkejpWs+em6wM638rTM+z5dtke/LjBz/y3I+v7v/4EMO8P/7Y9g6OIn/7zXvvf/Pet9/89stv7/z226cILi3zcAnLYjAWoSvIhmwNBoUW2Tb+67vnW2nku2GWec/W7ZJYHXXRk+2XtUnkT3+ufn5Z0pMt4lpwuvfiYHDX6CnbbYvFvL0aWlhygDUOYJ7emd/BdV+GAX5mjsyNsIAlKhXnNf7gu6x/sXcuL+5TURy/tMRQGm6SmzaPcktKIpM0tKEzTGMftiCt0FpLEd0oMggudCHoQhEE8YGvheJGENy4E8SNglvBvQtFEVwI/gOuXbgQ78nLqklTH5t28lF/0474ExzbT88993wPEuuXF51Laak3w8vHhMhRNqMTwGTtucoWoZWtdEYrggtlux/o6FpLnN20ZfnIjz2SJEg99ti3hzf+wM3j6zrOv9nBZvoMlCJ+8iErZr9+Asnvvode/+TJDz/8+pPoFvKPN+QN+PrbG+iz6HbyZ8+8ivYQFpa9UA2eL2Vbcjr8Wbbx/h/PoV6/iuGZzKmes66iLHQ47tsglCFb8/noEPkD6NzCHakbM1u20J9rdRZl6/bcOCTbZBtQw2mECRcYuqsYCyKcQsKnNzFeM/8viHSLUXXdvejOAp9rJtmMtS2VwmzGM5YtavZnLXZe2zxathDoOKVZMTYmTPkwv9774CN3w6nyo6yJe8i1vFNpjasoH7Jg7dygjRJEESHChSGv4n0PvfXWW2+/S165ubnBoblvCH7jxxvUvGHgJm6iFOzb1tA3VL6UbckpEct2HwHiVKN8NwGeCXXXquOMl45WmakIZcmWmNGI7femiX+IH5FM2QL9K8XxUclZUShb0C0/osMawVwIRvqudeHVUPT8P1S20e9WCzTlmvWBsQjZjPOl627hBPm8ZQuXgWHJK5aFYtmy/1DJBpLZbpURbPHsA6Fv2U2pZx+DLwdCkXt25UKaoMMIDa3S2QoZ0YzvAp+8hf4Mxln/ppHT6MdVrVr2bEtOhlS2+8jyZGjNkjEgAetTx1bRn+GvKp0lRtmyNe94Lq5n44tS77AaN1e2iNt2L6QNKjkjCmULzNsD11pWEYa9stxCq1CjiQSQ5X+sbDlBEMJDE+XKmtYI4vh4kV4x/Mm/ces7RXFVgucFshX0iY5DJ+Pc8yvzkQd/uQd8e9i11UYLPnkXs7EvKrM6QX9BfAogqJj20PGSZq2q1uulbEtOhQzZxvt/AodKgzkWojGgxmxc+9NrpnIBWyqzZWvK0Yjt4yYRzfgg+UdMcmQL1EaKsq2ikrOhSLZpguOWSrxMSJOfVbpLGeFYlv+xsoWHchP3Z6x16/V7YzqCcZ8j6BtDrYFOnJ6ldIIaEg7LllvA8ZUcN48GrtXHKAuWIPX0QdfiwXWywroYf1ZpuT307xCWljvlVT7E8Ie2XVdL2ZacBpmyBfC87lEn4IU4wdHwnHR6jhu3wjz5PNkmfjXxjfg8icItYCFBnmwBg0KCY8m5YF/1uFoxkODYcILNRmpBs3a/pI3F+Q9JJR2ChOm1cu1YrFl7nGr5utftnP7/h6R+1bqeVjF3ULZTSq3hSubi5tHUkVSUzZ2PPfDgXYf0CWHq5A9Mk/2CTIDs0UQMcdplWY5t9M8hvkSHfnKCzE89y7IHpWxLToRc2UKI1NSeWcOJLFfT5XsYXiwsm/GKRyhPtunJ8fPm43eQ7+8wH0/vSOXLFn7bK0hwLDkPqDZuc+1NrRi97Uvu9YXVRs24Jt2vUf9tZRs9FkQkeErHGvD1Y+D98ZXSXZ/DdT0Olu/VsTg/cIwMVyHDFBshbh7tnEYN/UNqXqXiQrM2zWrFpok/uCHmzWfPPPOZmBFoUw2UyvWUQ/+QSeAEdSM5QR4EruXuBmp5jFxyIgw6q2Y1B07ujSm1421AHG5vndEKshm1hYjyZWuKye2omx8eN7//gZDkOcmXLSAMNWVXJjieB/xMuxzo1eOKWz1oXY14mYAj/7/KFhCxsZt1aN0/qqydOkpnt0LnwWakKfYEcdmyTdcTUDri47NkmeMlZ1FF/4DqUGPjPgggYgQx8Zs/vonNz37+9NNPv7t/f+kXSb3pVi4uffRPaG+pt0yatUZ/bLuWtygvSJWcDkvN24i4mgMW+IDOvH411u2qYUmKMtYROiDbpJJlp8nh6M/jyRzQHeYh2QK1oHs9RSXnwHzcVVx+fpRuq+uLYElHKiac8H9WtkRkxdpO6tBB8SGyzw9sTXONM0o0UyHBsU3kHNlGtzHGlmON4fgKwNW65dZFdCTNJWvWLgS0L1tTZJZ902TvAp9+9+l33/363Qcm2ZNtQv+yciH10LFwYbPWiFXrryXLkoa+UY7+lJwOK1fpTqsot7jF+kCCbUDRWbIsLy+0NcpFxMkCAlDr89Gc7Q9yMmwrkwLZIrnR6ZzDIV4Jo+1BnSi0a4XMtxdDUR054w3Bwv9V2Qq42YZNerynHSFbvh90lcsBRucEXkYJjrmyhfaQP3LS4ytoHm0d70gJGlaaip7K1pR//PRTNvLHhv8+Za4F275qZsgW4W230jly1yJRJTr20xPkxci13EZdVcs525JTApZhXvZlLOTqdrO2HGu9keEZ7im2F/QOyJbEZv0eXm6hbNnDdNi2QLbqyKPdcnH82cBT1gFtV9tHyHbM6Xrdpos5kTnGf69sZVKtu7BJ7xjZ+v7wUumudXRuzMday+GRLOTIFnSrw1g9LLOOdTvZwehBIZvRRZqKnsrWvGGu/flVEyLkoLQF275hklS2++he66K7kI9q1u7SZq1R37muO1qqZahFycmhNzqKbWCxmgMkONKZ3RfgsdFatIPZWM+TbXo76obN2oayjR4nCwkOyXbVcALe65SyPR/kQVeZ1XXhGNmy3u1mQe0+15SFvRo1+jMFnmBRxJxwqLIVOCKrI7qD0Vq/ULY+v6CKNjrPSe+VpGjehOB5tmyj9tDQdaJl1vHUreRMBXQQLmzWiujPsjXxj58y2bI+LSEf/Qy1LfCBmSFboEcvKtRvooPoWyr90az1hxK1vDWcKJeyLTk9NpLSGbdRXnEr4Grfu/R0IZTtFHF92xlw2bI18Y/JoA88ANkmVS4MA4kkV7awnHKhTqRStmfFvKFpkiHoxbINM6V6Yxr0sLivWmC/wJXFKvsnIO04t7IVMFkNqbeAeZ9i2fJ1r6O4KjpX/Blr3c5RtmwBQRbUXbTMWoiez5eW64sol2b9stIaCmgfwlxrvvEpAHY1zZvHmW6j0lYkkWyzFvIp0uqQ1Ouuu+b3xn1cyx7Dtp9StiWnierAWB7hcnXbXvhxZTsVBTzPWYT5x4hteE0qkS37Et+RetzMkS2uuxa8poxStufGxFY6jU1VL5JtGuHoDDciTnWbOjT6RSZcf+d5waBK5LzKFhN9wZq1kINcKNs+329cK1f1c74pIC+6rcuBjIVM2QICng8kmowBwfPa2hkZKAeVNWu9RJH7sv2M1bJMtj9iM1Sv/GNoW9a1xSRbtogbdyoHrlzyyWTt/rgPqLaUbcmpwk2vW05fPjAGJFQj2a7F8BrFGMaA/sreAoIbeBD2bMG9+I+FBATl5J3CBYhStmeIyF8qVwtdKJYtMK/VwwjHqHKNSWtWgns7y3JdiwY81+Syqlu5yfVt2KTXrxfLlve3M6UzPPfwMkhwtCDBMVO2AMf06jrhMusksjVwxm2UgR609pq1e7Il4o/gWrDtB6Ypgm6/D237pvl+eEsqOz1OalUulxhlsNo5o7qxN+5jWd4CytxStiWnjL7TFG+SX9xWgbCyTRZhOn+7UBIeFzPYufHNj8+9805S2X6P/xi+NbPyTmmUd1rK9jzB045G/apeINs0wnEdRjjunx5HjzFhRrBsiWFb1nhCMPc3RNILaLAE1RbKts8PXE0LJuj8MWxFG9WQEMs2724GdYer5CxZ8CVnKfz9Y3m30skatCei+T4T66cR39+EtmUz9ux7b5jvvxnKNn9fEP27vfU1lZJJWmbYteRa9tBn3yhlW3Lq9FxFC8fy8khlC2DBd+lfRiXMx6PClr3STPOOH+PKFj7mgnwZoF/0F4QFtcMLEKVsz5faSNO8XlUvlC3QnhsNZ9cTRU7Yr2wxmQ9sUG2M5S7aBP+5thXJBpq1oNoi2UI246ir0PNt1v6JZv+ydb2ei2K2bAFc7Y+oA2NAXBzZOqB2v4n2Yc1aZaijDIgYftSOZfvOzzBfC0ddrLS933z1G9HMlS0SF9eV1l/OpeWBG07WpuM+lmU3wjK3lG3J6SP6l62rpYCKZLu/CFPdfy3GI7ZQyz4P2/VC2f7IVPsBK3ABGLZFfwJHeacqX8r2vJlYSndYE4plC8x1X3K2bYTjHfIAkfkRdaU9XOrVq2jPyHITNukNoVlbLFveH16xPO5zbtb+GW7dZQmOSM6VLbykF7ZDR/0qTub+hs5ost9/r1TsCcqEwIQfENsWrknBJQ5W2r6EX/381VzZAsJOq3T3TvObhkQb/h/jPg3bskZL2BdfyrbkPBBYoirlMS6WLcDJq7HT2KAUmPYB4AT5x+fNH0PZfg817juxhVnX9i8jdHQX3i0sZXv21K8UluA4L5Qt0NZrS9caCE2Zi8GThuXa0p+wXRqokWdjHUu0Ac3aYtn6/MJROtvzm6wtOF9QJMPNkW0aKUVpoydzSWRr4AzbKKS9UyqXfZQDgak/xleJbdkEEJS2nzLZvvrqS+8fkC2wci8urgb4jynAurG33ce1pDXPnpeyLTkfNh60bkVcJFv5j21A21SPIqtgQasA022cIPUje5yo9nHZzG7WqkYp23OnOu1ECY7FsoWz5MmWerxMYpH2XCplYM3UuLlLcNqsLZQtZDN2NO9cYpCPx6BK97pr4GoumOMDywmXWSeRrTZdcGHjvdJZcihftneAa1+Mbfvcp2GIjYl/ZrYtlC3gzy4uwgms+TqerAUM2O4Tj/vk0RuUsi05RQwafuI/LFthYsgcfJWrA9ft4+T1Zj6f6vad6IIUfE1Vi02ToARuYKUjdEZ/4ZeyPXtqcYJjoWwBXVcDpxElOHJNf+ZKGbiRbAXcrK2pFI77FMuW7++uFcc/oxjkoyGDK63jw0z9wYhWh3r1OU6eL6jUM5zKxcHFeASm/f5c2oomrCX5lFW27/9aLFskrruVzq7Gu9aW//O4TwAfyfPw1c329HcQl9xKIMHxasCJQr5sOV2i0xrmohncdZKmKmKYZf/+h1ivkWyTqvbHx0UTEqQyRuhUdeHRtVrK9vxRHeUaEhwLZJvoti/RqU4w6LQuUfdvqrUC9Y9sxrBZWyDbNJtxwKHbSdXWLpcyPqjbzdalcEIvC0lk61WrZRsIFcg2rGxfSCpbOEc2Ccj2gzeKK1tADzSlCzHI/N64j+vBvvhc1J4fXJ/BDuKS28l83GlZPCa5shXmQ2cGn32FdBFmO15EsK9bkG3Swn0c/2nF3mqXdmVUdbBzqbQsZXsb4AbXcYJjsWzDBEfLrQtNWZCb7YVNbWkPm0r1KgzbNjneow3IZiyULTRrLU1rzNGthfOUFvXjfNb8iFbLgTEguQogtaONCQIOHyO/9pembXSMfP+bL8WyLWTZbXmT9AQ53e6TT08dXiqdHUElJafJxtO0YIOE3GPkeV2a0Z3KydEizGgkj2ARME0ZdJvKlqn2DvbNvQXS+l5XBj69UrcxKOdsbwmQ4Ggbgl4oW0DXJ0M6MiDBURRXa8uSUix3XSM4zGYcx9mMBbJNshltA91qfKpAw/pAcSvIsFmeSks9tK1c1y6lbbtAts9Hp8gvJpXtD3CM/CostX3jpZdePUa288XIYbKNj7uW6XafXIwexFpLt/znWXLi+DOlO9QJl3NBSoimBIYTmYtG9AbU9UnzjwXSj/8Amwdg6084aLu/0xLXLXeqGn/spnRHC1UtL0jdGnqu1hlDgmOxbEG3fEDHK0hwJLg3ttw01KJHRMhmhEV6U1BtoWz7YbP20r/1ZZDMOkXRqzuT9AVOnZHBhbJVXDVwptWDsiXR6M9Xyajt92Y8+nP/S999jotlC5mtA+nC6/GAP3Yt2O5z8AQZdhDP+qik5KThFmz5Xp1r5o3+yHJvSGfJJkwO14YzHY6SI0zQLVS2TLUEVJu6tql66QidAcPqVFr7Rjn6c5sQ1SjBsVi2wLwdLt+DBEfEMfMy31p05ENco4yEum0NYdynWLa8v55p3eltbdb+iSrrFF0uOVLNR4YxoOuhLISytWS40NgX82XLxAo92/gU+bnoFPnmU4iQeum7Z0xSJNue5zT8lVeJZKsOKJXg/mQ+Ez/oKtfr8udZcvroDa1lG4TLli0EuvEjh3p9AUevTUNV+ZWgtyP0pzYvr9ovv9yGbyTMhdWYjgZJs7becGl4q7+cs71lyNOOAgmOBbJNExxZ9dqXm9FVqECSRos5XJsSsTGiQdisLZBtms14nov0/gUTSVMsFR0qbmWhP+7Fla2l43A7wSRfttE5clLXfnoHc60ZryKAlu1h2dbgfUFVe15a2Q7HcKkjF8PYQrO2hkpKzoGVrWjBhshZsgXCKQGnYXBy+Kxd96ytLmIuQsbsL3k/t1asDa2kWasa/aFN3R3c6i9DLW4ftZ2ijXpVvVC2QHveGzuBgQknYFHfbHQRC5wYNmvDydpC2UbZjFYPlezfDNdGK4IPVrfcPJEtFy6Wd4a1PNkSAttsv4td+7hJYBFBvGWPkIOyrS6sKLM1li2gqgdVO6WK5t6GWOuSWwKBRNXpHGXJNpkKcGfJCDwntxeup6I8iC+5yQidwa89i44W8LSU7a2kZyndbVsoli2g677nbNtNDCHJBEM2o76w3C2M+xTLVmXZjNrVQEQle2C26+t6qzeFai7wtxLZRpEXNl1y2bJlt6HSRQRhIDoOXcuA61EHZIt9OxqtTWRbgK9O6lJHmQ1uffO95Kzg1p3WrC9jIUO2caBbgzo2bMKM01RnwSq/KdM31OSqoWVJW2jWlrK9tdSvWYLjfF4tki3A2hED21rGe2xlwvmwSA9UWyxbf+Fone0tHvfJQ4fW7QDjfN3uyTbZfGu5fLZs2ajtz2+88eOP37/5KlMtewKuBWDnT75sJ0H0vnCsbNUe37hWOtPynaLk3IBEVbsnihmyTfb/jJxZ4AtYSJbvDedZTRkHmjL7zVroyZSyvc3Mh5rm8ngKsi2kPV9NqeRD65ZgI0ibtcWytbvaF2WzNpONpCiuIYpHyDbdfLt1gkmWbEUiPvzTRx/ciKZ488FHP0MDNz5EPiBbyGxN3whS2RZO1o7aqKTk/DAspTNuIyFbtrAsZGnPrHGUXi7gat226jL6E8LSsqeqkSSLS5YVRbCVsr3l1L5odYbDi6FcOwJdN3ZOY9JEmy2VYNznCHivw2I0eFSSQ32mdIJVUyiWbYwM2wm28wzZiiZ++J13fgbeYYBrGc8w+ebJlhu49hTeCI6VrTpZWprmlj/PkjOFLFhzZ1ElYqZsQberreW4aYKjvnD+NGje9G2aNGvVMFk8imArZVuCPrZbHcViAz7HMJ/zX7qLwRdfsGYtk+0Rf/SpdvUEKvmdvbPpUZ6KAvCtSMgEUoEy7ZTW0pSJLUwHZ4jDx4CTEKYJxAxICElDmMDChUkXhIbEvQvdmLg3cWU0bnXvbzDGuJjEn+AvcOU9LVQcKYMfC4Xz5H1feuml72p45t5zzznhRNuFbKGbeC26n2xhnIgltavUM9kCudxXtIQUsHLtrz9+Q+vZhMj2NJb0g7X7ypY340VVKGOwFjlgoIKjXiLvgGy3wUb5jLxRwbGT0fvBxp1Z0fu/B2srmuyXYEPZHhfVH4aDPzOcDT5/9913P/ny2/2YfPv+999/+sWbe/L+J+++++ZoONjJbNwkx8xZRaCtblPpPWQbTa1Ct/dBM+tAtkCOfAAdNUG1wI8ffbhZ0OaPdFbfCwC/T8zWjPXLHPS9RZBDppPkuP5VtpEOqzhzFy/qGxUcY0m97Ynz7EEuBrUZ415txjgdomyPitzs0WW28/XX7733nqQwyn689x7DwN89Ufaa3LNG5JgRDY6DnPoXD0idvJNKBI3lN7Nc04FR05/99PMvHj9//KyizSZn3eB7AU5xXL4oW9Hsvs0JNUz3QQ6fmM6p2XZIGvyWCo5xzbgk7JVstNeZtaWHpGxUwkuw8bco28NkuGD+67Rm5IihSX6cUHn9tdRO2UZPiklIPFg3lpcbQeh2w6mQ9fMhhaUX8PY22abihtEIVEtT7mul3bIVzXtDEGSeIMgRkGqUhbfFLf1CQio4vv4gVypyfV2bMQa1GYsNehGCKXbfUrH62uHRfGT+D0xy5IiJPhRoTn0kndgh21RHfluuxKKs/9t14tLQ4iwB/C4km75dmzaA3ZCtWJTrMfH3/vCGnrzkd8iWv70sFrjyfYogyHHwel/giien0fACb7GKV8HR123q1sj/oZFe/gZiNKFlxWWu0CDIoXHx31/W+rSOO3R7UhFo+0OW3bWNbGZkWbvpsP4IGsuvmlmfpl/kNMg3qsv9uMhv9ofvx/kdK1uTr5c5tX5GEOR4MI1s4eEu/ORiUMExAaN0v2LGAH7dSI8Prb92mVS5ImZDHh4XPeb/Quuo17bw081xBuTUh8gWokOlmqzD7lV0HbqV6yfkrxBpaMmr34O1dSNo+xUiW1Hs6pya7BAEOSrS8bJwHXpyMajg2LhLwKBS8VvptZOaVmvzYnimeuYtQY+dEuTQyLWY/w8WOW5eu7rOqpmTdDS8qIV/NKNWSrCrPASxKLejZF/Yy7wRdPOBUxyGV0mOD0n9gdqMV4bA6SX8bkCOj0hdhaIzqUgIUMFRl012U7Y1fVe/LFHsXnNqgyXI4TFh/oSygnmJPeYEDww+8I846lNSQORB5Wjo9rVEiGxBt7c3mixnzFRq3RzIMPZ1oVmTg7w/nm/XDMPIeDvKIbLlzVKtwBUwWIscKSdFTqicvMbehe0lR+L3z1a2O/plieKVJggZDMgcJOdT5jnOdDp1nKmjSMxuYCbzMpIydV1Hkhz4gBOiY0naS8O9I99IprxeE7LXJTYdXtSCTcQqmk77jwSh24ZcM/d5dF2u/B6sjfcNbZWcECJbCNZecyp+NyBHTEzn3mokwveSo4lEJJAtEN4vyywVVSGPzc8OFIt5jm1djIHloPeCbZVh89yVXnStOzjPNZcTh0p3VB0wW6U6XSymzD4MCRKTOSFpsqkQ2YJe4WiGXIxHWBj6VWxuwpUY1GxNQnA2KNpqaEmvklyYbHmzoQtCXiQIcsSkrgpZGrqF3aZQAtmGw4t8nbZ+KRHkMKn+WXH2gKxotjyTBlu/m1eeRl8lJBDy8xlrqUqLC+Ixdu1ekyzfU7bsREstkrOkZw/YquUWQQh79RYn9E9eS22VLZCAoxmyXOGjqVXWrVjToPnezgabnlqDoq0GJCfQQYhseTOeFwQdvxuQoydS57xuQP9EtqbYeFvAZlkHzIz5E/aEkPPRclmlflToUGIUW3HAiJL/16Fj70KxZsOpbdO7jmTbUjDXG9E5gMScQ32qWZM+VHGrZERvSgo8w5YcOptxGFt5z14QMnli6D14iAP/D53GbME5JwghkRuVlkNPnCbutsrWPxmVkXXjIUgDisSNfPgRx05FzvwerL2vGLLRhzPJYbKFYO1bdPsM8+4RhBAzzwmZ19OJvytb3owbglDBdJ8DZrJdto+2Ii1yJLewpdZkNnh0qADhamj1JEZyrOFs0pIUZW49uo+W1VOUnmXNGX/uVFJa9L35cOGtWenTqj1JojYl8ymVreJaVsv7wEKRptZwObSm0mJAvT+f2q7l/xfMo9VaTAaOgvvIYdwmBU6/TLFhsgW9QoXW/P26pBT7elfe/tMMNVsrV+J6B5nmARpasR2DcYhsRfGmLKh9/G5AEJ/Y21kI3Ubv/oZseRHOGWoYkDlo5ttlO3+SbGrGpksHwHKqSP5VdWG7YwJYknROiDukxrZh63lgWwQYT2363gV9CCx+mTHcB+kul48gW3tOyNCGuQPbWfpPl0YEmPaq/u61/XWONOmfbbKdEMQnpkMna5bdJlvgzqvQKuu1UmRdMLmTkR/OtjXSSwZlkCHdRzMg3YeOQmQrmm2ZUw38bkCQgFRXFfRSKv3XZWvyN2WhfIXpPgdNrrddtoPeAhabS7tF54wuQI8LsCKV4UihKj0HSy5s6kgIos4kZURyrkvo3TEd2gM/gRdk61xQZSsMXDlKj8pWaoFmpUfYN7bo5Mk5vZq/SvU8mNIPL5fUtgxzTiijbbJ9JEhQn5Vm3dbPTtOebEMqtNY1XavfplKrvWVovseSTU75jUZ6IqT7aHkv3SdMtrwZT6rcdRwb6SHIJu/UBC7ZSUf/mmxFs017VtfvCHLQhMnWZ+npdP7EVElT8taubpM6tErOFfDkEO661Iu5qUuoRamErSflguScCRWm1XI8xVZJ1VH8k1DSM9nCCnjoupOB9dQC985B1PCmpZzTO3OXYVC2OznLqFy5zfIg29AKrTVZNhpQEN0bR+gyVtwM1vbl+uU6WCvG+4Zh1EJ7kZjFV4onfOUtrtDFRnoI8pxbA379Tafu9pataMbzqoC1GQ+f3bIdu9KSWnQ0yhGyoA5s2VKvtZjnSHU0ojeWINveE73RW1BB2rAuHY2aVM+W51PmD7KVKJ5s57/L1vKUPujZ8OYEFsQXoxH17EwBg9sKyvZFOnkhq9XVENn6aUD3SVn3e1nDGEK3mQ7xuetqtSCzlqb75DWjGF7eBla2tftrrlA5IQiC/In0VZkr30fT+8rWjPULgh4jyOHTCttGbj16G8LjtZXnIzpZYuynp8B2I0+2NqxUh6Q5pYJcMbf8gC3gXKz2k+HQlPtsZcsMqv7D7bm/0F0xpM86nypYsXEPTuM6pwpGmGz9LNsHQ9f6YjS1Gt9WZC/FgI3n821+s7uPtqsXCciWK6scBmsRJIy7BzWrx1g2sYdsRRqs5QptrL92FFghp5GfJAjSjkC280WLAoUSW0+SNZjMm2QJb80XEsgWcnuaOSpRZUlyq7kTT8yAwszA2ZLEVOE0crCyfaJTJkpvYT0OIcVI8raRwfLek3vvnZNxiGwHBPkj0UaBM6LpSDjRqNiXZe3hnVR0NeaTxiV7W1wHa4PuPt6Z5FD4TpErlDFYiyAvVHAsdqCC427ZmmJbV7E249Ew3C5by2akHpXt04xeS9PhbAQx26EzJ1SvNGbrSvPZaGJ7slUmhDKXlAGsTmGuM/l9ZQsaJUO3Rx9UVdYr22rPHYPox7BT/Qj5vC06Ce6MGGUyGz0yobJ1xgR5TkktZM4g6SCMBHsXL8r6qrM8jGnotpbvXwY7yHFo+1Vr++4NPzT5ltrHYC2C7KZEQy0Pd6e7ZWteJlUB032Oh3MnVLYLiMr2IBUnR68kuMoRuDWA9wgk4y5BttICxq4kuU1/7piKOZCtAgOfuQ0xW4W5IMBq3zg3epV69gmUPJrO6DgHPmdCt5EXBPkzbVrm7YrdubhNnXQNXavEoil/fMpf3wSZtbEu1Ga8KfF8LBRRbOuC+oDLWgR5iVT8rWz5PpFO3IXIljdjlQLWZjwuHnesbCGY2vLUOKTSnDc9QyqSv5NbfZQkf2XL0JeBBIUZx4Qyc+y1bAGFmeQI5WLun0Z27FYVzNqksnVmBBi50hQ+OlW88XghOd7KFneR9+b1jJrVYq+xuyrYQBqQLNM0IG8Sa8oNPujuowXpPiGI5lVeEJK3BEGQl4lkBEHj2fR22Zp891oodLH+2lGx3NIUoNeb0hfH7fVcRZq2JlZPgQpS7nxgUbc6UP5pMp9Sy9IZDtXplL6AGddzGXiDWeEoktsaDFpTyXuk60177NHPThmJWVgDa0FfFWcxXzgwnrToCwMTtzGtEmQrHSOr1jqnO/eS/c7y0PHLk23Xl+tlxtAg3UeMhVHi4dAkd32Jy1oE2RPREITaSTrxZ9ny5pUsYLrP8TEPbXcn0VcY/T5WFLgK3oKZmx8IbsD7G9DPKcEjvPH6UcEFXEnwbzDE41F/lTgNFN0kyK7FLU0Dyuu6mdqUrdjVtWQ35l3vqnBTwDrICPIXKzjS0C0cptiUrQhFYbA24zHS7DH/H7Dnzy4ijUL27asou1O3tzfdsz+sbPl4H6pa7A7WcmrldYIgyF8h1YVSa9H0pmxvY5m3OKzNeJyMHeb/Qu+CILs4q3GcxkMBm1BSEehlHcjWh9/ZjiQp0IcSBEH+Kid9IWuYr6XWshXFxjWn3mBtxiNl6TL/D3rYXu9FeI0Taq+TaCQMcO1z2fI7VFuCQ5NxgiDI38E0OLVykmZBtqJ4pWFtxqPmvMX8H5jj4ag9YOPlbPnh7rUdun0m293BWsgYxNRaBPm7nN5D4+cIqVQ6pZoqvI3pPkdNzvrvL257eDZqTxI3Al2LsuzdP5WtaN5rglDsEARB/j5nXTV7Hcv0H2gHj3uszXjsnE8WzH+Z1qBJkH3p1AROM09T+8o2PFgryBisRZB/ysl3bwhvXwvZGgZrEUKa4+HE+m8ymb2aI8hf4FTUs2rlnXTq7m/KthS7hczaMv4ejiD/BqbMcUkM1iLIwfHafYF7q5tI/03ZQoUbTq1jjfTf2LufFueJOA7gMzE3wX+LPLKjk4fHofo8o+DC4ihmDznk4HMItGkglJSUstDWLoSE3LYXLQt9Ab2Ip4U9KJ4XZcGLi7J48dyLL8Cb78DfJLvxD60+23b1if4+PDudpDNTb19nkkzQ/4T13OM79eJrp6dHL27QHzeUQegp9cr7O7sHb8MOjrcPW3iy9sHOzjd4sRb9L7z0eDZq3bVfvv/+l9ZGBkf4cC5CT6Vn3t3d/ebrTz7+ZJmXv33js69X+PSbnV3cBhn9TxyNhq354Kz/dBsM4D+z/zxBCN0BlQe9tQX58Zdffffz8Gwpf/7jl6PlhtDrh/4T/XSAjz6jens8Go76E6HkU07JyReDVqtNEEJbJiInG9NNHGafH9KPGL0dHvLDz7ND+iTGWdoN8O41VFtHrVbflFKYTz8hxfF8OCAIoW3qdMd0c4eA8gpUK7SIUw7/ig9eHZSdnhQ0TXsEoVqaDeeTWiRtScrBcI7/c4vQFjVpneDmXqiWjoZzIc06kX2c2yK0RV1aL7htNaqhF1ujmmWtKWBuOyMIoe1IaN3gC5lQ/cxbk5plbZm2uNUMQtsR0frxcCUZ1czRsC/XDz1V+YtGti3MLZOTFi4kI7QVPbrCmIeA0U3xUON0GRayMV1HlyBUK/ORub72yclsBv/gb3XWtk9P29tP28HwMUEIbczO6Aos7rqu6zBOKWdQronxBIbpxuGfkpwxKBM3XXPgnCBUIy9uMrFVl41GYxc0GvfbylzOvjCMC2vrYXvcwqu2CN3ljcgs6RDNjzlPoyjjdC3MC4gmun8YgDtNNw5TQoI1x3UIQjXSbh1vELZXRqUIW2ECWQ0o9bFVhG11XFWWm5hPaj4nCKFNWSldjqeWnvfqtOUsIiRhFPx+hsu5LqoTjNEbv2vEYql/hYBuSGnVgzUJcRZF2PJl49K/nU53CEL1MRhBQq5LnFxcXEwN4913Li6ErZSamMKW7ba0hVnUJkqZon1+3hay+HqipM5o1YY/qG5Cng1x20aENpbTFUJIQ99JI2jjhVA6oQ5Rz8kY03nIGYtjCkVanIBaBpUyOLmnz5V4jxDlpk4AHxnT/caeDmM9ZLoYJ5HDdY/UicvlapBdj0jT9HM4uYpLEKqP0UBskniWRd4zGifEst7bvzqf7pnian8HXrUlhBSX+/fuT8+VOn311VP7cvr6+fTew0cTYaoLqFy+O30knvynJ0uetcWLtgjd5Sqyr9NwsWgqlbiSkE6Tht1cERk4jCd53vWFGzqBsGWecMqSXEm/mQcQqG6uVOCWMckcQqxkwUJ9jdVlft50O6oTce7rId3M913KWZTbRPQyRt285wZSBh7jPOpYlvBjhuvI6L+gNZAbPoTzgmGcKlPuG6Ah3jMKl7Z8vaydE72MTOCo8IJtw3Hhodgo579oHRGE0IZcukLo6+us5US2Q4DiCSlYThiVfT3r5kSVfGnYJIWIFaNAnx7jUHEh2A8FKTUZ0YIU/hi77iEyCPhSh7KIFALK8ekf9B8wPFObha3SYWub8gDi8+DyBIq3zneNfesc0vSDR4axr8P1nEAI33/2smHcM817hvHoA8jmvY3CVhzj+wgQ2pxDV2AO0aTvcqa3I/bTWEFKJj5EIXN1xAZeBCccH4oQ4jjv5oTYmUeI6nahacb0KK7+thjOInkWwJeuD33TFKrNLLVIL0yhm5tAZz9s6moEEe5wiyjHgWE9RpeL8aItqpEtzGyrsL2U9uzi4kSdN4yHFpw+J+qF/QeqDFtdWAfGzgTy+IFFThrGHs5sEfrXOXQV1hWkEMShq5eUu1Bli8MO1KEqPH1HcTMb67ClEI3xIrOJHesA5vpKrVuEbXQTtpCrHQ8StrsIe7qELzx9g1SvbLLwbCKLzsX3CYfY9R0nSWO6whgf/kE1MhqI7SwjHxiNI1vYs0f3DLBvwXFbCSnFzcx2t63s142dI5jyXthSTG8XtnjNFqHSPxe2C5Y0fUV0FEYQf3ra2WWU6Y9ET0M5p5EgWuRBaHIdsXbsk2u+DtuwexO2CTSJAyLGXI8W6dGcImx5AOnNePHh6p9gEZRhQIAdpGxl2OLMFtXIfG7e8jalyaqwvT+RCiasxsHVPoTtVKerkMK8CdudtlRv3oStWjdsq99XZ7hhI0J3ty8yH7u+C3kbQygGy8I24pxDlfT8MmwDzm7CttMReZC7/PqabYcyynXviOZwUIStuzJsE1b8QngT5A6jy2W4PzKqkVnrWK646Xdyy5ntQwjbK0hSYumwfQCnif3g3p6qwlbpsJ3oy7qKnG58zXY+Igihu9oYmdNOseS7cK7D1vnTMrLLWWYT5S2cchnZ9kJPLyM3dZIyz3E8CnQbErEwdGydmzmxnOtlZGiXLltGThhvQhlHUTLudooJ8nIpvmgT1cjjYV9ueINUNbM9UvJdCNsjKPYtiNjps1cQrNYfw7Yt7hvGq1c7y8N28uSbI+MOUgjd5c7Ixc1KUTeS12u+vvfHG6QizjxCZOrkOiuhkE0JPbIUat1EVLtguPpHuk0oczbOobOu214xZLzkBqnrsIWxheP1YGxGl0sIQjUyGok1nnOtCPUAstQ25UNj90jZ50apcST3DG1nRj68fvSnrew3DGNGThtFC2MqBF6yRehfJmO6HK/u9s3HLNEt//joT8Q47ZFSEJbTTKtM0YLPeTmOT0rSC+McmmhNpocgvRRG/9OjP11WlGFACnbG6XJNglCNtDeb2gp5Od07UaZ8b/rmRApx+XD3/gWcOrUmL0D14ESp8+lUb2rxalsqXSrSvpo+Ot0z9uQGe1dNRrhbI0J3+eL4MYubuSIqb44ZH/u58GmYBJKIYlOLIEg4ZV5g24HbC3rZIm4GgRsQ5THu5radR9Wmi3AsiZ37MeMQtp0oV50Izma9jmh6QRDxclOLTi+DrkGQFqUTxn7HInL1DVKxTRCqk9HIlOYGlG2L8qM4mkCmFqekbc4mtjShAiUUZSPZvro8JWS2axzY+NIfhP51+ZiuwBn1nGJvRQpFrEuWOTFj1bbFnHse02gUddlirIgc67ZpyvX3JahmSaqHKcKW83JIGD2GAvqW20COy5NVydk4LbbUWCEiCNXK4+FcCnNrhPytumxc1Tbgmu279/QuU+sHfH94QhBCdzm11RirQpPz6+T8UwNasAhMTQUhAa/OVqpsLsJ2DENUI1bKBkt6rZLh/lGobr4YDiAV/zHqYscAjSshNni/Hi4iI7QlMqMb444iWp5xuhqLFbE/53QbfIJQ3ZwM56Y0/zFqdnl19eGpEmvPnfutEb7xB6FtyWO6Mea5UdPtUkb/Ah8n0ORWcBEZ/Zf0h/Nj+c/NbpVl25a9dtROBsMBZi1C29Mb042xkPEw5OO/bUVvAV+vh/5j2qPW4AshpdDM67+qrApQVs2y+BurG0i5pF318adadQSkmJy18HotQtsVZLRWcF6L6ur5Was1GvT7x0+1L/pn89ZwgPchI7RlwqV18TlN8Q0EqMaea89bNTA6wahF6A7k3XrMbuOffNymEf3K3h3bAAABAQAcwThqhUYntDaQ2L8zheQld4vc51LbM7Td3APwSh51ldhO7aofAAAAAAAAAAAAAAAAAAAAAAAAAAAAAAAAAAAAAAAAAAAAAAAAAAAAAAAAAAAAAAAAAAAAAAAAAAAAuOzBgQAAAAAAkP9rI6iqqqqqqqqqqqqqqqqqqqqqqqqqqqqqqqqqqqqqqqqqqqqqqqqqqqqqqqqqqqqqqqqqqqqqqqqqqqqqCntwIAAAAAAA5P/aCKqqqqqqqqqqqqqqqqqqqqqqqqqqqqqqqqqqqqqqKuzaP2vicBzH8S8ccShqSCBzJqcOGRy6CIKjY3HJ0kEH7yB7xRqvHHIqiF0OhIMiNlUoF+pQ7gEUpINgbritCEdGNx/C/TRy/q//Thvh84KE5BG8+X2/PwAAAAAAAAAAAAAAAAAAAAAAAAAAAAAAAHAFkWCPZNl5yxK9l+jVQyZE67pMNGYkLggAAHZTOSHYD2kCDZ73EL2vK4ryciXTOhotfV6ujNwCAOwmnyfYD2kSMYfPbSiuGIaisNdLhlYSy+mW2kjMuC7r+ncCAIAd5LsE+yBJsiw7iZWdL+ngtb2qs9Q6DOX+dFVrW7oajoTnRBLFNGoLALCL7mfagvChY9s9y7J6tqlx2Psuye3M9vbAk+TMC0vtmFGP8/SW67QaCXsWiHiKOT8BAMC2pN9faVOabQXvAmNBy+7QsRJ5nhcEzuvlOEHw8yL9V/xpdIDjZdmp7+Gc3SuGMsUw6hlaTtD/RDyLRRr6NQEAwLby/cqGcer0Ao+Pj4FJ7N8yvXRURL9X02IFxhyoPTlqNdMsxDSOp12FtPi3T9Xz848D59VqUpMPeEsqFK8byrRVq9uG3gh7lgi3WgQAAFuq9Lu0ETMYGId2qrd3tkDHwc+xyppM8mnK80Cz6fM1medaQeN2GCDHqj+y/9zclEqlbDUzrK28/9Wts6yd46xuz2gxtehZHls1hxvJLiZezMLYH8BNTvr9L7QBzXLOtItzGzTJ9fioFmOVNWvjujK+po9pjrCfVCrVbrebP2sxYbu7Ucls9jZ7O5QdKf1qx+ggsY0mWVSXMIz6g0iLlFtvxVa/JHCpS7WYnpVTPQQALlHpO0Nk0S/ROmznVLs8t5arZ8mioHUK5ugQO0wq41vM6e3razv1bGr8prGlv+ydbUxbVRiA34iMsWFrC5eCWVPYpq4U5hxsZdihmWawosGQxgSXNBHiCkk1S/wBgTHHgNG5ZeBSQ5wMFLcRpJUYnJpZE+cQiOk+Gic1aoILCYmYLPpjiTEu8T3nvfT260KnIFPvM7n39NxbFz+yJ+/HOacZRVtXX3cwzLVdB7uOdx0AJttlRSrWyuu2+c4j2xYlsr1bOdTSPl0dzYn2pmo1KCgo3A3s/+WXTry19nQmFN6mUVi7oG4L795OKY0TU8dctCNcpfclAPMtMvKOE+4Mx8HT/aXa5/u7wjLJ+HO13wDLLFvtEGWQF9btGWu8P7Nr5WU7fVRpOb9LqW6arn18VzSP155oGRNAQUFhxWn9gbtW6Pz6SEKudQ4soloKbm/A3YjWavO8Q6JtjDUqIe/bjz/+bsSlgsQx1x88WCO0QvOw5FoEQ9t7QYZlK9YmXLptwJU/cq6tbT8BCncl55pOxF2w9fiuQy3VoKCgsNIc/vqXr9cA9Pz+dQ8kwmXm2hW3rVaTpC/Jzi7XJ2m0kDAqDGodsaYlGkc9nNH4sh2Z9+1X76RBogRQss3QCs/jXYSr9vhx17JGttYzcVT7LhI7G6d0W91ybld81+6abmqApeLF54gsTqkWRJJoIkl8rORAE0LVMv24TEJi14kmpdCuoLCykGsPAxxh10RwFj6YIMto2ySbeyI3dwLBq0OvSly13LRxabyYpi8pLy9PTbuIJpbz7R3q1lR3+qDbAAZHF4mWYC3JHcu4aaP5TMxyH6bZswgOYh+NN0ME9qb22nhB0q7HTzQdgiXj2MvEZN8U0nceiKwp/Iz8QU9v/1t621cSWrAluzq6tl0JbRUUVpjWkGsFSITSwgcLBxK1rQeWHlUS2DsmJrq7u3MZ3ROIu8Ll6FjMuGpSrXxZ1qMvStfpdA+njZJs5XxLutUkKtvTXfUu97DUHIWqXWbZNkerlon2zNABq9lisjbXjOPnRUq3DS3t1bXRGzbuWnVorKkalg7Ny8QffYy5qSzg7Jmjj+LTvaCQCCcWaGvbNX0UFBQUVpQjvA+5J9GVP9orDxYWJmrb9x+8DEuM4Jrw9fe/PdG/uX+im6m2w2q1TUzgzIR7YdtaSbXyNDpT7mE8bJXekgtvUbeNlxOVLfPrwdOibMm1XcsoWxPuzRjddHwm/Gg9g3UIX4ku3dZAOPbppvaj0bS3HD0HS8nel4kpsu0lYJT3EeKz2/+RfixL+NgCS8/YtKxrMY/c8h/516ig8G9F+JptZiH8gNeEuMFcm7htC9WwtKROdE+8PeHQaLXqin5MIesBSZvoHp7qnnCBPGqbx0GqlWfjk1y220z3LQ5Gt9+NLmh3A5lvmBxLmpUqtiRbAQQGLCXaccmj8gcPDMUGv80QwanpFk47/sVvqNpDsLSob0u2ZZSzuck5Pv5DfLQa/gsEZoIzXoM4ng0GvUD8Y7JtV2SroLBykGw7ed32VUiEy+TaxG37Eywtv73dNjcxrtEAYpvo7tBXMFW5urvn3s51yFsrzeVB1S7MiLWYy7bg3sUXA+Ha3K8wl2yDxbC46+v765F+pA5tS66VZAtLbduaaIuePZDIGtyzpw9aIYwPjlyP5en9h2FJeSIykTypBkgh107NB7ZAaFNLQURToYGlQVVbXauCfwBzMDgbHOSKNc0OBmdnBnFIKGlkBYX/Bz+gbFnh9vfDiagZk8h3aNvLSy7brllX5QOZONZM5KYUbdXzeHd2YmKByNaJYe2IlC+OQOpFLn2Uufahkhqal32dGGnE4NYDiyAYLPhjAI6r6ziTLeMqk62WLPtXZJuWqYa4mMejcsgONcRnKMy2Zx85uG+fA0IIR954urMnhv3Xr5+CJSUytJ17B5KnIgPbF4EoaZtSA3HeeAEWIilFDwmgXlV985Xe3qMn/gHf+gYDYPDPDM6CPzjotQDMBPFCKA1SCgr/C3p+OUKV2x+EhJLIxECitn3/ihYSwmCwoJMWxYZSne0oeqAAx8kTue/sXFfKLDaR2z3sVst+KbJYO3IxjJF5gTZ6Uh9gsjWmeUbYPJMsn5del6YJDG5HIQYD34nxQI0jhn6xYsvpaO3p+R4FtqaVvnFnlOfk5UM8rGcjXXtGADkOMNuSak/vQ+rDXdu5Ox49T7+xtLHtc1E9UqrzkYHtMRDRt7WJChWmHlhYtpcemBJgMR7/5uYrJ0+e7EWa2k+sguVldkZ0LmaTA4B4gwFYYtQtY8rSHwWFu5gjvxzmWyNjhLsYyShZci2Ctl2yjmST3+vLxV/+AIRjDvj9Xq/fH5AsLJT353Y7slO0zKHdE45UPQ407u7cbrcqQdd6rM5IPChclOpQ/j2MdRB6PnpfIwa81lJnBEMX8XU525JswUrtx8TxEKRaZturVzvKrn3IuPZ9mcFwx7JNNep0KfKylVxrAFjItqTa4/siZdv5RmfZmnjsXvP0dTUsJcciq7aXxPv8sh/pP+rk/D9v6dxcFixESt8FARZERaZ95ZVXWnqJ9hPLaqOZWRBtO0j/QfxBPyw1tWxTi8fjLY6uVja1UFBYeYSvf+DKTSCR7HlQdO0N52W2Aoi2ZbzxPt5vXObgh58uh/AMJNQjZfL6UJacXK8J5gmggJFu/PH5YZ5S1hblUgmCyvb21bk5t0WlSnVP4Gu/qeRdOxK+mja5smirxLptmXq1pxGt6qT+qAdo/uHiLSVpVlxxay0If31ncUGF2jnSOJ9KjmNbFOeB/i7p7AGRLqkReV621z68xm27m753R7ItKnroyUVl++64ARZi6F107buYQY6Urer6kd1r4rO75/oHsJSobkuhLTJHt8nYZT/ndZdokKmbgoXRwILYv+WmRU7eXNXUO8/R5dKtJNtAcCboWy7Z0naNqx6PAbdrnFa2a1RQWHkOf93Ja7eLnmervSIGtg96mHgxtmVpYrj8EcrWCUTSRx6QKGQeXqRqa/DnomQJNgoAx+Ll0/wJXn0WIJxMrLjix3V74o/0e3R/5I77JvhLE1kyrr04yt0olWZ190TyQGWy875G6o+KYGum+uKI9f7o6U0Vlothtn0nWrZwbz9T7fDpg/hLWl17UHRtlGyR7wVy9J3JNn3LIrLFuNUKC3PmEVasjZbtB9d7ULYytn36aQGWkr2hnS0kpuIs+9G39SVRllh34W9GgGha4uQ3MN0b4hwsG5RGNgdnwDvoXZ40MpVt239+J5qf8SACpRVZQeFuYM2ra1C5i0e2lwfCZAs/YZg7wGTrIdn+dIXzYCG7OuEGuyXQkGzwMqdKiLYN+KKmfWZRJlyt+LD79pE3P/2h8/b8exNOiIcV66yRW1fkY2k2CmOWs/GiZuc9MaQ4R/VbY2YfKtCEbIuZZGd0T5SbuZZ0S5BtybTkWjGNjL5Fru0WyLVLLdsaCMdgtlpN6si3sVgbK9v9T6+Rl+3+6ypYSgzzPVJ9RHh31BMgoZ5qywckua+tAqIRNBqIQaVRQTx2Mc9SYGsHKbRtOgV3TkNiX/IFLYZAABukvN7goD9gYhNhy4IYQfw//G/zTmNdLI3nQUFBYcXRMtt2CijbTuBorBqIA+k1JFs9JPEuKUm2hR+9z3iQXT66DFfYR3GtbcKuJdtaAAJ4IyTbWiTZMmZv/9DZ2fnD2vkXJ1IhDlo8Qy9y6wrbU/fEsjVtdFSfEztfpN9Y8lDs9EMlzvsYZNuv1FG+G0bR1p3mYe1wyLX4V1RkS6Jllx7BoL0z2WYZF5ftu+NakLDUjOOjs+NnDkAI1/C+O5Zt5/XlXP4Td9kPcYHyyOVtUyoon8wERnYxF3A+hsWT5SBSUbwZr1mXWAk4FWKx3zwpyrYaQBjjosWfFjtbC9QAnFPUMrXqXHX1uVUCNOAPTeO4VgshpsdE6Z5j1EJ8zKwzKjg4GET4bZb6pAj/4CCT7eDimWWDzwsLoK1/ZHzoQDRDZx7B1V8KCgoriNbmcKnFMmPnEdG1zo7+/jSIg+pKmGx/8rBEMg5Dsr3yfviCH/yYUIuUV8wTE6JWwewLnxZt6xVlG9LvH1n2zD9CH+Ov/HFFu3bEtJ378tFntiEb0u8hdjhtKdyq6XnFyAadOJ8Jm/k9Zw97v3jex+uSpC0dv4su29awI2yHpYJtF7ctIUW2rt3Ms8S11niRbdqep7RSc1q2HkKUrM3eOi9bbcGTGhnZNsc5BAivZ9Tiq1X79t0Fso3okYpZ9kOQZftUeHtMd4GJd1JsPL7ANGxsm5xqazsPxJZ0fJjVZ+yb7DNOaSEGtSjbk6/YQQ21vSLtWpRpb68dGEdbmFrbsZJ7lE2NtaiB0d6khmn+CmFv6iU7o7IZY2qIJTDLBOvzDc4GAqZAwDs4450dRMH6Q7L1CShSnLcsJtvBGZBH664aMpk2RmMyNdfXWUFBQWGlcLrdLpsVCGENMNQGNYBteNga9wSCgTDZFmqAyXfgp8Vl+1OEXXMlTODv7iap+gKBAFZpcYRjNbkWn3lxOpRQNkmRLe2KrC/PZ64l3o4n22RKIktgtngT12U2mC0Wi7V0Lem2KAv28EExWBmlz4h5ZKDBdrDw10u2Umib7eKypbLtd0kQzjjKloe1p8MOsEXoxlSLf3VZe0Ky/RFl2xoj27WPpuvW5dNYu/fWrW2ZKuAk7zDqHp2XbfkmXfq6zHiyffesGULUkGpJt+Mm3sJ9/FmS7J3VbI8scc0WDC9GhbYymyKr+tpY8DqVk48+zbkk1W836/r0gjZ/bj69vFY3yZ+oBE12tgCxfCvK9luwj2kAjUqiZHpt6m0neeKtoamp1o5CbdDiRzU5OEq2h1p6p+n9lga7vaE6pu5LHci+AHZIzQYNwJkdhMAgyyfPGOZlC4yZwQBvF/QGgGP2e/0WaWjAKwbE8kJ21zWb742H6UB9vQEUFBRWBLW767hbJX00W20dDodTDUjH8Q75XmSS7Y33b3D7PvhTZBo5nmyvRKSNfSG8BgtZFVULVKidyPXh2C/GtV4DTefSW34psiX6+8fDZNsBsbhGLkYfo5dFukzycFt6DJRVTs+HiP2jhrKKSKpA/VFrD/DpUVM5xbxP2fBT/NDWUhVZrxVNOzw8XFc3PIy2vcp+1cH3H4Zk++FuiJKCOj8vJ6fIqCuqzAIQVr93C8m4lapFSRY8nG4sMhZtZbLN2lGkMxbhW6lCrGzPQIhm7lopvwzQwRqjZGR7+I39ZfLdyPuBWPrQVnbZD0hmTW3rS0bZGiXZqqeMJYAU6PaEyXaqrRRkQNlSYLsKvuk9BOfEPPIJljZuGWN3ku0YRq2EnGyFo9WH6KWj3NH23mqIwjA7OGNiRVvWGWX2BTGeteAOUkEA8A4GTZJsmYT97IKJ5llmVLQx4idfI0GMiREvyGCtO2O6Nz7mmjobKCgorAjqjn7847/fzanvZ7gdLrKbrcsNsdyIkC12GeOFyfby+1y2nhuMgTiyxSBYBr/oWgMQFn+AXUmulDcm29JrYjeyxCzdZCNb9ejISJRsa7If4JEsO9qHjvrRiVZ9mFu03NbInVzOnfxAKtC2UhWerygwzqLAeBuTrVS1VUX8oRe55ocyyWha3LaxCm1LG0g1Y8lWogeiyEfPGnNysDL7aCqk3iK2bcsHVSXaFR9sZbJNfRTfMvK3ymNlOwTzWLExOYLxKoxqZWUL+6/3yKyz3X0Ed7VYatQRPVKTcpsiZ7Kk8IX0SxApW1x3mwZIiXFKCI9sLyWBDNUnxcBWe7O3XSXQWlvuyVVNtYfQv1y26qYxWES2tU0N2t5pimxVeD3RewqiELuPAyyORZMiAZwTJ3GOZEufghZ8wxsw+dm8YQazPbjplIm5dpYNfZYFI9uOqgNyst14b70bFBQUVgiDxmpzOTgdmE9OVkv5qOM2iEH9U5RsC9nujQOibPXSYp8o2eKLThAD1wi8YGCBLZrVDBEEolwbes+A49T+3Gjka7bOkYsxR/us5bLM04zQ5/m+qPxkfk8v9TRSz7KOO1mTxad1KtHNI7Y8qvHaRsJDW1v4b8rW/IQlkfEXU23VWTfSP0xbWpyJCGx//F6ASFLQoDsfe6wIjZsJ+dveI9fuWAtpD+cUFa3PeJhHttnpRUVb9+wpKspJz4yW7btnTdIKnwjX0srahWSruo623R2r2jJ07Qew9Kx+mZiU6Y4i0ubasvjeFpJs96Bss+baJhl9uskw2er7dG2TKckQj28ojVyLg9750BYHXLbnMKA9xWXbgPqNla02XLZjRwGmm+xctmrVqqP494gmOAuhsNXCY1UfGIJBg2hiP5ftrN8f4AYOkIX97GaYH1moUmuw0N9NDrf7XlnMjipQUFBYQdQQB1tXvRZi0FwZkGTLg9obuBiIRbY4FCNbjycysiUGLosS9UYQABMKlKwa8dCXG61gf6hNGUrvRLaX8Ty8SEac27gsnzSFNmlMpxC2gs7XU13ksrVRX9R6oLapnRac5pFt6nr6vu2+cNl6QMJ28PRwWGRLCWSWN+i4NNnh7v/q6tXjwy7h+2sh1bKirQCCISKKw4i1hNUmjcZsKM8QA9tKlO2mHOMOfM67kfNzinKe2rt3rc64Iy1WtjCPmY74Cd+bkajrqBLv9RGyhcPXr+/vwTiWCRd/duMQxz2dT7/RCcuAVtoiOXbZj8SkMVPVN1caK9spzqQeJNlC6YWpNl1fuexC25M3tfDNt9Njh0Cs2tZy2R7CiLZFYLI9JcrW3iDEj2xRx+fY5RClkQ/1tp+CGGZm5mXrJdni3RwcDIS2TGZC5cx42YTfzBicZS3Ms7NeFhizH8KykGzr3SZZ2ZocVcpSWwWFlcPa7wiNBXWa0yquB3ELEEtatGwHBpxYumWRbeEAynZApmYru60FORQJ4NCQO9EdIjK3TFVbki1tzZiwbD3hniVZOikNnIk1WI4rk9s0p7SAz1caaNq5hwJYEO/W+ZJvahGf2MyyzdIeyRfDZXv6XSbbUC/ycL3DZrU6kzT6vAyT1WlzuZpVZSyuvSaaFn9RO3KkbLfqWWqUyTa18tZ7TLY7igu4bDMB0uZlq8t+77WUYnRKjGzHw7ZlJKS9GYlnHVDD726wRcoWWvfjGT8xXH+6B5YFafmPtClyLCnGPZlGFCk1SEmyRf8KCBAkW0RdccnYlwaxPP4Kk+03UpsTLbOlyBYvWLadbge72PtU3WJH2WrjRLZjTfYTLe28jXmsBexNOIgBU8JmSiMHzeBjTmW5YpQp4sUbRbZsDa6fK3lmlhbdMiPP+vjxQGjgRGTrdm9UIlsFhbsTW1cXC7hcrg4H5jfxA9rW2tHvgnikFTIk2fJlP5rCK1y2hTLdyIQnassoL8cyv+4nQNXbKPyxVrbgl9N+k5WtFqIZjZGtQ19EgayHZDlipW7jddod1PhkaiQnU19UAeSRW51iIOzKpgVCJez7UtF2BCSa+9F0ddgMhWBGua7GLECyXsBLcQYwhLIejGuvMdC13LrftwLEyDYVIFuU7fZbjHnZbi+FzSRbLN9uy9JqAeLI9kzYroxxM8h19TZwuqv2na4fAive6yEc/ZuP7YniqS/UsDwYQj1ScZf9EKjVvknjedIuremZ1J2P2uWCZCvFwiUQix1le/KmGuy7djU0NNhBxaq2LQ3zsgVsKkbZQlMLAC/ENmCuWCUu/QFJtg0o5UMnqqdZTHy0RQ21aOdYvHz97GzQz8zq93nNYBr0+gYB2B4XQqhBysRzxT4s2fqRgIUplibAm5hsO+rla7Yb3UrNVkFhBRGczLEc1ivVYUsGjcumlQmDY2Q7gHfPncvWIspWC76QbC2+BWXrDdVsS968LSfbY99UCIvK1lNO/VEasQbrSHuU23QPrKPS7RD1R1Ezcnq5lh5X4DSXsLWS0sulF2Vle8DtHj+LvVBVVcy4/QegtfXwju2HBSEpL6O17PAaPOzn+2vfE9eI73tiZZuTU463dCbbks/ydvDI9v4tWLPVbdXt3F7E90bGx1tzHt68mGxr3o1brB2iL+zrAIZqXxVImB11Vb9G80hdvROWB1r+I7EX4qCdbGtrSwUkrc+4BW8Fxjk964WaYvGrJrMUtPkVJFt1il5etsLNkyywtd/Ewm1TE9Zcq9kyWxXJllbNNh1lAW817TjcgMNzpNcxJls1kIXJukLTGDVI4cQhiAWlOuNDS1LOGJkJYm12dpZ3SYVkS8liGopvGcSaLUsqE+aFZGutq5GTrWmoygUKCgorCiY4Eas1WStbxCXS5o+xDckWE8lW8CQs21gk2QZiDEqVXMIcqu3mP/2DnGy7C354M21R2do288h0k4WOqR010+kD6Vkq6o9im1VIldyiZNpIWVc6+lUjMnJvOc4jW5z4loxsLUM1Hdh0xpq8scvbKZStabUXZ6iAZFu2G13LwMP12IjGZRAt2/ScZ1QokO3p6dmQ9syGPCbb7RkVoH3SmF7EWpXTd+pxxW2ODq28vkC9WGRLZ9Y++2x4E3KVwwlWR/2+OoeN3+shhLWq6syBe6M5MOSu64BlwbA3wrW31RCP80bjFD3JbDNOXkD3FuA4aUrXdyHlQp8uBTMBc6VctslzcxeyM2XSyHDz5MmbKvgGS7e9yAloaMLdKwSxZouom9CqTKvt5+wNbAWQqr232m7HdHMDm63FePiU3c4kS9JdBUeZbLXt+DwO3hlcuIN2nfF7EdxNina5MEO4bA0ztPLHZwDz7KyB5GvCUi/vRjaDP+gFQ3DGHAA53HKhrWmju0oNCgoKK4haA4lBNVu06k94m5ctW/ijIdmWhrZrvIOarVdsO+Zrfhi+iO0Zo98LAFTs//l2rgzn3/xEE7NVrEx/1DbLRWTUqSogeW6HEh7xPgoUsbpSxP4o8dg9zSh7v8ZcQYHu1iQHvhZTsxWYMLWl2NttcyHMty4oW7O7Na0yIxkj2+IMQSg7zDqNenp27/7giw9whKxZ88GpJG2UbDfk02DtehxoU7ZvR9kWJANSssmIfVFbn+EfsjGrrHtgU9KCNdtmKtZeRdeSbWNrtkMRNVt1fX0z7kUUg2mjo84FywAt/5FYDXHRz2HamMjsM+py+lKAUXqpDRvJ2nCtT3bOXBKlkVP62nBqqkJmoe3Jalpue5JVa9XoS25XONVyDvi9aRqQ6vYmZBo9ah9jo/ZTPMncxGcPNa0CBqq6GqaPqvnXxrQyh8djKZYpFxkMzsz4ZoKoWkm2dMNyrmGWv8MmcDSDhqZk8iDt5kjVXhmsVWjbjbE5ZNO97jonKCgorCCq/mEXD2kNGluH2wnyUDcydiCzQ21JtgwckWyT4LKHU8hla4vtRo5FYH1PdPQA4SfNdkeFtt6wjiltllsusnXEBjGucCVSGniDuDGUwWLRlG+ufIjkmSXubVFsvq+RO5n6oiqBpjPAoNWq9SmP6eiYoEwKbKVu5HdAtG1ywY6M7cWP6a3OiksXOhwdFuHJt1rte+4v3vGYSrN9R+lT2yqfKWkt2132xaeff/75W6fKsMv3k7c+rSzeUQLhJEsWUgGStPbW5iyA1e8dE1A063My9ECoCtavW0tvy3Yjm85iBvn4s/OExbbN9VS9bR6PkK2jqtkUv/hnctRpYFlYHR7YChCfimwViKjyCzKTQxbOLOB5Y0NJKsB5XrNVlWzeXKKVW2h78ttvvuWLbXuRsXPTtMwWtA0qUaAN4r12lTiy19bSyN5witFAr9DLOEmjVTKynSHl+syBYNASdeqPxU/iDfgttEDOi3fE7/MFDGyOJg20J0wAZHGyfMTGaA7U1NcpSWQFhZWDZItHmQ/3I8NdV68Ou0AeWmeLsk1jstXgBwauodV4HkTZXtaIuuGSfd+jCZetnMVp9wq88NPhzV7Rvd5cwmsBPt0tbSBFS39kZKuGaJyNMftHUWj6cB6yoegeIj3faqoU08PUH5WcRx9hO78XFePr9z+KZuY8RYf+xFlnm5SRV6DXb1n/jMmSuumSzWUTXiy+X63OL67MLNEmV26o3Ja5ecOmCkEo35CXr1+7LuOwcPit+7ekZqWs36SHBUlDA793a+9Lt1bjoCL8AT6JJ9tHwtfZHnz2y2cl9i28zja5ziFb/TtQ5YBlgU7/IZ6Dvw7JdmHs1aETbXuJpmoVLCN0xB5gPIt9T8t2ni1o3FW/xlL1qxLXKiisIGkumxq0Lnc/P41muM7tcKlgAagnqvAGXwF0pVBkQBryIu4A+ZXui+0gJXhDx9X6/Uy1lC02sBtpN2zaBxz923KyHY/9bdQoxajz9eIc7aPLdo6KEW+56ys683Ynj2ArcFupWJ5Us8Ju3B2ksh9ey37bLeuzIStvj9NmFV7MKFaDKmOHgCbevqEEb9nrtoCq8v4koVXI3LkWsjZtA2TzzgJYGGHvrZfw98FrMsggt4OUcx9TrcSXXacX2kHKJRfYIiZHvQDLAC3/IY7B34COB1qMXd9GyPaEHZYP6fB4M57946UoFmW7HGSd/yOaCxWgoKCwUmhdjo4Om5oPcemnzWblY0LjhHh4qEw7wKUa7le6IxjzRkN7I8tBu1ogkYf7oIOl6agSrnOiO3HZguerqP6otbEH5m3SW0dG9Y9yu5aK/VElPF+co9LEurkokzqZ4+6NnL1+M4DFkL/+MSi9f4/VaUXP5qlBU5mhYd3IO6BVENDCUL5ui1BW1ppUXKxO2rCNrRHNwm8uzN73WMD3nEo49t4TezUQB/m9keu/jHDtVY3BfVxeto563OBPho01VRpYHo69LKL5e76ZMqbA4qy6yXXbixxtgGWGZMtrrgFYvshWOPb6CzG89vpLL4KCgsKK4OzvcoMMapvDBSBz6k8UpF2JGNsudnp89Gm2JFXanjHu2fFgvSPZau4L8yKOcVVtJLp1mRob7phMDVHGNAqFbVuolEttU2Gkb92SZuXvEHTqz1dWEMlfXwBgMJRsqjQkMdmaULbF2pBsM4TWVpTtkxjHZgutZa2qx9aXJt1Pst20eTEXrYZjx15679ZL8BIaF2SQOfWn/8svw1xrowP2nv1rsrXC8qCRX/aTOMKlNt2UJqE3v0HdnkTVnoNlh9LIFuw1ps0rwIvSXXJefP219/au3rt372q8EKtx+NILL6wGBQWFlcBx/Piww2WzagwgoUq22ly4aIU1SmlkzrOVV628bd/3QKK27aYAls6zjZg2Q0i2CaeRKbRtjNg/imqxO4vzkOLibdkajXMU1/TYyvMYBcn0orOEf1wLT5GDxdd3bE5SWT3k7+j2KEm2SMWGYnXa/Xs0VjNFtskk2+KMViQr7zEoWJfPZCs8tT6LyRYA9OsTkO1Lt249sfpY8jFZmcifZ+v+k727DW2jjuMA/oMYTGua652eVFiJT8Hp6gNMazelFCZtPRkt4whIYBBBs8AFfBnwMYXo0Qa6QECm4tmggklm0EwU1BdR4iQsqXshwobQIAhBEHwh+MIX/v53bdNccsn1IU2mv8/a5HI59nLf/f4Pv/+iEbf4tqps9ZW0CNt4p7D9oGeVLQSM1VEC7IPw3Xs/TIM9Z3/6491XXheg93Afj/fqxZ/ZpllsZXHlyWM//+qFg8Ylg4EZMxf+BpLLfiCE9AFWr2GjYy8T1ral4rIHRDmkQBt1c9j66hVsiLw5lJxG7KUla497wJp45a7tkWK82G6V83XTbbZUqmtlG+KhlVAs71wfNY5zsWgInkSP36uooWI0qqfwk/qdQtR4TtI/HhOmjEla4/FjL6u5Aj6OmmZso1xL2B6dEhyjTzyJYcvpYTtpbP35KoZjxy4M29vvuzmGYcs/fbfDPfoY2A7bTABr2xm7YftZ82hGYhGtZ0OwLfRq27CVO83ZpsLQK0aLZNc+/xIe7Dv70Vk4DN5fce8OdmUEhJmL11fgwEWCAb+rnRlXMikCIaQ/ON6tV7IpXSiuKjznFQSPEtLCihfayKVNVWx1us7WSqXZtfGTxk+2R5ENVy9ubff5+uIx2Hbl68btq4C6VrZxAdqY3pGO0ZxxGu39Y4WRfD6PN5DxDX5G+L7j40jRYTRSPqlG81vPjzRjR8crsG3CiMz5I6dh+p5TLGyFE3rYLizFjLCdnWNhO3/fKTZn655iFfBp+2G7nPHPLK8E7IXth6+GYCdeUeOyBDspbcPWc8Z6NfJLZ56DnnGxwhb+i7xf44l5W9cXf/2tF4PIyxG/qz3/yjINJBPSR6x1lJPnPR4PzzslhSUv1rlxxSqeq6a0rdR9rJatVnJ4VcvlasdzuUrVZ1KBLo5duYjbCK9cfRx28l5te3vssu1TfwxqYyA5Kt9uLIly56MYqCZNt6IsWQvPGIfajhXK7A7TmrVNJ/5MHH0Q0C1HbgfH6KTDC+BZeMAjYtjyYkwfRl6K4QIpdtctxsSJI7fAtO2wDUAkspLJrPgzdsIWd9aWFhXoTCstmsOWiWPnv3vbZu1N4Z72IsLSlgY892gFB5FdqH1pmwFCSL+IGLAKFrdxo7zVj7VVnGAt52subMeNahZDtl5J5/g6Zm06Vzmebh5F5sAGb/u7rbfHNKveyDKgjtO2efkJo3/U4yN2RNXbb9XbSumNkK2ytgA7TIxO3TI+9siREzyIT9332Pz4HafvWcB52lN3P7QUmxmdZEuhHPec9sL8PbeNOydGb+MxZU8AGsddQJ25/mJ7bD28KxMRu4at0ZuxtAodxRcZc9ii1Jnn7j2mw7fG1bGXe9yLyI/bfsjeZDIuS/5MEAgh/cV6IzECdIX9LFrD1lefxnTN1WvYScpRqVXwobRpedRBEv4+b7E+ygkW1rbStqgYc7C3KCO2KMai5AXJImpHyqasxcr2sVNTo6NPuEEAzyMPPLDw2CMLk55Y7O13vnlndumrd7Bf1NzbXz21FItNnJhcmDzlAJi+7SlAY1O3d02iTAb/3pW/AgBdwpb1ZiwtopIGHSibnS5aw9YbOvfnc7KssraT26/yxx+cOfMS9FSACtu9SmZmrMM2EqTzbAm5gdR85mHkdPqT+jRuvt0M21y9Xmc5vGOTrQAHS71sMWUrgpVcuTyyfZYPYufjdRfNKwtGwyjJ4nHM2jVoMnH3zTB2cgxAP57WMTQuwOkHYjHM2G+/xS7Ib26eO4Bml4bmHQCCKHo8gASeg+4imUyEgy5h++GH59a3t/mcAUtyo6uUKWzRxD/Lrf753ANkQHWpbGmFFCH9IMVl2AOh6msqbR31arW6OYxcqfiOV2rpza92nP9zwNxtlyOfvzwN1ipRVtxGc9NH73/00TvvdhZshW1x+sT9j6KTcrTt99e+uJYDZJqzbSbedltsFk/Vwx+kn2H7o37C3hzsgXPFBZ09/v3DDycwRRtpK0B7qrmDYwoaAslgJmKWCQYjlLaDaiXosixtZ2jOlpD+iK9rsBeVprBN1yu4KspXzeVyVV+tlk7rV2n9u8ZS5IP2zOV2YatCJ0oR0zZacIwNjY8POZS8vcpWduDj42OYze2HkMsymLCtP82Gjj4y95YRs+gSwqRlR8cPA4jQAx8kFk2tGWVogwtj1jZ5QdqRtdgdYaaVKxJMUtoOKFymbrkaObAcAEKILYMRtqa9tvr+Wnw1frY+69KNPbYHTHzw/fMtde2paejIs8aK22JBVxyxxfpxjFosawscmN1xZGfYihx/x9TU27Msai9t+XFJjF3f2Lg0DF4ReoBfL5nSdjHsAbN4y1Ol1M5/tzOYrG34A0EqkQZVpsM+W5qyJaQfGmHLcWBi3BLBAlc1pW1667VxZUhj1uIg8sEb+umCdvl8U9RmL7zxJQ+dycVouRw1jNgTbf94no0gfxGtQKuTR2+BBvfTk1OnPx1mlSyzsYE/G9dBFGfxYhhiYk9qWzlRKplydD0si02TCNnFlkTWYJuYTFqNSPojtGNzUD0fTAb8M61R63dllmeAENIPLGwFOaRltZQEUkpvvqRqKkjx8LlsSgZFsYoBBY/Vsyft+6QGB2/8wotvXvj8e6xuzyN8ff/7+Mmf3rgwD1141Dym7cg+5fPRMkZtec0DbXgmhqDBefPN40vDRl27wRhhCxC79MvGEoi9CVvgW0aIMX1XtZDCAYiSmsqut36/qkLD2PKK5ewf7dgcXH6cUw+4zAIrSRpEJqRfWNjy2aymZRNZicuuhwBAw9cQ3sIz92SOB9hv2qZ9vchaDNtnv3TA2XE1ntI01vlq/CzGw5e/j0FXzlyRFbf7SdqRzah1QjsYn2ZzGLUsa7ddGhbF6xu//BjrVdgi2VS5ohIG7noikcCgbf1qPSXaXmoTSXJABhMfWQ4mzYLLGdpPRUifGJWtxAFwWiKufwKvllCB5wHEVCIFHVSO+/qXtWhsngdGFDhO2Io3txPscKrGYPKekxaXRV2LrrnBthiOIbOStgEXR2388tpb4IVehS2Kr2KmmpR0eNEygixBk0iyQ9iuBOnAtsHlD0TMVihqCekH8wKp1Goc5NWsE5zZrAQ6aVXjAO2rtk37cjCIOLkwUt5t3ubxl9W0rKgtVjywC+LsdUzaJr/g71uil4VtD6VwCVR3GLVZBYDClhBCdL0IW15NhbMYtlw2oYKcYLcEJZTSuoQtOKq+dLeoPV6BQSXFC1E9b6N2Yjaf14MWR4+xqM2vKbArol7bmsOW7fsRehy2IGmYpF3gZG18lzs2M0EaRiaEkF2ErcombVnYAhs4DiXwQsGg1bqGLQi1tK9z1lYdMMAER7yYL19jiYuMVG0J2a2DfsqbQVvO5xQOdklkv3NsKHnLpRevD4uASStCr8mrXeIWJ2uhjRlaIEUIIQcVtjh4rAj6MDJeak5tVQE+u6p6QOkWtkip+6yq2zRGbW7wm8Px8trn+fIm0yafKFNGOHCsK+cLFR72TlwyGkhhq8bhOQEOTdy0DchistZEoK0/hBByUGEbWo/jVYiFrZTNqllMWHU1bJqztYatotrGrc93vMbDDUF0KmqhGDVC9VqTLwx4tzxSzCluODiiKMKhEVKLJcsRZAUsuCyaWsxQUwtCCNlt2CbCAIo+jOxNrWpsp6XKVkq5U7bCFrhKHeM2nW5qceHDqtYNNxKRc8u5tUKRrTVmrunwYiRfLORkiYP9E5F+XKAXweFSzi2W2kVtIgRm3do1+qldIyGE7C5swyxnNS2bZVO1oCbWsxIAryWyeMte2CKlVq/uPHavWq1Vbti+cBzvdEwrBsnJc3CARPZHZO99oGRLpdadtZ1D0xVsdxBBcjlCq6MIIcS2EFsZI4c1TZZSMgA4U1ockJTStLgzFBfAJpF3V2oYudV6vZabdt6wSdtbbORYRNAnofWmuC0tnpOgC34lGTRLZmi+lhBC7BO0RAjIoRHFxltf8DumbkulrAx2eJ43GfxVb4QQMkAkLaHdIGuYyAGR2NStMYJM/88ihJDDIK9qEpD/GTW7iNbDTiCEEHIYJJpb/R8S1VQqRP/LIoQQQgghhBBCCCGEEEIIIYQQQgghhBBCCCGEEEIIIYT8yx4cCAAAAAAA+b82gqqqqqqqqqqqqqqqqqqqqqqqqqqqqqqqqqqqqqqqCnt2zNo2EIZx/CWQm0oMNsZg8BY81FODSzoYDi5L5izmFg0WtAS6Cy4+0KAOWm4ReOgcDvwRsut7aLHBi8nirUtTu6JEsgoV1jXD8wPBaTtu+XPvAQAAAAAAAAAAAAAAAAAAAAAAAAAAAAAANMCz0uxJaeRBGBAAAACcSNtoldNxHEe/vkinrnMbWFnkewQAAPD2XV7SX3mxykKfFVgZaUsOBZnScZFWErkFAIC3br7d7bZzquZFygrBirhgqWLkjFWRtH6RNToKqKbWOQEAADTuYTtNXky3D1TFKCvYMYKn0QU5wlTqC8GLhLBR5FE97W8jcq27Xjs4s25gwwKLN3YAgP9isnyeJtO9ZPq8bNMxgTKCHSesDunk3g0G56UselHMRNUmDNV0vyTH1qvFYrWmhvmp0lGBVplPAADg2GSWpzbP7WxCZaHyq2LLeZrSid2+vxqPP9xcFGIbKluZfKkCqufujlzyXlK7t/GoSUal5Ym7lbGSBAAALk0ed3lqd39y+1jObRYzzioIo9snbu3VcNjvD4cfC7FNq3fB/SisG9unr+RKN9isFrnVukuNkcpwIcoDd2ZQWwAAR/LUJsn0t+UsXybJrpTbNOasipDao1NqfRr2er1Or9+5fR1bnQlWhadZ3dh+/kJudNd5aTeH1SqghjBlBGdHcJGp7wQAAG6M9qnNJaP54SfP7fW/3GxbtXt/PaKSwfis0+t0Or2zm9cRVkZUJ7/2MPv+6cc5Nac8P15tPKL25lDdC2pEHHPOjuIszgh+snd+IW1dYQD/OI2djZI0SdPYoCS4cNNo29UQG6fxD64km3OMZS5jE8JUgjos9GEQqCnoOq3rYDDUuSxPQiZYhkOhUhVR3Bh7aZ/ci7CNQkNTRGTgJu1A9517c5ZoEpdt+bft/jZzzz33RELY+uv3ne+cIyIiIpIVJNuo2iijvukDt6PbkszO2dok7wTnHv344yOIo9ZktGhLz9douJosRLYo24UshLbuMFNtyA083nDmcsne6281H5GJEFcli4iIiGSHrYNuHZX4Rg/adytD1cg6W//cr49Qs+/y/AhxnKlpqDNdKDlRyhllh+ZsGzMyZ7vQI4cMI2NVUV6I4s1YLnnq+lTyTMQUrowWEREREckCyu1RXrKsJkqi0/nmdrDJeke3U1xnezzVdbYG3xvBuV9//PHXiGaTyvbcS3dOrV42nnuVqypIuRr542vevx3ZfvZZJ2QYN8sfH0Am5JJDSkgzA9e7jpDtdXH5j4iIiEhW8O3QCuQgH99u97Peaarg0a0g/1ByQAt0B6nGv7+DlC74iOn10Z/J9sWK5f0f9pbrylG2cetsG9O+zta58NlCjxIyi5u6lqk2SXArRrYiIiIi/zGmafC6o4S50TeDdGMLH0D/tBwg+OZoEGw71MHTcXsjTx0/TNfHKGFIASUaNmXZLj/9Adkza6sUEIM6/TtIscj2szbILG6UalgZ9iaoUOZtKwPI3pztNXHOVkRERCQrBIXFtZ0Q7Afo3KYztNuj29No4U7oFNbcBuEgH18fj+eDD92QCrpHqcu2lsr26dOnZq1JERexffBWV3r3RgYnynahFzKIPBRSUtnKV1ZC8oQe/tQL6eXDb5qTViN/840aRERERESywHZkdnYOPbg1OirIlr8FvOWfbesglvdb11uHD9O6vj4LqaD8C7ItMu/vPd3bu3pJpX0mlVN/Prh2/S0F/D10fVS2SB/Eonzp5MnTkIBjl04+r4C/RHHo4UoYIrJdSbBNYygDsp269laydbYfXxOnbEVERESyAiaKozXHwT9k++Y08zCVrRVimB1fn5DaHQex2yeGx4fTHNmqjWeLW8dbS+BFPWeWpXCe7cA/OM+2b0xIIy+MQSxyEyHPQyzqCov5BMDLhJBj8BfwhlcQXrYPIcS3ixPINhR1873aBkDUCpR6w70TSgCFQs5OKFLyI+7xH6GAWR9HxvExJpKbG+NobnwLZ7dFRERERLKB781IHbIEfDaQbNHaY8wlV4LOB/1vCuz4YuPa8Vap3S49DPbdHL+ZXtkWoeZ0Mh2AzKjlLqkho/T2UtkiBze2kFcR8tJB2aJ+a9F+z5bWFEDqoF4pIV626oh6Q+qksi2+P4/sFgAcm5m5R282yuDB/K4MkLKZmQIofsyPKAHl7vwDoDyefwxxKL+59tP3XXF8/8010bUiIiIiWSLIAluw7vDBbT/AdBAbWztWYKFtMEY1retSuzQhjqvj76czjfyySnUOBC5zKu0LkEn6FphsF7qPli1UEe4E/GWoXMMhBSipbJX8iT+0xwsxeJlsqWHndx882J2faYAG3qn3Z+ZnCrD5JQCgdO9DCXbs3t+Yn7+HtzPUwbKZ+UlIwMAHu1/FsfvBFIiIiIiIZAcsQubphH6aQmbYtmgmmZl4DoDx+fhNhzQx9on1qylEtqlWIxcbyVklCJRYLCr9OcggYwtjTLa/KRLI9rRRr9efxY9w4aSKkPKKWtmpZ6sV1IrPm/T6ipdTkW0YL0y2iEwIbhPLFoNVIVbdhWK0ahlA2QZ27aJlkY35BvXu/G4xgOLx/IZCscE7+B42IR7bkPO5L749xM/POYeUICIiIiKSDWw7kUyxhJp1dLsSoL8fwECnbYNg4J9htw0YV9cn7NIkOIbXU5Dtrz8y6CaNjPjtGp/XmC4C45SpnistgIzR8huTLdq2M1621USgDi4JjcsFHFEdAzivIjyvwJG4lSGaNJZHZUvx0uC2+KBsw0D5cn4DEBrVFrOAFcWL/TMF9OkumnWGN6satUwfJcsig6L3uaDPEIcv6Oy1goiIiIhIFpBEYleU7dYoXiphenS0Hyp3+FKpSnbYngQYra3SpDiurqcQLL33+jsRfG+wFvL6G3CAWr3ZGLVrib7UzGUukYyejZGtU3lYtiUc0ZyuLdISUvbyKQ0hFdUlDSqiPwYn0LMnX7jEEXL+yDN+VgqobL00jg2jbOUsekfZehPJdnd+4/GDx/jvzHyJbH6+hMlWvUHFS/36gJn1gWDeEijYmC+DOJS9vf1WSTwG67SzN09iW0/7ldzS7oEj8Q58nFsG3HAkLSPduaVNAUfy/s2ruWVWBiIiuaR/lOkUgnSrRr4iOQigM3RuY2TLNknuj5Gt/SjZylIpkGKx7K+0yXj3UGR70mSqgyinTEZtfcZC25bPmGwpCyOHZXuGELrSt8hofJGfs6VZXZRtAZwkpIbOKeNzGSQGY9onT554edk+eRI+IFvFwwOydT9ksr0/z5gpUcyjRAXZCmotnp8/hneTwDM5vyHo9x4+iqfTOW2VJKSys6cN8gDFlVsdn+SWjltXjpCF++Pr1z/MLdevvyWDpLSM9Th7c4vTOSQ/QrXD4+utuWV9/aa4qFwkZ7BTCPAH88c64JEEgwaIYN3eeZMfMBeTRpYelUZWp2nOFl1WYWyAKC9qayyaM5AhxhY+i5Vtb4LIlqgqLp9gBVIvCrKVyVRES0WoNBGuNolrV54gKwoqW9nKkxU5la3yz2W7ey+CsjhWtscw1KVZ5IORLUziy32cuI1D6RyrlCTBMJYPoa2ro+NKe2FTYS5pv9LR4YIkeHH/lKnjjbnkOO7W8qEXktDndAb7JQYKvrJG7I+E75IINzEvDAlrxwz+407CLgLsgXBh1/5uZ68CkvD5+PrNCWlumR1ebxWDW5EcssNvgTwtsfKaRZTCYfJzwaCP2lbSv0VHbMessp1IWiAlbR1O29KfOq6mBmKQPVtn4aohM7SgYZlsefoOyRaKVAThqooA1FHZyksIscgBKSfkGUiIG1X7MCQHlG0YbbqiSEm2ODerFEagX6OyFTS8i1bFOHa+ARAZ1k3xhchfzszIEv1B3ImyTRratkCu8XR0tLtQtTmlydX+SYcniWuvfdiF24LklsYj9iFt6en1WQ2S3FJp7Xf2yiEOtlrQYZfmFrvj5nqrGNuK5AwDL9tOaz/mjJV046gdHahp2RQ2t20wt91fGaQjdqwQQbmeNI/suDn+edpke5Z7qQ5ikF+8XM5VQGYYW2CyZaHtIdnite5ZM4e+PRMrWyXK1iQHpDSpbBUY1gLCyxbAy5/vww79kR2UrUKQLQVrjcuw4z6a9KBsa+mKWzmAHKd17ymhDC8K/uFMwvKoNme/QZKEyv6ePsg1t9G1hbnH1d5xGxKh/uYDPME59yQ/YaO311cpyT1YAzAEiVCv48p8ae5B294EEZHcwLa0QLeiTlGrNF+8tQW6OWwGwSA8pbI1xIS2VxP/LdUxsT4MaZNtKakphhiqVeaaG5cgI7T8djCyRVoOpZFPn1MDvIjtV9k6Wz6NLNfw4gWZnnAvQ0JkGNgy2bKdK5AQUOThA7JVRmVbsEHX1uLLJJXtiahs5dj3AJBj2NjYxUld+pBfdXsP4hlx+o6QrTPnk7auW1fywbVo2yu3XAlToNfeygfXJj87sq+nMx9ci/85dTsVkIDZ8Zv54FoMbofX5SAikht02xGdombpzWikGlmCmWMlTugmOj/+6vgw5mQOY5dilkaWNtm2LO9bFiGKX6/VausvQkYYWzgs24Xug7K9KNRBVfNbN5oJKSpQUtkWwylCypUArxJSpUwi25VoZBt3mJ7ygGxlIVaNjBQ/3kCR3i/D1u5uAyCTG48BebCxWwwUBR2x8bgB2CyvMmFkO51cttO5TyN/1NHeVJgXtHd8BAl46wM8EDgfaOy6PgAJ6O7F+dR8INnf3a62SvMD+wSm3kREcoRk5w+hTuPNFm/cbR1s7xjobo3xgS1yc3x8+OZhrraOD78P6ZKtYWnvh6eq6HaIbXt7Wu3y3v7LkAFwjW1cZPubIka2r0AZwZj2/EsaQs4BYA+nKTrGL/1pUBFSX1dO6IPEyA/JVh3yRoLbsBLUMWlkb/gh3wuM4oYG3qpqmUINiFIh52/xEkHR0FAACFtumwCFs7vyiFAk5yUjtz8pzBPZFn5yBRLw00/H80S2xz9MmEfu7c4P10oMvt4hiEfdOpwfgS3KVswji+SQ/miqWAKVBswlI0GQWKMeHmUrfxjvX10fj2N4FijpqEbWXdjfw2Ns90lpCQg8g2fIY9eeHxhpDmyZbONCW7mZkGr8AHpC0dYBtjls1RVrieYYQK2ZUDTnIQnKqGxXQtRtD5+EWXAbgoaHgmzV3vCnAiH4W5Th7heQiLFeSWUS1/qc3ZBrbt8uzBdu3044ZftTY77I9ptEslXmj2wlvd0Qj7L1at7ItlWUrUgOwZlaZlvqVN/W9vacj1o4GvMG4TCy9wXc7zNkkCqv475RR8v2zP4PPBZyUgZMtjzjlZB2sBQ5gWx71MCjPn354gm8Npyvrjl1UYisX7z4Qt0J+YWLz9BPV3D+1LOXLpbAn8lWEY4cqxd+8gRfQ0IYK+OPkZcJd6hfvPtbKO/PP05WqzpmqEzoWsNY7rPIqcnW5XGlWlbs8TTlRraNzQhtsGuSQY05kq31DwxHDLJZ/1Fke7Rs7Q6GNHXYNJUoW5F/P9GZ2Td90V7faMyEbbqxvf36a3O/PppLIlum1j2tpQF47u5Fevw6YKQ5sMUKZOdCjG1HIC0w2WIjcqyeMoyhLYA7LASytMVUG3LD32Jyd5cuBEpMW8+Yr7LSwEMvkZbVN5YPe1qkJNszz5xLdeK16EJ7bmTbNTCwOUVHDiCxD2Lc2zi1iWPSL9tUbDsyNCIw1JZ8+NDkUOYiW/vsGuNPtRj18RrPLHbEDUgIelmUrUieYsMiqQgS69Y0/b9mes4mYZ10CVCG0PleD849wvg2YWSL7F+MDPT/wHrSHov1oWdxjrbHOQKdTqezh69MRnrkkB5wU4uwEijuyMkDXm9soVT4U6ZaJfxN7mMp1SQko83p7B6Ko9vpzP26n5Rk6zqt4c42pRSwek4Rct6VbtmmVCsc0Go5I4auAyqtVj8QE9v6A5vRQYQE3LmIbCvbTBynRTiO+9qWbJDPRG4YMhbZDi7jJ+AoZvufuHYt4J+ICFpD36PVVPkdhwbM2hP61B+4axdlK5Kn+N5kx+zpMMrdQbAJ2GTFUZlFZzW88dqvj2IOIji9x9waKAOkYJHZdy8gg/Si6/7NOTbS1yLXASKXK1r6pofGelG66Qr7QnQDqRAg7Fg9N4A8FA4XRwqlBOWG1PC3KZmcLIHk9P1yKwGLJZAHpCBbzzOEVEVl2+SKNrHFmsJQLAsvcrFnbFCmI1vmUcINNLMrtWMjr0g9qcJXSqN7SZAtPmqM5pWzIVtrG0cY3+mwQ9hQqpK9FVtUthpiMkTu/3iQPtnWkwjaQ2Gq/VDbsUS4NbsgW8IIOKJjBwOE3I25Zy0qZ7Ls4Fv0lWEXZSuSH/RHtArWUXrl/6EbW7DUcnZQAsKSxkyuVRXV1TX12n3hbv9CMaQZXUsSybUoIE14H9JNpNzAI+SSUbr0onOHo/njjNHe0XH7ykeHuHK7o6MQck8qsj2tJUamTJen8Ey7x8X3u9rxx4XtJk9TexM2mwrPXT7fjmM8Lg8+a6Lj2aBsyJb43c2reFENNKNFp7qam9GmelLvbozM6E75/VON2Hd86jhKFhuNU1P4knnZGnx3vl68RIhlcfHrERtO3Ep8BqvN1yaxUZnSloHO5Q7dGZIYbDarzdBWaaWxrk3SZ0UMaZGtkZClywHEbxfmbfGVWlE6y5vRQZmQYpO6dHZQkC1HLH5/oBQNPevAIcJYtZ+QtUH6ltkJ7MNxkZZDqiGrajv9pZHUswOxT4iyFckTOoWtLTq36EVgq3OHN3AnZJ8T43v7e095veotJyvOVpn3+Bt/H6QfWVtnWxwjnW0tkDbQsDS4pdcwlh2vRODzxqGHqFo5ZJD2W7fbMRo8CHa0f3IrD2z7F2XrwnOFOY25yIMB7isWjan6pKWmyVV4yaQxv1RqqZZdLi097ak2Gy/Wa/RnMdz1XLZo9KcuWUqbsiBbLVlqbrYQjqhohGtR6c1+90AVR7TmgU2LeXNZP7BpNG42Nw+UmzSm5anmxsYlE6c1LaFHM18gZdPBCCEVOh0M3ai6c8l0B+5U6VWmZ0esEuuk0aSxXPJZfTXl31lH6m8sfmfS3JjEB21nTfqzizduTFamSbZSUCODs0bz8oTdETBb7g7OLptUluUJhz1gXvZXaUyrUseqhhBLwB6R7fIgUk5DW8caHbsqHaQDTEv0F2jwSx7EqDbSWrPgt1+/NjixatGqzAGU97I54Lcs2+2ibEXyA5YzjsqWZZYhFxTXnr4b2H+6t7f/TFmBrKDh3P7TH57u+22QAeSdPQufxULncHt6pxWQRorDNLhdoQlluZBLxrpjNVDcXiVkEs+t24WJ4jrspNsB547U52yjsvWcURGeix7PK0TA7PE8SwSeBQzeiv64LXd5LhMBLguy5eqJsbmL05hRtpgw5tkcIBS/H1WMd3TOVj2gIRRLV3Nk0GpzYzaW/lRO4jdkkOgW+c+y2EZ4TH26SY5QSq0+FdHbJlmud8TmsxCBO9Y0yTawdheZcJgwDTxo12MAK8UmUjXhKCcCq4PYT2g2WJBtKV4H7xJS7sAcMYKNKoIYB4Xvj/M7HKuE5y4OQ9bsZsKzNChVEY4QiyhbkXyBFUkxYoqjcoX1hD/gLwGB2v3xwBkdZAbFUM/CAvMstpz0cM5040XTIvxSW0U4HCqALHG7I9muEU3tHVcgDWQvsm1yGQk5eQEnZjWudhRGxSt6QoyyC2iG6lMcITVwinDnPRX4/PLzHOEKC/Xol5dQGfpsyHaVaBs3Sf0yUXVNccTkD6iIpsuvwtZxmmTWl3fhxS9fRl0ELATDYC2xDNxF2Uw1Z0+2Bt0dui787EgF4RZrjYRM2m7gN1enx5YVC6RsQxwhl4qw7yX4DjX1UkXKspX8uWwF/DRPHBhc41Csq2jXC8vUi/iiv7iEkal0rZRwgTUpwmRrx7FVDjrsQim+v4y2ZrHPwn/JdnSsPoC/yTKLX3f9XQdauB6f0JlfC8F2QJStSN7AdrBgRIujckiMXQtKFJA5ZN2o20hI292XGakrwxjbekFADdlC0ZF87+GmKx2530EqddnSwJYjFo9STc9YegbNoYbzKFtaglwNUC3IlvCyvQyeUqKtPU0fwzkuO7IN6EnXElldRdkGqEubUQmbbhMxut14X9XVTC/+Rgwfm2HAbAocJ0S1OrC5udl1PMuyvdFmrbyzuCjpq0fFtqGNAO5YTHeobK1DqDcb4KDndTcINwS68gzIFh1aL1Q5WYhmdnBNiypdxVtw1BPVrBq/zInBw7I1YmBrwRgXe8CPHlXzxqYGXkO5+mFw1WKUOvQ4Z8v/UjX/nMrW7xALpETyiP5RlknmG6w46v+CfKjnMzTtSCaVXuyF7FN4xN7DTR/daoI0kLU0sqcIgy5PoaeOkBdeQKNioRSqDNPG3DmX5zQXI9tzLlcF0bZjFvkVT1NTVVZkS/zLJLBM/CjbqSUSYYkWSEXW/DRS2W52YWDrFo7H5e2jrZhqzrZsvwNcaf11FaEMDfEFypXY44vI9murFTu/NuAt1kgtJpet7y+nke/6kVm7fZlopcvE5JjVEgHVxCrhZh34QDXLqpGjsnX4MQBG4QqY6O1dDIqZvFdxvMOO8NXIg/hidNgda/geqQUF7RCX/ojkE/3bcfx/XIvIOtv+i0eCtHe0J99uqT33JVIo26YUZFvqoiVeh2T7AspWL8j2zB+y5ZhsTwqyrfa4siXbgSVitpCuZZQteqCqvur39s7vNakoDuCHg9UwWKWpIEJiouldURenq7woFvdSFMGIC0MQbFy2oMHegrHAtZ9NGASNYT71sgd78mEgiiDaQ39A7/0B/hN9z73erW3XaSu9q74f6+yczvEmvnz2PT++x1P3tfdlW0id12V7I8VkCxuSi7yq22FOI1uYbKtxS+wGCC58HWT7SZWt/7BsP2myjcBO5eofjGzLDonB5BkohiAIhZjW7hOC9XoDZOs2lK0PvMnEWgR5utSxNanYka0QFOr1etPHZMsO/xjJNiiKKFvkbBE/AkH+fv4C2fZCOZCtk/48jexRyMPONPIzmyNKj8sWxt9JEhg6HNm2mTlTdW0auW3LTLMZYm9nGlmX7fkADWVIzmuvTReLuemHEdDIsNdsq3HuOSyCWkgVZLtBqYeQPZd9L3ZItmwamX4iMeEPbpBqLokMq7TjonYmzB0Q+tKS1Kw0xcOyLUsHspWkQgDea7XToGNJqlSaS0VoOphxYWdzpWKtQ40s1V28dUc9+vPTNDLKFkGQYTCymT9pGlkmZtK/bO0en8fjCY94KL18AeTqSo64KfVFoQheugWOC1+mx2U7lgxRKjxzMdkOPIMUC1rZx8kw2eYojbQLERBwwktd7YQqWy3AzYC8GrfvQA3cLOyer0Nt+LJlTg2+crrYtigvDbQuhkC7nLpBSpftV9Ki1PXV8yc3SAl1H1BvihCWqpuE2ZJrw1lje4sPyZbWyrpsXY2GQGGAJAk0UHPCG+vMo7WPFUr5CvuSywV4VqEGTZA4/JvEnlcp2sHIKFsEQYaCLVvqvkGq9N5GTKT/DFI6I2m7VnmoKA8oI0AFWYmqtQAN7x/9GVNkH6VO5aabAm7qGsqabcYLDnAEQbGZxv6pHmjSdkENX9UMUqQdoAxfKiFQlcj0UGTLBOoB2VYpbV3z+5epRotU9cxS+tGfrzFWRuMWgQLuPyVbnupUJKmiJYWSyl7KsDfZUVqQbRDKpULn6A900w53ypLUtFOGVxvgWapRlRp7F8MNgXPk2NEfHmWLIMjgyW+mu9hWhi5iHv1vkBoTeI1gWjlIakHGwpHwzRANJhVywRcZf+imE44H/B2n8pTn03JynBfGZJKe4K/f/L01W9BcbxIFnm9nGqyo8cFdWI6FrAqRIiSuyAkhV7sNHRDZFtiPVDvicocakFVq+jJkLPb6hrVBavXOcssPzl1e3otBS7DbfXue5QlLrBqxuyMtuJvi+nJYTWrBxVaXl6v+a9f2oNFi0a+lD+A+25NkK9X4DgJbkK3zfFliOq173V5fkyW1CO6IYo33lCEVRcRbk9TIVuAZnqKVjW3C2FC9DBpuRLwNUYLMIfAlSyK0Q5A/ucIWg/lQiCW1CO0ntWigbBEEGTyX3mfBPAZhrZzOmh/Ykrl+Lo9XdA7SNcpj0au3CHEGqM92IXp3jJD7lN5V1Cv2ZDaQlcn03au3bSTtpnzytJfHb33pQ7Z6luNUp1Cbu7vQYjW9V/8BXblEp2s3d77vdI0rU8SADx8sfdqWJWLUfnDMvdzzxXhMrce45xtc3K9dsad1s5Krfn3kJ4RtoupvzXbyhfHl8VYNaZ9Oi0lQzawIDS15o15C15E3iVpjp6n17SdpLHdq1uaOWlOLw+kaf7o8vkwQBEEGg5LNzoFb2UuD1cA9c9n3pp+yJSStB959k5S1I7dsJnbCTul9tksqcPl6gAac8pGhaRgkTHgpHZd7PjZtHOfvvoHA8zQcSDSROG7mX7+IIJVbmCYGbEwucpZTwfkPqkaPiF+m1Bv1UBrq63/gXsy+Igasf9sRe1yoZ9Av9horaqV4vEPs8lBxffstQRAEGRBKaRNuIoCXRqea3SydAdeS0WwpOXIa5KduCgSewa8PYcqwP5CPDXroooxw7/AZFrAvEQMyb2CH1BkgkfjyzkYMuDI7w1kGgv+5QBmhjT6XbF8afsC32/OS9QwgWp+sEQRBkMExki+9P0Ipb3o+Cz20nUueSreKc3wi+vSCAnG6fOvuxLNHY4qBku+NRyfGb8rJXqpNznVbwM4tTKXM120qsbVwnhiyOvuCG4xuOf9eK9qqLsb6GjvzeZEYMr+9DmGm2YjWNQxsEQQZMA7bERzkrJDfLIEuT8EosdnIqFq1EbiPWJENUNggm9yD5Ehpc450YWthC6Z7zSUx/X1hinRhZnbGwsXgpf2BAmDVmN6K6S9Ar6kjAL04DMf+cnHCiO+/b/+ZsaMV/+KH2Q3ShbXteasomYu4s7aNK7YIgvzH5GGWO28uMKmeJ12ZWljZmjKXrZU3OdKVVUjp/cJcZiYnN0g3HPPbT+bXzWXtG+6OQhDk/0bOZzfNJZuXyQm8nlpZMJeVqdfkBB7PTM6ay8vVc+QE3s5/2zaXJ+s4h4wgyP/O6DnZVEZJDzKvTSU12vsbfGwm3KWeH/CtqUjmn3JDEARBEARBEARBEARBEARBkH+OHw5J0y8ZSsaoAAAAAElFTkSuQmCC;" vertex="1" parent="1">
          <mxGeometry x="12" y="1000" width="802.94" height="359.21" as="geometry" />
        </mxCell>
        <mxCell id="AC7fx64Xs-f3FDyAJllu-6" value="" style="shape=image;verticalLabelPosition=bottom;labelBackgroundColor=#ffffff;verticalAlign=top;aspect=fixed;imageAspect=0;image=data:image/svg+xml,PHN2ZyB4bWxucz0iaHR0cDovL3d3dy53My5vcmcvMjAwMC9zdmciIHhtbG5zOnhsaW5rPSJodHRwOi8vd3d3LnczLm9yZy8xOTk5L3hsaW5rIiB0PSIxNjIxMzMzMjg1NjAwIiBjbGFzcz0iaWNvbiIgdmlld0JveD0iMTUwLjA5MjAxMDQ5ODA0Njg4IDUuMTE5OTk5ODg1NTU5MDgyIDcyMy42ODU2Njg5NDUzMTI1IDEwMTMuNzY0NDA0Mjk2ODc1IiB2ZXJzaW9uPSIxLjEiIHAtaWQ9IjIxNDEwIiB3aWR0aD0iNzIzLjY4NTY2ODk0NTMxMjUiIGhlaWdodD0iMTAxMy43NjQ0MDQyOTY4NzUiPjxkZWZzPjxzdHlsZSB0eXBlPSJ0ZXh0L2NzcyIvPjwvZGVmcz48cGF0aCBkPSJNNTU4LjA4IDQ3Mi4wNjRjNDguMTI4IDUzLjI0OC0xMy4zMTIgMTAzLjQyNC0xMy4zMTIgMTAzLjQyNHMxMTkuODA4LTYxLjQ0IDY1LjUzNi0xMzkuMjY0Yy01MS4yLTcxLjY4LTkxLjEzNi0xMDcuNTIgMTIyLjg4LTIzMi40NDggMCAxLjAyNC0zMzUuODcyIDg2LjAxNi0xNzUuMTA0IDI2OC4yODgiIGZpbGw9IiNGRjAwMDAiIHAtaWQ9IjIxNDExIi8+PHBhdGggZD0iTTYxMC4zMDQgNS4xMnMxMDEuMzc2IDEwMS4zNzYtOTYuMjU2IDI1OC4wNDhDMzU2LjM1MiAzODkuMTIgNDc4LjIwOCA0NjAuOCA1MTQuMDQ4IDU0My43NDQgNDIwLjg2NCA0NTkuNzc2IDM1NC4zMDQgMzg2LjA0OCAzOTkuMzYgMzE3LjQ0IDQ2My44NzIgMjE2LjA2NCA2NTEuMjY0IDE2Ni45MTIgNjEwLjMwNCA1LjEyIiBmaWxsPSIjRkYwMDAwIiBwLWlkPSIyMTQxMiIvPjxwYXRoIGQ9Ik03MjAuODk2IDc1Ny43NmMxODMuMjk2LTk1LjIzMiA5OC4zMDQtMTg4LjQxNiAzOS45MzYtMTc1LjEwNC0xNS4zNiAzLjA3Mi0yMS41MDQgNS4xMi0yMS41MDQgNS4xMnM1LjEyLTguMTkyIDE2LjM4NC0xMS4yNjRjMTE3Ljc2LTQwLjk2IDIwNy44NzIgMTIwLjgzMi0zNy44ODggMTg2LjM2OC0xLjAyNCAwIDIuMDQ4LTMuMDcyIDMuMDcyLTUuMTJtLTMzNy45MiAzOC45MTJzLTM3Ljg4OCAyMS41MDQgMjYuNjI0IDI5LjY5NmM3Ni44IDguMTkyIDExNy43NiA4LjE5MiAyMDIuNzUyLTguMTkyIDAgMCAyMy41NTIgMTUuMzYgNTMuMjQ4IDI2LjYyNC0xOTEuNDg4IDgwLjg5Ni00MzMuMTUyLTUuMTItMjgyLjYyNC00OC4xMjhtLTIzLjU1Mi0xMDYuNDk2cy00My4wMDggMzEuNzQ0IDIzLjU1MiAzNy44ODhjODIuOTQ0IDguMTkyIDE0OS41MDQgMTAuMjQgMjYxLjEyLTEzLjMxMiAwIDAgMTYuMzg0IDE2LjM4NCA0MC45NiAyNC41NzYtMjMxLjQyNCA2OC42MDgtNDkwLjQ5NiA1LjEyLTMyNS42MzItNDkuMTUyIiBmaWxsPSIjNjY5OUZGIiBwLWlkPSIyMTQxMyIvPjxwYXRoIGQ9Ik04MTEuMDA4IDg3Ni41NDRzMjcuNjQ4IDIzLjU1Mi0zMS43NDQgNDAuOTZjLTExMS42MTYgMzQuODE2LTQ2MC44IDQ1LjA1Ni01NTguMDggMi4wNDgtMzQuODE2LTE1LjM2IDMxLjc0NC0zNS44NCA1MS4yLTQwLjk2IDIxLjUwNC01LjEyIDM0LjgxNi0zLjA3MiAzNC44MTYtMy4wNzItMzguOTEyLTI4LjY3Mi0yNTEuOTA0IDUyLjIyNC0xMDcuNTIgNzUuNzc2IDM5MC4xNDQgNjIuNDY0IDcxMi43MDQtMjguNjcyIDYxMS4zMjgtNzQuNzUyTTQwMC4zODQgNTc4LjU2cy0xNzguMTc2IDQzLjAwOC02My40ODggNTYuMzJjNDkuMTUyIDYuMTQ0IDE0Ni40MzIgNS4xMiAyMzUuNTItMy4wNzIgNzMuNzI4LTYuMTQ0IDE0Ny40NTYtMTkuNDU2IDE0Ny40NTYtMTkuNDU2cy0yNi42MjQgMTEuMjY0LTQ1LjA1NiAyNC41NzZjLTE4MS4yNDggNDguMTI4LTUzMC40MzIgMjYuNjI0LTQzMC4wOC0yMy41NTIgODguMDY0LTM5LjkzNiAxNTUuNjQ4LTM0LjgxNiAxNTUuNjQ4LTM0LjgxNiIgZmlsbD0iIzY2OTlGRiIgcC1pZD0iMjE0MTQiLz48cGF0aCBkPSJNNDE4LjgxNiAxMDE1LjgwOGMxNzYuMTI4IDExLjI2NCA0NDYuNDY0LTYuMTQ0IDQ1My42MzItOTAuMTEyIDAgMC0xMy4zMTIgMzEuNzQ0LTE0Ni40MzIgNTYuMzItMTUwLjUyOCAyNy42NDgtMzM2Ljg5NiAyNC41NzYtNDQ2LjQ2NCA2LjE0NCAyLjA0OCAxLjAyNCAyNC41NzYgMjAuNDggMTM5LjI2NCAyNy42NDgiIGZpbGw9IiM2Njk5RkYiIHAtaWQ9IjIxNDE1Ii8+PC9zdmc+;" vertex="1" parent="1">
          <mxGeometry x="190" y="650" width="49.94" height="70" as="geometry" />
        </mxCell>
        <mxCell id="AC7fx64Xs-f3FDyAJllu-7" value="" style="shape=image;verticalLabelPosition=bottom;labelBackgroundColor=#ffffff;verticalAlign=top;aspect=fixed;imageAspect=0;image=data:image/png,iVBORw0KGgoAAAANSUhEUgAAAWkAAABZCAMAAADLqCVlAAABjFBMVEX///+jJCLcOCzcOCyjJCJJTE2jJCLcOCyuKCS3KyXLMinFMChJTE2jJCLcOCyjJCJJTE2jJCLcOCxJTE2jJCLcOCxJTE2jJCLcOCyjJCJJTE2jJCLcOCxJTE2jJCLcOCyjJCJJTE2jJCLcOCxJTE2jJCKpJiPcOCxJTE2jJCLcOCxJTE2jJCLcOCxJTE2jJCLcOCxJTE2jJCLcOCxJTE2jJCLcOCzUNStJTE2jJCLcOCzcOCykJCLbOCylJSJJTE10ERN6ExSBFhaHGBiOGxmUHRubIByhIh6jJCKmJSOnJSOoJB+qJiOqJyOrJiOsJySuKCSvKCSxKSSxKSWyKSWzKSS1KSO1KiW4Kya4LCa7LCS7LCa8LSa+LSe/LifALifBLifDLyjELyjHMCjHMSjIMSfKMinNMynOMynOMyrPMynRNCrTNSrVNSvVNirVNivWNivYNyvZNyvcOCzeRDngUUbjXVTlamHndm7pg3vrj4nunJbwqKPytbD0wb72zsv52tj75+X98/P////Akn19AAAAP3RSTlMABAQIDBAQEBQXFxsgICAkMDAwQEBAUFBQVGBgYHBwcHiAgICQkJCQoKCgsLCwwMDA0NDQ4ODg5PDw8PH09Pi811PyAAAQn0lEQVR4nO2d+2PUth3Abw/DHqZzcbl2hiszXIeJW4OLywzddnSvHozX0q2QLWvGkrEwxlKS0BAuaUjyj8+yLOn7lb6yfSklKb3vL70csh4fSd+X5Gun80qI2wv96qMf9pw2j3hJq2JAgnTcJ145caJBIV320U2LT7nX/IybD9LxWukOxn3i1ZM+Az3I2MeSeRsiflFsvFbCsZ949SQr8Q4K/eHk/KPb+MyE9F6E0x2EnF8FvUEmpPcirx7pw29NXVgp5MKZt15Wk61EkXarj83PHGTSb723ouTy1NGX02obUaQ7cfkpan7mwJI+OnV5RZMLJw+/hIbbCCDtMNRtPOWDSfrwyQs6Zi5TB0OLANKFAvGbHY/OwSSNtIYuF0+/9vW23kYQ6ZZy4Ei/duaigPpka31VEn6qYL+37wv7FSB94jxcv6Pdnc21EvPmzjZa2Gf2d2F/00kbRnB1Z3d3d3u0yf6zrmmR8ydebOO+H4ZBncb1QAFMWn/K9Xuhb2RCbKQ934eFXWVcEWmnKObXGl63sQSXwycIIzjaFbKzavzj5fEWtls4CVnAB9dnaaFMLkmnl1bsBnnUpR7uxlXUPcgiD/sevQw5eV6UiZpwNEORdnpJVVUccEZervJ3irSvKiW71+kEooNZv94+H5sijN+TZ9uS9Bbx74Xfd6K938fHVHS0mwmsfT7cUFCs+mrEe+qJUhIRrih/ul+VdBNUUwAqMUk7fVg4D6teygUgSOPmUaVkBxNrZvG1kxdNiKvrW7tQtjeeUKxbBzQVncyJQZ/Y8vEwRsitAhIbBRRpHCMGeolUzZpB2s/1wh5F2mw+0VdtZAyAVCKkT7e6uWvK83VThay0DWhCMRzYo4JDVx9vWQj0lJgJQFrkPTwSdCE9G2leOO2xufB7ZSN5YJKumo97TAv3OHUtHV5ujaxXfulH5XgSY/zApzNkbe3paLQpFcjW1sZIN4tCpo61Jg0lo+Eg1B41EyZpv6M+YxFUNNJlw3DJl0S7OmnefCRXsRMaqP2qK6JEucK10WOfjpYnjPJI1xz//sun+IuLJxvMI0W6Z+cYi37bV7RBOiULiZow6S7GIwjlmUa6PNFBhsMrvwKbjq1zpLv9LEfpgaNnsE/3xdras9GztbUvNKgjw/H4/J9/vnXzykcf/wcXrA9oCNKJAzjGYbE5IwW+2vWJ+ZiNNFjSaaIqEhsZkS4PEHTTFslaUZf1w0QnHSD1AGaTEM2n+2LjOdDHWxuQ9ur27iZazn+7VcjNK4X89tP/IdZ1fp9GOi09XmlKpGsUCPZ5+Q1QLnHAFCUij0nLFsLS0Iq6hXlFpKMBFfdEFOncsG4lajlNrF6L62eEKOvbhvHbBsH3012lO9hyviVJX7ny0R/+hRf2eRtrRDp2ZSdLAavLEYSYj+zIpZlKdQv0DSYtJkEM2y3Nl9z6kLQ7oIxWpao00sQZgzeoDjFFvZZziGOadqbcjF24jkd4OUPS5sL+8HuNpHPBQkDF27hXfeuoj3AHO0odk6QBQS+MI/kgJB1Z6AQmaTLzHYJOu+T2YHIac15ZJ0Gb4ffn//jTrVsE6WJhfwzL/biJtDTcjra/hVQBRU+ezGJVqVDTa5p2ZhHpnFzSHd4gJk1GfKznMXiGvgWhAQQRN5aRVu7vEDQk/Tvkhjz8ATkERVr1qlLCpiKsXFgZlgzwQDyatGoh6hKwAWnP2EdCejppi62LwLQxNyanVvVDjeCahfSaPiXL9++YpHUP5N61Q3TfJAdlPSrlYe5PPgW5VB56CaF1MGk5AeXDSaitM0Ca1UsvfE8n3SOLlXSl+im7k/eNdX1NR72+Q3DeIYOU/8qFfZNYzisrDz4ZDhtIg11b68GxjSvyEvoYBFPNn9brw8keQLpvv4qjk7bYOhftir6c3R7s6nA4s4T5PNnQWe+MyLi7XNh3Benf/FFzqBnnRtLAIaqJ/jg9gc6oLCdJE2GQMoiQdGJT02X0Y2SYKBkgM+irSQbZPkZDZ72yNtoSHvXzL0eG4kBSmsabv/+r9vXC7eGwBWmwaxtADzzTm1CoCNIUamUV2pGmcnnNpFkiWAVhItvHeXxyv5amNg9PR19uwbzp/YXPtaU+d2M4bEM6A181gE4Jv62eNI+ULai/XtKFON1QhKapq0gPhzfuLTcifrL2bGOLxzU7ZNKUy9LMteGwHWk4wgbt0RufNIgx1QozScd20gONtC2tT5AuxQvLDmQOID0cXpvRjaO2jKHqfmYtytXzHkjXWkTmN1n19MBKGh7PVBIYpEPm2JCCwhDWZUucXRMYdgLWfoxIMyWyQKB7umWG519aMC8v3BgO90i6ctYsg+5Im24Mt1tHuhAvCMEsZgoOeJ4+Fwl00npUBf7JeopVmgtfI10okTndOhZKY9NwRmhfZGn22lCX79v7ppEOKEpQhD+thw+0P43FUXqEQwWkHSvCWCdtWQYZtjiaMC80MkgzT+SBgXB1/Tki/ZTAvPLgjlnX8KyldYK0CAFtOlPFIubZayPpjp5WgdF4TEWmokc4GidjSd++2kX9xaDOEngo67i2Was7TLXB5NKbtsYJ0lIPWwIxlfdAeQVX6mGNdKEg0WGpo4p1MGmkJDAhnTQ5I1md8uBPsiV/iiBEWsfV0bZNd1BqYzj89c8tSrpDk5bZZ4TaCULxtpAM4VNF0LXk8njiKQdV9VHtKD+dDShNHYCJka0Tybw+/bWSqBroEWpZ09bx6RalO0i1Mbz+2eOV89YDRYq0Oo+K1crhR6R806r8dC52cWDLT4tpS6pZcuQ0+SZpX98oZcs5RdpkGqCl7vmmjcirp06cfzR7lVzYlHXc2NnA34hgUOM8z/91ahzS6kAq71exB3ZIZIKaZTG6fjdE7jIiHYKSYRgqXy9XbamW+ybq8owhN0nrqHtqJTBJjGsJ5e4q/KWjFxiQx/eukwv7jmkdV6DuWJqj1MbwzqIs8aMxSOOTmCwBvpkvx2EXRNqtKWWSLrcTVDV8C0R6jFhiTeFtsrJHwByWf4fw2oQ4Z/xQILlP6oDa2PHhDPXE1buPQJkfjkO6Y701A9dHK9Lm/RYuYp9rpHnFWY8vR5ffo4rMaJwr+7jKeHd5I3CVVzpHJJb4pixPQQEUmxKxxI5aMCjUxr3HoMzyTPvIpY5k2FTAJG0pSZ0jlhVXk1zspCST9Zl5D2EY0iQRDWBfSV5yKiqqEh9ZuQlmEL15UulS1pH06obTOFN1/8YYMSLvJ7kU4ba2o+5jLw/fs+OSozNs3HSAw/asynHrGSZP02DmtTtfK1HZ9+En2Owt3qWVyNxyI2esNqpFbyFdISGco56RaUrxWIyrIlms8FbLkR4yrKmYMb1xBxjYlE9JAOxkoRf4Ez7QcTEZ0frgpoosMTTS0xbreG1WFFu6R3HGakP6JDaXmg+K8vddvKzNy5y4QB5WN3JSNQ1yqyDWuCaHilW8Xljs+TCQ/QrALHvS8DndMEqSKKQOKEXLYT9J4jBQJbh20FwMi3W8PTs3NzdLKhhNbagEtY209WCTDSSIq9WV9sk14/Yqry3llseN8jws6TgJu4kNALhBxLRlahwkvnQR2mEBuxgW62iRu9hmwgS1NUx0e/R59FcVr/n92v0RpR30My6LdTSEBYNIPaMNYQ/Iv20CqehnXA9p64hkeh6rDd1WTkgLwVw0F8MaOwq5u4iKE5mmCWkhBjw9PW2xjoVc/Uzz6oiSl76z3wM8MHLJpHO7lXXUvDo6QX3uyH6P7+DI6wRq4DtXSmReVyLXsXqmM02/PL7foztQcugdgpEZgC9O2zk/IDNNxaK/+ILfB/1my+HTv6B9Z/3w9tEsX9hXNTNYm6C+8N39Ht+BkWOXa1wM3To+WlxcxEHKclOC2pKf/hbKryoi96cpYkbsiKU5Qb1syU9/C0WBtKanzTOuanKaE9RLtyf+tJAZsGZNF4MLeT/SkqBGtrJQLRPSQoY3kC62paf1My6aM8o0cQ97QlqIsWQffUanp4ESWaYT1CjTJEylhbQLDus9/dc3fPwbG/wrx/Y3+0WOSixjJOuzP8QrxKlzV5V3ta/0HLU2HFeU4EsW27152jreWWCwlxZmKHcDq40laSrtp1vyc4IvjVXnFSjL3NFekIjAhTCQ7KdastVnf0hUmIBJAAc9of6V9tMhaDj8FwfKQzWxZHFUOF56Wk9Qw7PccUmDH0OAp1oDdJiIbtHWk7bX10gaHr7VkR6g1zrQcEJQk2KClcjjtulpQ21gFT4maXYUk3TdjsfuhuZqBw/QlbgEk7bemayrz/6rTUn1iykpuEAcmrcqq68cn11ZSOHjsj8ufx/AjdnVG0hFs3sW66iJpjb0vOl4pNnFqmrtOhE8OoeLiV+YbkW6pr5G0uxheYHYTrrD7waq6kB/euJFHjbFGjd8t+MxbR2B4MicyJuORzqE94FSMLqCkjrfzdgfrUjX1NdMWuuYnXQ5oXK/oKfAhWsDzW2cWrLEjqXgBDWZN33fkp+2kM6gjvCBoiw2slxhQTHElqRr6mtBOm1Lmn2WZsQ2Px+YdFpaR5ygpi/2vmtzp2nSLr4BkqolUXS5V3XbYfcu2pF28Q3yTN3cb0PaA083kHaAZgL9Kd/RFVN95H2K4h3NOppKBCdO6Yu9596wjqboZigkgz9vAq9exWo62KiqciHbqYh0xusxPeO6+iLuDRN3EyrSfgpMaNFoxFuBQ1Atpsomwpkvb6bE4hLA29RZgH6iuIhRXkfqmc6b1nDWLyIB0j4upMj4zBAG5TsA/U6H8vLMVVpXn9Y0kKS8U5ej3wFS/YVf+fAZ9RHUyW9kiR/WOHScUCFDPWf6SHkidyBny8Xes3Wca9Y0vAQSYdJs9TrFl0z1ItJ5Uop5f6SuvlrSJZ4QhIlheeeRCfwKks7UR/ymQxk5SXfxzXMka3yi+Hh+dnp6+u48NIP0cculd5rOD2k97eOFmWikC7UXurxIOz1dV1+tnvb9CJdo0NMdWk9zcUL0ateRs6QS0U8UsSyQedMP3m5OK1l8D9QldwD/gY2qWM8xf2G1pe9RU1+TRUzRqy8NpH1gPIn+9PHPWhx6m1YitnfK6TzT8Jz1fS2tm2BksmsR3O4RsGd8VK78DbCWpPX65B/NpL2cz6nsbx1pOC1EfwLjrucb75KsqfcCLMdaZ1+3DkDvJhiZuhsKQuYuDMCrUYUi7m1Juqa+Ri8vgO+Y1pMOob6H0XjVdp94ZfTIKVqJaAcvNOcPTrXORtvyHn3xukl5z1y9tyx86aS6z9w272Gvr9mfjsGeqiPN3nUBKRXVHyfnbfuWt+iO09YR3PxdIvOm58a53WHN5ZUeaPVmA/Ab9IFSvkdCEbfW1yLvkSmdoHwP6eKIr8p3vDz4uAzEcnaNnr20Tr4wWsjrtHW8Mfvg4crDB3Ok99xWbahuEl1jIl/whunhetJ1WVNrfS2icU/9jFlt1jRHv18GE2ZV31L73W2bi22RMdRGJT4ItoIQe8LdME4i7WJ5GLq2vwPpmFvg0fXZr1kHsiIvFI/5qhH1vwfUvqCG0w2TOLT+JiSXN+hXb7+q2pgIIUdOtVnYY6qNidBisY5SLp2aXCZ9UWKJHbl6nqiNFyo261ibq5vI3oSIHRtydRPZqxx5BymRsxP1/PXJIemJNOdEJ/IV5Sc/Pf6z48cnXt2e5P+40cIJBKV3WgAAAABJRU5ErkJggg==;" vertex="1" parent="1">
          <mxGeometry x="60" y="760" width="279.88" height="69" as="geometry" />
        </mxCell>
      </root>
    </mxGraphModel>
  </diagram>
</mxfile>
